<?xml version="1.0" encoding="UTF-8" standalone="no"?>
<!-- Created with Inkscape (http://www.inkscape.org/) -->

<svg
   version="1.0"
   width="96"
   height="96"
   id="svg2408"
   sodipodi:docname="application-pdf.svg"
   inkscape:version="1.2.2 (b0a8486541, 2022-12-01)"
   xmlns:inkscape="http://www.inkscape.org/namespaces/inkscape"
   xmlns:sodipodi="http://sodipodi.sourceforge.net/DTD/sodipodi-0.dtd"
   xmlns:xlink="http://www.w3.org/1999/xlink"
   xmlns="http://www.w3.org/2000/svg"
   xmlns:svg="http://www.w3.org/2000/svg"
   xmlns:rdf="http://www.w3.org/1999/02/22-rdf-syntax-ns#"
   xmlns:cc="http://creativecommons.org/ns#"
   xmlns:dc="http://purl.org/dc/elements/1.1/">
  <sodipodi:namedview
     id="namedview20265"
     pagecolor="#ffffff"
     bordercolor="#000000"
     borderopacity="0.25"
     inkscape:showpageshadow="2"
     inkscape:pageopacity="0.0"
     inkscape:pagecheckerboard="0"
     inkscape:deskcolor="#d1d1d1"
     showgrid="false"
     inkscape:zoom="3.7822847"
     inkscape:cx="28.55417"
     inkscape:cy="31.198074"
     inkscape:current-layer="svg2408" />
  <defs
     id="defs2410">
    <linearGradient
       inkscape:collect="always"
       id="linearGradient27692">
      <stop
         style="stop-color:#f12300;stop-opacity:1;"
         offset="0"
         id="stop27688" />
      <stop
         style="stop-color:#f12300;stop-opacity:1;"
         offset="1"
         id="stop27690" />
    </linearGradient>
    <linearGradient
       id="linearGradient3174">
      <stop
         id="stop3176"
         style="stop-color:#c30000;stop-opacity:1"
         offset="0" />
      <stop
         id="stop3178"
         style="stop-color:#f12300;stop-opacity:1"
         offset="1" />
    </linearGradient>
    <linearGradient
       x1="45.447727"
       y1="92.539597"
       x2="45.447727"
       y2="7.0165396"
       id="ButtonShadow"
       gradientUnits="userSpaceOnUse"
       gradientTransform="scale(1.0058652,0.994169)">
      <stop
         id="stop3750"
         style="stop-color:#000000;stop-opacity:1"
         offset="0" />
      <stop
         id="stop3752"
         style="stop-color:#000000;stop-opacity:0.58823532"
         offset="1" />
    </linearGradient>
    <linearGradient
       id="linearGradient3737">
      <stop
         id="stop3739"
         style="stop-color:#ffffff;stop-opacity:1"
         offset="0" />
      <stop
         id="stop3741"
         style="stop-color:#ffffff;stop-opacity:0"
         offset="1" />
    </linearGradient>
    <linearGradient
       id="linearGradient3700">
      <stop
         id="stop3702"
         style="stop-color:#e6e6e6;stop-opacity:1"
         offset="0" />
      <stop
         id="stop3704"
         style="stop-color:#f5f5f5;stop-opacity:1"
         offset="1" />
    </linearGradient>
    <linearGradient
       x1="48"
       y1="90"
       x2="48"
       y2="5.9877172"
       id="linearGradient3706"
       xlink:href="#linearGradient3700"
       gradientUnits="userSpaceOnUse" />
    <filter
       color-interpolation-filters="sRGB"
       id="filter3174"
       x="-0.047720931"
       y="-0.048282354"
       width="1.0954419"
       height="1.0965647">
      <feGaussianBlur
         stdDeviation="1.71"
         id="feGaussianBlur3176" />
    </filter>
    <linearGradient
       x1="36.357143"
       y1="6"
       x2="36.357143"
       y2="63.893143"
       id="linearGradient3188"
       xlink:href="#linearGradient3737"
       gradientUnits="userSpaceOnUse" />
    <linearGradient
       x1="44.921871"
       y1="53.044323"
       x2="72.431229"
       y2="53.044323"
       id="linearGradient3203"
       xlink:href="#linearGradient3174"
       gradientUnits="userSpaceOnUse" />
    <linearGradient
       x1="45.447727"
       y1="92.539597"
       x2="45.447727"
       y2="7.0165396"
       id="ButtonShadow-0"
       gradientUnits="userSpaceOnUse"
       gradientTransform="matrix(1.0058652,0,0,0.994169,100,0)">
      <stop
         id="stop3750-8"
         style="stop-color:#000000;stop-opacity:1"
         offset="0" />
      <stop
         id="stop3752-5"
         style="stop-color:#000000;stop-opacity:0.58823532"
         offset="1" />
    </linearGradient>
    <linearGradient
       x1="32.251034"
       y1="6.1317081"
       x2="32.251034"
       y2="90.238609"
       id="linearGradient3780"
       xlink:href="#ButtonShadow-0"
       gradientUnits="userSpaceOnUse"
       gradientTransform="matrix(1.0238095,0,0,1.0119048,-1.1428571,-98.071429)" />
    <linearGradient
       x1="32.251034"
       y1="6.1317081"
       x2="32.251034"
       y2="90.238609"
       id="linearGradient3772"
       xlink:href="#ButtonShadow-0"
       gradientUnits="userSpaceOnUse"
       gradientTransform="matrix(1.0238095,0,0,1.0119048,-1.1428571,-98.071429)" />
    <linearGradient
       x1="32.251034"
       y1="6.1317081"
       x2="32.251034"
       y2="90.238609"
       id="linearGradient3725"
       xlink:href="#ButtonShadow-0"
       gradientUnits="userSpaceOnUse"
       gradientTransform="matrix(1.0238095,0,0,1.0119048,-1.1428571,-98.071429)" />
    <linearGradient
       x1="32.251034"
       y1="6.1317081"
       x2="32.251034"
       y2="90.238609"
       id="linearGradient3721"
       xlink:href="#ButtonShadow-0"
       gradientUnits="userSpaceOnUse"
       gradientTransform="translate(0,-97)" />
    <linearGradient
       x1="32.251034"
       y1="6.1317081"
       x2="32.251034"
       y2="90.238609"
       id="linearGradient3760"
       xlink:href="#ButtonShadow-0"
       gradientUnits="userSpaceOnUse"
       gradientTransform="matrix(1.0238095,0,0,1.0119048,-1.1428571,-98.071429)" />
    <linearGradient
       id="linearGradient3737-0">
      <stop
         id="stop3739-6"
         style="stop-color:#ffffff;stop-opacity:1"
         offset="0" />
      <stop
         id="stop3741-0"
         style="stop-color:#ffffff;stop-opacity:0"
         offset="1" />
    </linearGradient>
    <radialGradient
       cx="48"
       cy="90.171875"
       r="42"
       fx="48"
       fy="90.171875"
       id="radialGradient2903"
       xlink:href="#linearGradient3737-0"
       gradientUnits="userSpaceOnUse"
       gradientTransform="matrix(1.1573129,0,0,0.99590774,-7.551021,0.1971319)" />
    <linearGradient
       id="linearGradient3737-9">
      <stop
         id="stop3739-2"
         style="stop-color:#ffffff;stop-opacity:1"
         offset="0" />
      <stop
         id="stop3741-1"
         style="stop-color:#ffffff;stop-opacity:0"
         offset="1" />
    </linearGradient>
    <clipPath
       id="clipPath3613">
      <rect
         width="84"
         height="84"
         rx="6"
         ry="6"
         x="6"
         y="6"
         id="rect3615"
         style="fill:#ffffff;fill-opacity:1;fill-rule:nonzero;stroke:none" />
    </clipPath>
    <filter
       x="-0.19578789"
       y="-0.19578789"
       width="1.3915758"
       height="1.3915758"
       color-interpolation-filters="sRGB"
       id="filter3794">
      <feGaussianBlur
         id="feGaussianBlur3796"
         stdDeviation="5.28" />
    </filter>
    <linearGradient
       x1="48"
       y1="20.220806"
       x2="48"
       y2="138.66119"
       id="linearGradient3822"
       xlink:href="#linearGradient3737-9"
       gradientUnits="userSpaceOnUse" />
    <linearGradient
       inkscape:collect="always"
       xlink:href="#linearGradient3700"
       id="linearGradient27536"
       gradientUnits="userSpaceOnUse"
       x1="48"
       y1="90"
       x2="48"
       y2="5.9877172"
       gradientTransform="translate(36.296979,2.6825689)" />
    <clipPath
       clipPathUnits="userSpaceOnUse"
       id="clipPath27595">
      <rect
         width="84"
         height="84"
         rx="6"
         ry="6"
         x="44.578121"
         y="6.0584717"
         id="rect27597"
         style="display:inline;fill:url(#linearGradient27599);fill-opacity:1;fill-rule:nonzero;stroke:none;stroke-width:1" />
    </clipPath>
    <linearGradient
       inkscape:collect="always"
       xlink:href="#linearGradient3700"
       id="linearGradient27599"
       gradientUnits="userSpaceOnUse"
       gradientTransform="translate(38.578121,0.0584722)"
       x1="48"
       y1="90"
       x2="48"
       y2="5.9877172" />
    <clipPath
       clipPathUnits="userSpaceOnUse"
       id="clipPath27601">
      <rect
         width="84"
         height="84"
         rx="6"
         ry="6"
         x="44.578121"
         y="6.0584717"
         id="rect27603"
         style="display:inline;fill:url(#linearGradient27605);fill-opacity:1;fill-rule:nonzero;stroke:none;stroke-width:1" />
    </clipPath>
    <linearGradient
       inkscape:collect="always"
       xlink:href="#linearGradient3700"
       id="linearGradient27605"
       gradientUnits="userSpaceOnUse"
       gradientTransform="translate(38.578121,0.0584722)"
       x1="48"
       y1="90"
       x2="48"
       y2="5.9877172" />
    <clipPath
       clipPathUnits="userSpaceOnUse"
       id="clipPath27607">
      <rect
         width="84"
         height="84"
         rx="6"
         ry="6"
         x="44.578121"
         y="6.0584717"
         id="rect27609"
         style="display:inline;fill:url(#linearGradient27611);fill-opacity:1;fill-rule:nonzero;stroke:none;stroke-width:1" />
    </clipPath>
    <linearGradient
       inkscape:collect="always"
       xlink:href="#linearGradient3700"
       id="linearGradient27611"
       gradientUnits="userSpaceOnUse"
       gradientTransform="translate(38.578121,0.0584722)"
       x1="48"
       y1="90"
       x2="48"
       y2="5.9877172" />
    <linearGradient
       inkscape:collect="always"
       xlink:href="#linearGradient27692"
       id="linearGradient27694"
       x1="45.300537"
       y1="54.101097"
       x2="45.300537"
       y2="26.759766"
       gradientUnits="userSpaceOnUse" />
  </defs>
  <metadata
     id="metadata2413">
    <rdf:RDF>
      <cc:Work
         rdf:about="">
        <dc:format>image/svg+xml</dc:format>
        <dc:type
           rdf:resource="http://purl.org/dc/dcmitype/StillImage" />
      </cc:Work>
    </rdf:RDF>
  </metadata>
  <g
     id="layer2"
     style="display:none">
    <rect
       width="86"
       height="85"
       rx="6"
       ry="6"
       x="5"
       y="7"
       id="rect3745"
       style="opacity:0.9;fill:url(#ButtonShadow);fill-opacity:1;fill-rule:nonzero;stroke:none;filter:url(#filter3174)" />
  </g>
  <g
     id="layer7"
     style="display:inline">
    <path
       d="m 12,-95.03125 c -5.5110903,0 -10.03125,4.52016 -10.03125,10.03125 l 0,71 c 0,5.5110902 4.5201598,10.03125 10.03125,10.03125 l 72,0 c 5.51109,0 10.03125,-4.5201597 10.03125,-10.03125 l 0,-71 c 0,-5.51109 -4.52016,-10.03125 -10.03125,-10.03125 l -72,0 z"
       transform="scale(1,-1)"
       id="path3786"
       style="opacity:0.07999998;fill:url(#linearGradient3760);fill-opacity:1;fill-rule:nonzero;stroke:none;display:inline" />
    <path
       d="m 12,-94.03125 c -4.971633,0 -9.03125,4.059617 -9.03125,9.03125 l 0,71 c 0,4.9716329 4.0596171,9.03125 9.03125,9.03125 l 72,0 c 4.971633,0 9.03125,-4.059617 9.03125,-9.03125 l 0,-71 c 0,-4.971633 -4.059617,-9.03125 -9.03125,-9.03125 l -72,0 z"
       transform="scale(1,-1)"
       id="path3778"
       style="opacity:0.1;fill:url(#linearGradient3780);fill-opacity:1;fill-rule:nonzero;stroke:none;display:inline" />
    <path
       d="m 12,-93 c -4.4091333,0 -8,3.590867 -8,8 l 0,71 c 0,4.4091333 3.5908667,8 8,8 l 72,0 c 4.409133,0 8,-3.5908667 8,-8 l 0,-71 c 0,-4.409133 -3.590867,-8 -8,-8 l -72,0 z"
       transform="scale(1,-1)"
       id="path3770"
       style="opacity:0.2;fill:url(#linearGradient3772);fill-opacity:1;fill-rule:nonzero;stroke:none;display:inline" />
    <rect
       width="86"
       height="85"
       rx="7"
       ry="7"
       x="5"
       y="-92"
       transform="scale(1,-1)"
       id="rect3723"
       style="opacity:0.3;fill:url(#linearGradient3725);fill-opacity:1;fill-rule:nonzero;stroke:none;display:inline" />
    <rect
       width="84"
       height="84"
       rx="6"
       ry="6"
       x="6"
       y="-91"
       transform="scale(1,-1)"
       id="rect3716"
       style="opacity:0.45;fill:url(#linearGradient3721);fill-opacity:1;fill-rule:nonzero;stroke:none;display:inline" />
  </g>
  <g
     id="layer1">
    <rect
       width="84"
       height="84"
       rx="6"
       ry="6"
       x="6"
       y="6"
       id="rect2419"
       style="display:inline;fill:url(#linearGradient3706);fill-opacity:1;fill-rule:nonzero;stroke:none" />
  </g>
  <g
     id="layer5">
    <rect
       width="66"
       height="66"
       rx="12"
       ry="12"
       x="15"
       y="15"
       clip-path="url(#clipPath3613)"
       id="rect3171"
       style="opacity:0.5;fill:url(#linearGradient3822);fill-opacity:1;fill-rule:nonzero;stroke:#ffffff;stroke-width:0.5;stroke-linecap:round;stroke-linejoin:miter;stroke-miterlimit:4;stroke-opacity:1;stroke-dasharray:none;stroke-dashoffset:0;display:inline;filter:url(#filter3794)" />
  </g>
  <g
     id="layer3"
     transform="matrix(0,-1,0.99915887,0,-0.0180484,134.57812)">
    <path
       d="M 90,28.6875 C 66.483285,59.017616 30.249279,63.158806 6,58.78125 v 4.90625 c 22.767532,4.109913 50.946157,3.417984 71.3125,-5.09375 -4.387217,6.352052 -6.223842,13.463734 -6.65625,19.9375 -0.278127,4.163964 0.003,8.088332 0.46875,11.46875 h 4.03125 c -0.478649,-3.261833 -0.772231,-7.111813 -0.5,-11.1875 C 75.286755,69.372953 78.723322,58.984232 90,51.84375 Z"
       inkscape:connector-curvature="0"
       id="path3192"
       style="display:none;opacity:0.1;fill:#000000;fill-opacity:1;fill-rule:evenodd;stroke:none" />
    <path
       d="M 58.762131,6.0005672 C 54.813987,14.692463 51.82222,23.633779 49.837199,32.644132 48.806861,33.464064 47.759914,34.230151 46.687219,35.006616 34.448967,43.86517 19.768492,49.65331 6,49.312763 v 6.562455 C 18.183497,57.025416 26.288573,59.087281 31.806074,66.42514 37.263113,73.682589 40.318537,80.858914 40.318537,90 h 4.199972 c 0,-9.113789 -3.95447,-19.939986 -9.299958,-26.068593 C 29.93589,57.874832 23.264186,55.069699 14.268692,52.987738 26.298245,51.377178 38.242322,46.028524 48.524707,38.681591 45.55928,55.902052 46.04264,73.389567 49.705946,90 H 78.712 C 64.218349,76.858849 57.948589,53.302841 57.974636,31.069143 66.147448,23.461052 72.49871,14.738119 75.824519,6.0005672 h -4.46247 C 68.596865,12.400983 63.962095,18.968932 58.10589,25.031685 58.462461,18.332933 59.531125,11.920825 60.993371,6.0005672 Z"
       inkscape:connector-curvature="0"
       id="path4144"
       style="display:inline;fill:url(#linearGradient3203);fill-opacity:1;fill-rule:evenodd;stroke:none"
       clip-path="url(#clipPath27607)" />
    <path
       d="M 58.75,6 C 54.801856,14.691896 51.828771,23.645897 49.84375,32.65625 48.813412,33.476182 47.760195,34.223535 46.6875,35 34.449248,43.858554 19.768492,49.653047 6,49.3125 v 1 C 19.768492,50.653047 34.449248,44.858554 46.6875,36 47.760195,35.223535 48.813412,34.476182 49.84375,33.65625 51.828771,24.645897 54.801856,15.691896 58.75,7 h 2 C 60.828988,6.6670557 60.918512,6.3299248 61,6 Z m 12.625,0 c -2.750591,6.366638 -7.375043,12.901458 -13.1875,18.9375 -0.02373,0.36488 -0.07423,0.727119 -0.09375,1.09375 C 63.949955,19.968497 68.609816,13.400416 71.375,7 h 4.03125 C 75.54317,6.6637659 75.684478,6.3363402 75.8125,6 Z M 58.03125,35.25 c 0.535584,20.715555 6.558943,42.08726 19.625,54.75 h 1.0625 C 65.130952,77.680171 58.751682,56.206067 58.03125,35.25 Z m -9.5,4.4375 c -0.06075,0.04341 -0.126632,0.08173 -0.1875,0.125 -1.048187,6.416674 -1.61151,12.856525 -1.71875,19.28125 0.156241,-6.472447 0.794215,-12.948577 1.90625,-19.40625 z M 16.75,53.625 c -0.822927,0.14489 -1.644513,0.264648 -2.46875,0.375 8.995494,2.081961 15.654839,4.880925 20.9375,10.9375 C 40.369893,70.84329 44.226175,81.105736 44.5,90 h 0.03125 c 0,-9.113789 -3.967012,-19.933893 -9.3125,-26.0625 C 30.438061,58.456437 24.498696,55.654163 16.75,53.625 Z"
       inkscape:connector-curvature="0"
       id="path3683"
       style="display:inline;opacity:0.6;fill:#550000;fill-opacity:1;fill-rule:evenodd;stroke:none"
       clip-path="url(#clipPath27601)" />
    <path
       d="m 60.75,7 c -1.338401,5.641496 -2.31955,11.705807 -2.65625,18.03125 0.03091,-0.032 0.06291,-0.06173 0.09375,-0.09375 C 58.597335,18.635619 59.617784,12.596235 61,7 Z m 14.65625,0 c -3.420027,8.398562 -9.579289,16.747272 -17.4375,24.0625 -3.89e-4,0.331772 -0.0024,0.667678 0,1 C 66.141562,24.454409 72.486691,15.737552 75.8125,7 Z m -26.875,31.6875 C 38.248865,46.034433 26.310803,51.38944 14.28125,53 c 0.854775,0.197833 1.655137,0.411938 2.46875,0.625 11.11655,-1.957259 22.058519,-7.034282 31.59375,-13.8125 0.0615,-0.376516 0.122704,-0.748727 0.1875,-1.125 z M 6,55.875 v 1 c 12.183497,1.150198 20.294999,3.224641 25.8125,10.5625 5.254879,6.988591 8.252476,13.898377 8.46875,22.5625 h 0.03125 c 0,-9.141086 -3.042961,-16.305051 -8.5,-23.5625 C 26.294999,59.099641 18.183497,57.025198 6,55.875 Z m 40.625,8.6875 C 46.768504,73.158773 47.734334,81.686962 49.5,90 h 0.21875 C 47.887097,81.694783 46.833075,73.163241 46.625,64.5625 Z"
       inkscape:connector-curvature="0"
       id="path3671"
       style="display:inline;opacity:0.8;fill:#ffffff;fill-opacity:1;fill-rule:evenodd;stroke:none"
       clip-path="url(#clipPath27595)" />
  </g>
  <g
     id="layer4">
    <path
       d="M 12,6 C 8.676,6 6,8.676 6,12 l 0,2 0,68 0,2 c 0,0.334721 0.04135,0.6507 0.09375,0.96875 0.0487,0.295596 0.09704,0.596915 0.1875,0.875 0.00988,0.03038 0.020892,0.0636 0.03125,0.09375 0.098865,0.287771 0.2348802,0.547452 0.375,0.8125 0.1445918,0.273507 0.3156161,0.535615 0.5,0.78125 0.1843839,0.245635 0.3737765,0.473472 0.59375,0.6875 0.439947,0.428056 0.94291,0.814526 1.5,1.09375 0.278545,0.139612 0.5734731,0.246947 0.875,0.34375 -0.2562018,-0.100222 -0.4867109,-0.236272 -0.71875,-0.375 -0.00741,-0.0044 -0.023866,0.0045 -0.03125,0 -0.031933,-0.0193 -0.062293,-0.04251 -0.09375,-0.0625 -0.120395,-0.0767 -0.2310226,-0.163513 -0.34375,-0.25 -0.1061728,-0.0808 -0.2132809,-0.161112 -0.3125,-0.25 C 8.4783201,88.557317 8.3087904,88.373362 8.15625,88.1875 8.0486711,88.057245 7.9378561,87.922215 7.84375,87.78125 7.818661,87.74287 7.805304,87.69538 7.78125,87.65625 7.716487,87.553218 7.6510225,87.451733 7.59375,87.34375 7.4927417,87.149044 7.3880752,86.928049 7.3125,86.71875 7.30454,86.69694 7.288911,86.6782 7.28125,86.65625 7.2494249,86.5643 7.2454455,86.469419 7.21875,86.375 7.1884177,86.268382 7.1483606,86.171969 7.125,86.0625 7.0521214,85.720988 7,85.364295 7,85 L 7,83 7,15 7,13 C 7,10.218152 9.2181517,8 12,8 l 2,0 68,0 2,0 c 2.781848,0 5,2.218152 5,5 l 0,2 0,68 0,2 c 0,0.364295 -0.05212,0.720988 -0.125,1.0625 -0.04415,0.206893 -0.08838,0.397658 -0.15625,0.59375 -0.0077,0.02195 -0.0233,0.04069 -0.03125,0.0625 -0.06274,0.173739 -0.138383,0.367449 -0.21875,0.53125 -0.04158,0.0828 -0.07904,0.169954 -0.125,0.25 -0.0546,0.09721 -0.126774,0.18835 -0.1875,0.28125 -0.09411,0.140965 -0.204921,0.275995 -0.3125,0.40625 -0.143174,0.17445 -0.303141,0.346998 -0.46875,0.5 -0.01117,0.0102 -0.01998,0.02115 -0.03125,0.03125 -0.138386,0.125556 -0.285091,0.234436 -0.4375,0.34375 -0.102571,0.07315 -0.204318,0.153364 -0.3125,0.21875 -0.0074,0.0045 -0.02384,-0.0044 -0.03125,0 -0.232039,0.138728 -0.462548,0.274778 -0.71875,0.375 0.301527,-0.0968 0.596455,-0.204138 0.875,-0.34375 0.55709,-0.279224 1.060053,-0.665694 1.5,-1.09375 0.219973,-0.214028 0.409366,-0.441865 0.59375,-0.6875 0.184384,-0.245635 0.355408,-0.507743 0.5,-0.78125 0.14012,-0.265048 0.276135,-0.524729 0.375,-0.8125 0.01041,-0.03078 0.02133,-0.06274 0.03125,-0.09375 0.09046,-0.278085 0.1388,-0.579404 0.1875,-0.875 C 89.95865,84.6507 90,84.334721 90,84 l 0,-2 0,-68 0,-2 C 90,8.676 87.324,6 84,6 L 12,6 z"
       inkscape:connector-curvature="0"
       id="rect3728"
       style="opacity:0.5;fill:url(#linearGradient3188);fill-opacity:1;fill-rule:nonzero;stroke:none" />
    <path
       d="M 12,90 C 8.676,90 6,87.324 6,84 L 6,82 6,14 6,12 c 0,-0.334721 0.04135,-0.6507 0.09375,-0.96875 0.0487,-0.295596 0.09704,-0.596915 0.1875,-0.875 C 6.29113,10.12587 6.302142,10.09265 6.3125,10.0625 6.411365,9.774729 6.5473802,9.515048 6.6875,9.25 6.8320918,8.976493 7.0031161,8.714385 7.1875,8.46875 7.3718839,8.223115 7.5612765,7.995278 7.78125,7.78125 8.221197,7.353194 8.72416,6.966724 9.28125,6.6875 9.559795,6.547888 9.8547231,6.440553 10.15625,6.34375 9.9000482,6.443972 9.6695391,6.580022 9.4375,6.71875 c -0.00741,0.0044 -0.023866,-0.0045 -0.03125,0 -0.031933,0.0193 -0.062293,0.04251 -0.09375,0.0625 -0.120395,0.0767 -0.2310226,0.163513 -0.34375,0.25 -0.1061728,0.0808 -0.2132809,0.161112 -0.3125,0.25 C 8.4783201,7.442683 8.3087904,7.626638 8.15625,7.8125 8.0486711,7.942755 7.9378561,8.077785 7.84375,8.21875 7.818661,8.25713 7.805304,8.30462 7.78125,8.34375 7.716487,8.446782 7.6510225,8.548267 7.59375,8.65625 7.4927417,8.850956 7.3880752,9.071951 7.3125,9.28125 7.30454,9.30306 7.288911,9.3218 7.28125,9.34375 7.2494249,9.4357 7.2454455,9.530581 7.21875,9.625 7.1884177,9.731618 7.1483606,9.828031 7.125,9.9375 7.0521214,10.279012 7,10.635705 7,11 l 0,2 0,68 0,2 c 0,2.781848 2.2181517,5 5,5 l 2,0 68,0 2,0 c 2.781848,0 5,-2.218152 5,-5 l 0,-2 0,-68 0,-2 C 89,10.635705 88.94788,10.279012 88.875,9.9375 88.83085,9.730607 88.78662,9.539842 88.71875,9.34375 88.71105,9.3218 88.69545,9.30306 88.6875,9.28125 88.62476,9.107511 88.549117,8.913801 88.46875,8.75 88.42717,8.6672 88.38971,8.580046 88.34375,8.5 88.28915,8.40279 88.216976,8.31165 88.15625,8.21875 88.06214,8.077785 87.951329,7.942755 87.84375,7.8125 87.700576,7.63805 87.540609,7.465502 87.375,7.3125 87.36383,7.3023 87.35502,7.29135 87.34375,7.28125 87.205364,7.155694 87.058659,7.046814 86.90625,6.9375 86.803679,6.86435 86.701932,6.784136 86.59375,6.71875 c -0.0074,-0.0045 -0.02384,0.0044 -0.03125,0 -0.232039,-0.138728 -0.462548,-0.274778 -0.71875,-0.375 0.301527,0.0968 0.596455,0.204138 0.875,0.34375 0.55709,0.279224 1.060053,0.665694 1.5,1.09375 0.219973,0.214028 0.409366,0.441865 0.59375,0.6875 0.184384,0.245635 0.355408,0.507743 0.5,0.78125 0.14012,0.265048 0.276135,0.524729 0.375,0.8125 0.01041,0.03078 0.02133,0.06274 0.03125,0.09375 0.09046,0.278085 0.1388,0.579404 0.1875,0.875 C 89.95865,11.3493 90,11.665279 90,12 l 0,2 0,68 0,2 c 0,3.324 -2.676,6 -6,6 l -72,0 z"
       inkscape:connector-curvature="0"
       id="path3615"
       style="opacity:0.3;fill:url(#radialGradient2903);fill-opacity:1;fill-rule:nonzero;stroke:none;display:inline" />
  </g>
  <g
     aria-label=".pdf"
     id="text20749"
     style="font-size:29.3333px;line-height:0;font-family:'Noto Serif Grantha';-inkscape-font-specification:'Noto Serif Grantha';letter-spacing:-1.86px;opacity:1;stroke-width:3.394;stroke-linecap:round;stroke-linejoin:round">
    <path
       id="path20761"
       style="font-family:'Liberation Mono';-inkscape-font-specification:'Liberation Mono';display:inline;opacity:0.8;fill:#ffffff;fill-opacity:1"
       d="m 58.148438,27.914062 v 6 l 0.0293,2.164063 h -0.0293 c -0.467881,-0.935762 -1.09397,-1.608942 -1.876954,-2.019531 -0.773436,-0.410589 -1.737198,-0.617188 -2.892578,-0.617188 -3.743047,0 -5.615234,2.70292 -5.615234,8.107422 0,2.673605 0.454212,4.674699 1.361328,6.001953 0.907116,1.327255 2.325091,1.990235 4.253906,1.990235 1.15538,0 2.119142,-0.225044 2.892578,-0.673828 0.773436,-0.458333 1.3954,-1.188805 1.863282,-2.191407 h 0.07031 c 0,0.410589 0.01432,0.893447 0.04297,1.447266 0.02865,0.553818 0.06337,0.901693 0.101562,1.044922 H 60.8125 c -0.05729,-0.515624 -0.08594,-1.579647 -0.08594,-3.19336 V 27.914062 Z m 15.097656,0 c -2.148433,10e-7 -3.685115,0.40929 -4.611328,1.230469 -0.916665,0.821179 -1.375,2.210508 -1.375,4.167969 v 0.359375 h -3.751954 v 2.033203 h 3.751954 v 13.462891 h 2.578125 V 35.705078 h 7.033203 v -2.033203 h -7.033203 v -0.144531 c 0,-0.888019 0.114583,-1.579646 0.34375,-2.076172 0.238715,-0.496527 0.611112,-0.854601 1.117187,-1.074219 0.506076,-0.219618 1.254993,-0.330078 2.248047,-0.330078 0.448784,0 1.107641,0.02864 1.976563,0.08594 0.87847,0.05729 1.461589,0.110464 1.748046,0.158204 v -2.076172 c -0.401041,-0.07639 -1.002605,-0.143879 -1.804687,-0.201172 -0.792533,-0.06684 -1.533205,-0.09961 -2.220703,-0.09961 z m -33.203125,5.441407 c -1.193574,0 -2.163413,0.229167 -2.908203,0.6875 -0.735242,0.448783 -1.34093,1.175132 -1.81836,2.177734 h -0.05859 c 0,-0.229166 -0.01432,-0.577041 -0.04297,-1.044922 -0.01909,-0.477429 -0.03754,-0.835503 -0.05664,-1.074219 -0.0191,-0.248264 -0.03342,-0.391494 -0.04297,-0.429687 h -2.505859 c 0.05729,0.515624 0.08594,1.583771 0.08594,3.207031 v 18.376953 h 2.591797 v -6.058593 c 0,-1.508678 -0.01845,-2.300565 -0.05664,-2.376954 h 0.07031 c 0.811631,1.756941 2.393235,2.634766 4.742188,2.634766 3.743047,0 5.613281,-2.70292 5.613281,-8.107422 0,-2.721348 -0.462459,-4.730689 -1.388672,-6.029297 -0.926213,-1.308157 -2.333988,-1.96289 -4.224609,-1.96289 z m -0.673828,1.992187 c 1.250865,0 2.167536,0.462459 2.75,1.388672 0.582464,0.916665 0.873046,2.453346 0.873047,4.611328 0,2.205725 -0.290583,3.791452 -0.873047,4.75586 -0.582464,0.964407 -1.509335,1.447265 -2.779297,1.447265 -1.42274,0 -2.453995,-0.472658 -3.09375,-1.417969 -0.639756,-0.94531 -0.958985,-2.4349 -0.958985,-4.46875 0,-2.119787 0.319229,-3.701391 0.958985,-4.742187 0.639755,-1.050345 1.681209,-1.574219 3.123047,-1.574219 z m 14.710937,0 c 1.42274,0 2.453995,0.466582 3.09375,1.402344 0.649304,0.935762 0.97461,2.431428 0.97461,4.484375 0,2.196176 -0.333552,3.80035 -1.001954,4.8125 -0.668401,1.002602 -1.699656,1.503906 -3.09375,1.503906 -1.279511,0 -2.206381,-0.482858 -2.779296,-1.447265 -0.563367,-0.973957 -0.845704,-2.520838 -0.845704,-4.640625 0,-2.110239 0.28646,-3.65712 0.859375,-4.640625 0.572916,-0.983505 1.503909,-1.47461 2.792969,-1.47461 z M 21.40625,44.886719 v 4.28125 h 3.365234 v -4.28125 z" />
    <path
       id="path20751"
       style="font-size:29.3333px;line-height:0;font-family:'Liberation Mono';-inkscape-font-specification:'Liberation Mono';letter-spacing:-1.86px;display:inline;opacity:1;fill:url(#linearGradient27694);fill-opacity:1;stroke-width:3.394;stroke-linecap:round;stroke-linejoin:round"
       d="m 58.115389,26.759299 v 6 l 0.0293,2.164063 h -0.0293 c -0.467881,-0.935762 -1.09397,-1.608942 -1.876954,-2.019531 -0.773436,-0.410589 -1.737198,-0.617188 -2.892578,-0.617188 -3.743047,0 -5.615234,2.70292 -5.615234,8.107422 0,2.673605 0.454212,4.674699 1.361328,6.001953 0.907116,1.327255 2.325091,1.990235 4.253906,1.990235 1.15538,0 2.119142,-0.225044 2.892578,-0.673828 0.773436,-0.458333 1.3954,-1.188805 1.863282,-2.191407 h 0.07031 c 0,0.410589 0.01432,0.893447 0.04297,1.447266 0.02865,0.553818 0.06337,0.901693 0.101562,1.044922 h 2.462892 c -0.05729,-0.515624 -0.08594,-1.579647 -0.08594,-3.19336 V 26.759299 Z m 15.097656,0 c -2.148433,1e-6 -3.685115,0.40929 -4.611328,1.230469 -0.916665,0.821179 -1.375,2.210508 -1.375,4.167969 v 0.359375 h -3.751954 v 2.033203 h 3.751954 v 13.462891 h 2.578125 V 34.550315 h 7.033203 v -2.033203 h -7.033203 v -0.144531 c 0,-0.888019 0.114583,-1.579646 0.34375,-2.076172 0.238715,-0.496527 0.611112,-0.854601 1.117187,-1.074219 0.506076,-0.219618 1.254993,-0.330078 2.248047,-0.330078 0.448784,0 1.107641,0.02864 1.976563,0.08594 0.87847,0.05729 1.461589,0.110464 1.748046,0.158204 v -2.076175 c -0.401041,-0.07639 -1.002605,-0.143879 -1.804687,-0.201172 -0.792533,-0.06684 -1.533205,-0.09961 -2.220703,-0.09961 z M 40.00992,32.200706 c -1.193574,0 -2.163413,0.229167 -2.908203,0.6875 -0.735242,0.448783 -1.34093,1.175132 -1.81836,2.177734 h -0.05859 c 0,-0.229166 -0.01432,-0.577041 -0.04297,-1.044922 -0.01909,-0.477429 -0.03754,-0.835503 -0.05664,-1.074219 -0.0191,-0.248264 -0.03342,-0.391494 -0.04297,-0.429687 h -2.505859 c 0.05729,0.515624 0.08594,1.583771 0.08594,3.207031 v 18.376953 h 2.591797 v -6.058593 c 0,-1.508678 -0.01845,-2.300565 -0.05664,-2.376954 h 0.07031 c 0.811631,1.756941 2.393235,2.634766 4.742188,2.634766 3.743047,0 5.613281,-2.70292 5.613281,-8.107422 0,-2.721348 -0.462459,-4.730689 -1.388672,-6.029297 -0.926213,-1.308157 -2.333988,-1.96289 -4.224609,-1.96289 z m -0.673828,1.992187 c 1.250865,0 2.167536,0.462459 2.75,1.388672 0.582464,0.916665 0.873046,2.453346 0.873047,4.611328 0,2.205725 -0.290583,3.791452 -0.873047,4.75586 -0.582464,0.964407 -1.509335,1.447265 -2.779297,1.447265 -1.42274,0 -2.453995,-0.472658 -3.09375,-1.417969 -0.639756,-0.94531 -0.958985,-2.4349 -0.958985,-4.46875 0,-2.119787 0.319229,-3.701391 0.958985,-4.742187 0.639755,-1.050345 1.681209,-1.574219 3.123047,-1.574219 z m 14.710937,0 c 1.42274,0 2.453995,0.466582 3.09375,1.402344 0.649304,0.935762 0.97461,2.431428 0.97461,4.484375 0,2.196176 -0.333552,3.80035 -1.001954,4.8125 -0.668401,1.002602 -1.699656,1.503906 -3.09375,1.503906 -1.279511,0 -2.206381,-0.482858 -2.779296,-1.447265 -0.563367,-0.973957 -0.845704,-2.520838 -0.845704,-4.640625 0,-2.110239 0.28646,-3.65712 0.859375,-4.640625 0.572916,-0.983505 1.503909,-1.47461 2.792969,-1.47461 z m -32.673828,9.539063 v 4.28125 h 3.365234 v -4.28125 z" />
    <path
       id="path26974"
       style="font-size:29.3333px;line-height:0;font-family:'Liberation Mono';-inkscape-font-specification:'Liberation Mono';letter-spacing:-1.86px;opacity:0.6;stroke-width:3.394;stroke-linecap:round;stroke-linejoin:round;display:inline;fill:#550000;fill-opacity:1"
       d="M 58.115234 26.759766 L 58.115234 27.414062 L 60.693359 27.414062 L 60.693359 26.759766 L 58.115234 26.759766 z M 73.212891 26.759766 C 71.06446 26.759767 69.527775 27.169056 68.601562 27.990234 C 67.684898 28.811413 67.226562 30.200744 67.226562 32.158203 L 67.226562 32.517578 L 63.474609 32.517578 L 63.474609 33.171875 L 67.226562 33.171875 L 67.226562 32.8125 C 67.226562 30.855041 67.684898 29.465709 68.601562 28.644531 C 69.527775 27.823353 71.06446 27.414063 73.212891 27.414062 C 73.900388 27.414063 74.641062 27.446832 75.433594 27.513672 C 76.235675 27.570965 76.837241 27.638454 77.238281 27.714844 L 77.238281 27.060547 C 76.837241 26.984157 76.235675 26.916668 75.433594 26.859375 C 74.641062 26.792535 73.900388 26.759766 73.212891 26.759766 z M 40.009766 32.201172 C 38.816193 32.201172 37.846352 32.430339 37.101562 32.888672 C 36.366321 33.337454 35.760633 34.063805 35.283203 35.066406 L 35.224609 35.066406 C 35.224609 34.83724 35.210291 34.489365 35.181641 34.021484 C 35.162551 33.544056 35.1441 33.185981 35.125 32.947266 C 35.1059 32.699002 35.091581 32.555771 35.082031 32.517578 L 32.576172 32.517578 C 32.591954 32.659625 32.599893 32.94591 32.611328 33.171875 L 35.082031 33.171875 C 35.091581 33.210068 35.1059 33.353299 35.125 33.601562 C 35.1441 33.840278 35.162551 34.198353 35.181641 34.675781 C 35.210291 35.143662 35.224609 35.491537 35.224609 35.720703 L 35.283203 35.720703 C 35.760633 34.718102 36.366321 33.991751 37.101562 33.542969 C 37.846352 33.084636 38.816193 32.855469 40.009766 32.855469 C 41.900385 32.855469 43.308163 33.510204 44.234375 34.818359 C 45.122146 36.063069 45.578438 37.967779 45.615234 40.519531 C 45.616852 40.409493 45.623047 40.305734 45.623047 40.193359 C 45.623047 37.472014 45.160587 35.462669 44.234375 34.164062 C 43.308163 32.855907 41.900385 32.201172 40.009766 32.201172 z M 53.345703 32.287109 C 49.60266 32.287109 47.730469 34.990035 47.730469 40.394531 C 47.730469 40.50616 47.736698 40.609466 47.738281 40.71875 C 47.815261 35.53883 49.681263 32.941406 53.345703 32.941406 C 54.501082 32.941406 55.464846 33.148005 56.238281 33.558594 C 57.021264 33.969182 57.647354 34.642364 58.115234 35.578125 L 58.144531 35.578125 L 58.134766 34.923828 L 58.115234 34.923828 C 57.647354 33.988067 57.021264 33.314885 56.238281 32.904297 C 55.464846 32.493708 54.501082 32.287109 53.345703 32.287109 z M 69.822266 32.517578 C 69.812855 32.681409 69.804688 32.847394 69.804688 33.027344 L 69.804688 33.171875 L 76.837891 33.171875 L 76.837891 32.517578 L 69.822266 32.517578 z M 58.109375 40.417969 C 58.075811 42.437895 57.74617 43.934205 57.113281 44.892578 C 56.444881 45.895179 55.413624 46.396484 54.019531 46.396484 C 52.740022 46.396484 51.813149 45.913625 51.240234 44.949219 C 50.708599 44.030119 50.436259 42.582069 50.40625 40.642578 C 50.404565 40.753706 50.394531 40.848448 50.394531 40.962891 C 50.394531 43.082676 50.676868 44.62956 51.240234 45.603516 C 51.813149 46.567922 52.740022 47.050781 54.019531 47.050781 C 55.413624 47.050781 56.444881 46.549476 57.113281 45.546875 C 57.781683 44.534726 58.115234 42.930549 58.115234 40.734375 C 58.115234 40.625267 58.111213 40.523928 58.109375 40.417969 z M 42.947266 40.523438 C 42.917737 42.547748 42.637132 44.036586 42.085938 44.949219 C 41.503474 45.913625 40.576601 46.396484 39.306641 46.396484 C 37.883902 46.396484 36.852645 45.923826 36.212891 44.978516 C 35.607921 44.084606 35.292597 42.697371 35.259766 40.830078 C 35.257887 40.941905 35.253906 41.049068 35.253906 41.164062 C 35.253906 43.19791 35.573135 44.687503 36.212891 45.632812 C 36.852645 46.578123 37.883902 47.050781 39.306641 47.050781 C 40.576601 47.050781 41.503474 46.567922 42.085938 45.603516 C 42.668401 44.639109 42.958984 43.053379 42.958984 40.847656 C 42.958984 40.731199 42.948958 40.636276 42.947266 40.523438 z M 21.373047 43.732422 L 21.373047 44.386719 L 24.738281 44.386719 L 24.738281 43.732422 L 21.373047 43.732422 z M 60.693359 44.820312 L 60.693359 45.474609 C 60.693359 46.643037 60.714104 47.421121 60.744141 48.013672 L 60.779297 48.013672 C 60.722007 47.498048 60.693359 46.434024 60.693359 44.820312 z M 35.197266 46.320312 C 35.235456 46.396701 35.253906 47.188589 35.253906 48.697266 L 35.253906 48.042969 C 35.253906 47.290337 35.249578 46.716329 35.240234 46.320312 L 35.197266 46.320312 z " />
  </g>
</svg>
