<?xml version="1.0" encoding="UTF-8" standalone="no"?>
<!-- Created with Inkscape (http://www.inkscape.org/) -->

<svg
   version="1.0"
   width="96"
   height="96"
   id="svg2408"
   sodipodi:docname="discord2.svg"
   inkscape:version="1.2.2 (b0a8486541, 2022-12-01)"
   xmlns:inkscape="http://www.inkscape.org/namespaces/inkscape"
   xmlns:sodipodi="http://sodipodi.sourceforge.net/DTD/sodipodi-0.dtd"
   xmlns:xlink="http://www.w3.org/1999/xlink"
   xmlns="http://www.w3.org/2000/svg"
   xmlns:svg="http://www.w3.org/2000/svg"
   xmlns:rdf="http://www.w3.org/1999/02/22-rdf-syntax-ns#"
   xmlns:cc="http://creativecommons.org/ns#"
   xmlns:dc="http://purl.org/dc/elements/1.1/">
  <sodipodi:namedview
     id="namedview15843"
     pagecolor="#ffffff"
     bordercolor="#000000"
     borderopacity="0.25"
     inkscape:showpageshadow="2"
     inkscape:pageopacity="0.0"
     inkscape:pagecheckerboard="0"
     inkscape:deskcolor="#d1d1d1"
     showgrid="false"
     inkscape:zoom="5.6568545"
     inkscape:cx="100.23238"
     inkscape:cy="35.178561"
     inkscape:current-layer="svg2408" />
  <defs
     id="defs2410">
    <linearGradient
       id="linearGradient35450">
      <stop
         id="stop35446"
         style="stop-color:#ffffff;stop-opacity:1;"
         offset="0" />
      <stop
         id="stop35448"
         style="stop-color:#5960b9;stop-opacity:1;"
         offset="1" />
    </linearGradient>
    <linearGradient
       id="linearGradient34696">
      <stop
         id="stop34692"
         style="stop-color:#193e76;stop-opacity:1;"
         offset="0" />
      <stop
         id="stop34694"
         style="stop-color:#193e76;stop-opacity:0;"
         offset="1" />
    </linearGradient>
    <linearGradient
       id="linearGradient32507">
      <stop
         id="stop32503"
         style="stop-color:#193e76;stop-opacity:1;"
         offset="0" />
      <stop
         id="stop32505"
         style="stop-color:#2d1d82;stop-opacity:0;"
         offset="1" />
    </linearGradient>
    <linearGradient
       inkscape:collect="always"
       id="linearGradient31763">
      <stop
         style="stop-color:#14355f;stop-opacity:1;"
         offset="0"
         id="stop31759" />
      <stop
         style="stop-color:#f2f8fc;stop-opacity:1;"
         offset="1"
         id="stop31761" />
    </linearGradient>
    <linearGradient
       inkscape:collect="always"
       id="linearGradient31749">
      <stop
         style="stop-color:#eefcfc;stop-opacity:1;"
         offset="0"
         id="stop31745" />
      <stop
         style="stop-color:#2f87b4;stop-opacity:1;"
         offset="1"
         id="stop31747" />
    </linearGradient>
    <linearGradient
       inkscape:collect="always"
       id="linearGradient31736">
      <stop
         style="stop-color:#ffffff;stop-opacity:1;"
         offset="0"
         id="stop31732" />
      <stop
         style="stop-color:#ffffff;stop-opacity:0;"
         offset="1"
         id="stop31734" />
    </linearGradient>
    <linearGradient
       inkscape:collect="always"
       id="linearGradient31712">
      <stop
         style="stop-color:#ffffff;stop-opacity:1;"
         offset="0"
         id="stop31708" />
      <stop
         style="stop-color:#ffffff;stop-opacity:0;"
         offset="1"
         id="stop31710" />
    </linearGradient>
    <linearGradient
       inkscape:collect="always"
       id="linearGradient48486">
      <stop
         style="stop-color:#45b4ce;stop-opacity:1;"
         offset="0"
         id="stop48482" />
      <stop
         style="stop-color:#2f87b4;stop-opacity:1;"
         offset="1"
         id="stop48484" />
    </linearGradient>
    <linearGradient
       id="linearGradient47754">
      <stop
         id="stop47750"
         style="stop-color:#e6e6e6;stop-opacity:1;"
         offset="0" />
      <stop
         id="stop47752"
         style="stop-color:#f5f5f5;stop-opacity:1"
         offset="1" />
    </linearGradient>
    <linearGradient
       inkscape:collect="always"
       id="linearGradient47746">
      <stop
         style="stop-color:#f5f5f5;stop-opacity:1;"
         offset="0"
         id="stop47742" />
      <stop
         style="stop-color:#e6e6e6;stop-opacity:1;"
         offset="1"
         id="stop47744" />
    </linearGradient>
    <linearGradient
       inkscape:collect="always"
       id="linearGradient47733">
      <stop
         style="stop-color:#09204d;stop-opacity:1;"
         offset="0"
         id="stop47729" />
      <stop
         style="stop-color:#092b70;stop-opacity:0;"
         offset="1"
         id="stop47731" />
    </linearGradient>
    <linearGradient
       id="linearGradient4085">
      <stop
         id="stop4087"
         style="stop-color:#782121;stop-opacity:1"
         offset="0" />
      <stop
         id="stop4089"
         style="stop-color:#782121;stop-opacity:0"
         offset="1" />
    </linearGradient>
    <linearGradient
       id="linearGradient3694">
      <stop
         id="stop3696"
         style="stop-color:#e6e6e6;stop-opacity:1"
         offset="0" />
      <stop
         id="stop3698"
         style="stop-color:#f5f5f5;stop-opacity:1"
         offset="1" />
    </linearGradient>
    <linearGradient
       id="linearGradient3688">
      <stop
         id="stop3690"
         style="stop-color:#6044ce;stop-opacity:1;"
         offset="0" />
      <stop
         id="stop3692"
         style="stop-color:#5c64d6;stop-opacity:1;"
         offset="1" />
    </linearGradient>
    <linearGradient
       x1="45.447727"
       y1="92.539597"
       x2="45.447727"
       y2="7.0165396"
       id="ButtonShadow"
       gradientUnits="userSpaceOnUse"
       gradientTransform="scale(1.0058652,0.994169)">
      <stop
         id="stop3750"
         style="stop-color:#000000;stop-opacity:1"
         offset="0" />
      <stop
         id="stop3752"
         style="stop-color:#000000;stop-opacity:0.58823532"
         offset="1" />
    </linearGradient>
    <linearGradient
       id="linearGradient3737">
      <stop
         id="stop3739"
         style="stop-color:#ffffff;stop-opacity:1"
         offset="0" />
      <stop
         id="stop3741"
         style="stop-color:#ffffff;stop-opacity:0"
         offset="1" />
    </linearGradient>
    <filter
       color-interpolation-filters="sRGB"
       id="filter3174"
       x="-0.047720931"
       y="-0.048282354"
       width="1.0954419"
       height="1.0965647">
      <feGaussianBlur
         id="feGaussianBlur3176"
         stdDeviation="1.71" />
    </filter>
    <linearGradient
       x1="36.357143"
       y1="6"
       x2="36.357143"
       y2="63.893143"
       id="linearGradient3188"
       xlink:href="#linearGradient3737"
       gradientUnits="userSpaceOnUse" />
    <filter
       x="-0.19578789"
       y="-0.19578789"
       width="1.3915758"
       height="1.3915758"
       color-interpolation-filters="sRGB"
       id="filter3794">
      <feGaussianBlur
         id="feGaussianBlur3796"
         stdDeviation="5.28" />
    </filter>
    <linearGradient
       x1="48"
       y1="20.220806"
       x2="48"
       y2="138.66119"
       id="linearGradient3613"
       xlink:href="#linearGradient3737"
       gradientUnits="userSpaceOnUse" />
    <radialGradient
       cx="48"
       cy="90.171875"
       r="42"
       fx="48"
       fy="90.171875"
       id="radialGradient3619"
       xlink:href="#linearGradient3737"
       gradientUnits="userSpaceOnUse"
       gradientTransform="matrix(1.1573129,0,0,0.99590774,-7.5510206,0.19713193)" />
    <clipPath
       id="clipPath3613">
      <rect
         width="84"
         height="84"
         rx="6"
         ry="6"
         x="6"
         y="6"
         id="rect3615"
         style="fill:#ffffff;fill-opacity:1;fill-rule:nonzero;stroke:none" />
    </clipPath>
    <linearGradient
       x1="48"
       y1="90"
       x2="48"
       y2="5.9877172"
       id="linearGradient3617"
       xlink:href="#linearGradient3688"
       gradientUnits="userSpaceOnUse" />
    <linearGradient
       x1="45.447727"
       y1="92.539597"
       x2="45.447727"
       y2="7.0165396"
       id="ButtonShadow-0"
       gradientUnits="userSpaceOnUse"
       gradientTransform="matrix(1.0058652,0,0,0.994169,100,0)">
      <stop
         id="stop3750-8"
         style="stop-color:#000000;stop-opacity:1"
         offset="0" />
      <stop
         id="stop3752-5"
         style="stop-color:#000000;stop-opacity:0.58823532"
         offset="1" />
    </linearGradient>
    <linearGradient
       x1="32.251034"
       y1="6.1317081"
       x2="32.251034"
       y2="90.238609"
       id="linearGradient3780"
       xlink:href="#ButtonShadow-0"
       gradientUnits="userSpaceOnUse"
       gradientTransform="matrix(1.0238095,0,0,1.0119048,-1.1428571,-98.071429)" />
    <linearGradient
       x1="32.251034"
       y1="6.1317081"
       x2="32.251034"
       y2="90.238609"
       id="linearGradient3772"
       xlink:href="#ButtonShadow-0"
       gradientUnits="userSpaceOnUse"
       gradientTransform="matrix(1.0238095,0,0,1.0119048,-1.1428571,-98.071429)" />
    <linearGradient
       x1="32.251034"
       y1="6.1317081"
       x2="32.251034"
       y2="90.238609"
       id="linearGradient3725"
       xlink:href="#ButtonShadow-0"
       gradientUnits="userSpaceOnUse"
       gradientTransform="matrix(1.0238095,0,0,1.0119048,-1.1428571,-98.071429)" />
    <linearGradient
       x1="32.251034"
       y1="6.1317081"
       x2="32.251034"
       y2="90.238609"
       id="linearGradient3721"
       xlink:href="#ButtonShadow-0"
       gradientUnits="userSpaceOnUse"
       gradientTransform="translate(0,-97)" />
    <linearGradient
       x1="32.251034"
       y1="6.1317081"
       x2="32.251034"
       y2="90.238609"
       id="linearGradient3026"
       xlink:href="#ButtonShadow-0"
       gradientUnits="userSpaceOnUse"
       gradientTransform="matrix(1.0238095,0,0,1.0119048,-1.1428571,-98.071429)" />
    <linearGradient
       x1="-73.494293"
       y1="72.699486"
       x2="-50.243786"
       y2="159.47563"
       id="linearGradient4018"
       xlink:href="#linearGradient3694"
       gradientUnits="userSpaceOnUse"
       gradientTransform="matrix(0.59136097,-0.15844727,-0.15844727,-0.59136097,103.35407,108.29989)" />
    <linearGradient
       x1="-73.494293"
       y1="72.699486"
       x2="-50.243786"
       y2="159.47563"
       id="linearGradient4071"
       xlink:href="#linearGradient47754"
       gradientUnits="userSpaceOnUse"
       gradientTransform="matrix(0.59136097,-0.15844727,-0.15844727,-0.59136097,103.35407,109.29989)" />
    <linearGradient
       x1="58"
       y1="19"
       x2="58"
       y2="120"
       id="linearGradient4091"
       xlink:href="#linearGradient4085"
       gradientUnits="userSpaceOnUse" />
    <linearGradient
       inkscape:collect="always"
       xlink:href="#linearGradient47733"
       id="linearGradient47735"
       x1="106.41936"
       y1="98.975731"
       x2="106.41936"
       y2="115.09776"
       gradientUnits="userSpaceOnUse" />
    <linearGradient
       inkscape:collect="always"
       xlink:href="#linearGradient47746"
       id="linearGradient47748"
       x1="107.14453"
       y1="100.16483"
       x2="107.14453"
       y2="115.69289"
       gradientUnits="userSpaceOnUse" />
    <linearGradient
       id="linearGradient5293">
      <stop
         id="stop5295"
         style="stop-color:#ffffff;stop-opacity:0;"
         offset="0" />
      <stop
         id="stop5297"
         style="stop-color:#ffffff;stop-opacity:1;"
         offset="1" />
    </linearGradient>
    <filter
       x="-0.034801643"
       y="-0.1346353"
       width="1.0696033"
       height="1.2692706"
       color-interpolation-filters="sRGB"
       id="filter8019">
      <feGaussianBlur
         id="feGaussianBlur8021"
         stdDeviation="0.37938072" />
    </filter>
    <filter
       x="-0.034801643"
       y="-0.1346353"
       width="1.0696033"
       height="1.2692706"
       color-interpolation-filters="sRGB"
       id="filter8019-3">
      <feGaussianBlur
         id="feGaussianBlur8021-6"
         stdDeviation="0.37938072" />
    </filter>
    <radialGradient
       cx="48.537003"
       cy="77.355194"
       r="15.495689"
       fx="48.537003"
       fy="77.355194"
       id="radialGradient3798"
       xlink:href="#linearGradient34696"
       gradientUnits="userSpaceOnUse"
       gradientTransform="matrix(1.1766897,-0.05334726,0.07971901,1.7583759,-14.511084,-48.650734)" />
    <filter
       color-interpolation-filters="sRGB"
       id="filter8041"
       x="-0.13734163"
       y="-0.071180501"
       width="1.2231173"
       height="1.1857501">
      <feGaussianBlur
         id="feGaussianBlur8043"
         stdDeviation="0.78995065" />
    </filter>
    <radialGradient
       inkscape:collect="always"
       xlink:href="#linearGradient32507"
       id="radialGradient15367"
       gradientUnits="userSpaceOnUse"
       gradientTransform="matrix(1.2242961,-0.10463345,0.09556319,1.1181668,-18.244266,2.9390239)"
       cx="47.772434"
       cy="77.049622"
       fx="47.772434"
       fy="77.049622"
       r="15.495689" />
    <filter
       color-interpolation-filters="sRGB"
       id="filter8047"
       x="-0.037362472"
       y="-0.042545466"
       width="1.0747249"
       height="1.0850909">
      <feGaussianBlur
         id="feGaussianBlur8049"
         stdDeviation="0.22026213" />
    </filter>
    <radialGradient
       cx="76.367531"
       cy="78"
       r="2.767844"
       fx="76.367531"
       fy="78"
       id="radialGradient3800"
       xlink:href="#linearGradient3737"
       gradientUnits="userSpaceOnUse"
       gradientTransform="matrix(1.1259937,-0.74675346,0.54425166,0.82065096,-62.680058,48.171271)" />
    <radialGradient
       cx="76.367531"
       cy="78"
       r="2.767844"
       fx="76.367531"
       fy="78"
       id="radialGradient3800-5"
       xlink:href="#linearGradient3737"
       gradientUnits="userSpaceOnUse"
       gradientTransform="matrix(-1.1259937,-0.74675346,-0.54425166,0.82065096,160.87951,47.817718)" />
    <radialGradient
       cx="76.367531"
       cy="78"
       r="2.767844"
       fx="76.367531"
       fy="78"
       id="radialGradient3802"
       xlink:href="#linearGradient3737"
       gradientUnits="userSpaceOnUse"
       gradientTransform="matrix(0.81502459,-0.5405203,0.39394401,0.59400927,-64.156549,21.757977)" />
    <clipPath
       id="clipPath3672">
      <rect
         width="111.24031"
         height="111.20501"
         rx="7.9457364"
         ry="7.9432149"
         x="11.498101"
         y="11.194011"
         id="rect3674"
         style="fill:#ffffff;fill-opacity:1;fill-rule:nonzero;stroke:none" />
    </clipPath>
    <filter
       color-interpolation-filters="sRGB"
       id="filter3666"
       x="-0.032592567"
       y="-0.031432819"
       width="1.070847"
       height="1.0695247">
      <feGaussianBlur
         id="feGaussianBlur3668"
         stdDeviation="1.83514" />
    </filter>
    <radialGradient
       inkscape:collect="always"
       xlink:href="#linearGradient31712"
       id="radialGradient31714"
       cx="68.235802"
       cy="64.691292"
       fx="68.235802"
       fy="64.691292"
       r="13.991991"
       gradientTransform="matrix(1.0703075,-0.30507703,0.38040737,0.5535483,-29.406532,49.698714)"
       gradientUnits="userSpaceOnUse" />
    <radialGradient
       inkscape:collect="always"
       xlink:href="#linearGradient31736"
       id="radialGradient31738"
       cx="73.047363"
       cy="80.288757"
       fx="73.047363"
       fy="80.288757"
       r="7.6029614"
       gradientTransform="matrix(0.40721856,-0.602696,0.96723095,0.65352085,-33.164109,71.992719)"
       gradientUnits="userSpaceOnUse" />
    <radialGradient
       inkscape:collect="always"
       xlink:href="#linearGradient31749"
       id="radialGradient31743"
       cx="107.19109"
       cy="102.64806"
       fx="107.19109"
       fy="102.64806"
       r="10.541109"
       gradientTransform="matrix(0.99971789,-0.02375157,0.01897334,0.79859907,-1.9173366,24.181346)"
       gradientUnits="userSpaceOnUse" />
    <linearGradient
       inkscape:collect="always"
       xlink:href="#linearGradient31763"
       id="linearGradient31765"
       x1="107.29261"
       y1="115.17142"
       x2="107.73906"
       y2="98.773254"
       gradientUnits="userSpaceOnUse" />
    <linearGradient
       inkscape:collect="always"
       xlink:href="#linearGradient48486"
       id="linearGradient31767"
       gradientUnits="userSpaceOnUse"
       x1="107.29261"
       y1="115.17142"
       x2="106.53261"
       y2="99.088799" />
    <radialGradient
       inkscape:collect="always"
       xlink:href="#linearGradient31712"
       id="radialGradient32501"
       gradientUnits="userSpaceOnUse"
       gradientTransform="matrix(1.0703075,-0.30507703,0.38040737,0.5535483,-29.406532,49.698714)"
       cx="68.235802"
       cy="64.691292"
       fx="68.235802"
       fy="64.691292"
       r="13.991991" />
    <filter
       color-interpolation-filters="sRGB"
       id="filter32511"
       x="-0.13734162"
       y="-0.071180496"
       width="1.2231173"
       height="1.1857501">
      <feGaussianBlur
         id="feGaussianBlur32509"
         stdDeviation="0.78995058" />
    </filter>
    <radialGradient
       inkscape:collect="always"
       xlink:href="#linearGradient32507"
       id="radialGradient34700"
       gradientUnits="userSpaceOnUse"
       gradientTransform="matrix(1.3742368,0.01256299,-0.01082904,1.1845645,-17.196387,-7.8151384)"
       cx="47.920013"
       cy="77.383873"
       fx="47.920013"
       fy="77.383873"
       r="15.495689" />
    <radialGradient
       inkscape:collect="always"
       xlink:href="#linearGradient31736"
       id="radialGradient35434"
       gradientUnits="userSpaceOnUse"
       gradientTransform="matrix(0.40721856,-0.602696,0.96723095,0.65352085,-33.164109,71.992719)"
       cx="73.047363"
       cy="80.288757"
       fx="73.047363"
       fy="80.288757"
       r="7.6029614" />
    <radialGradient
       inkscape:collect="always"
       xlink:href="#linearGradient35450"
       id="radialGradient35444"
       cx="48"
       cy="48"
       fx="48"
       fy="48"
       r="42"
       gradientUnits="userSpaceOnUse"
       gradientTransform="matrix(1.093364,0.06597301,-0.07043479,1.1673089,-1.1006068,-11.197531)" />
    <linearGradient
       x1="48.197182"
       y1="10.873245"
       x2="48.197182"
       y2="93.609375"
       id="linearGradient3613-9"
       xlink:href="#linearGradient3172"
       gradientUnits="userSpaceOnUse"
       gradientTransform="translate(-4.647891,-4.4507084)" />
    <linearGradient
       id="linearGradient3172">
      <stop
         id="stop3174"
         style="stop-color:#ffffff;stop-opacity:1"
         offset="0" />
      <stop
         id="stop3180"
         style="stop-color:#088eff;stop-opacity:1"
         offset="0.5" />
      <stop
         id="stop3176"
         style="stop-color:#a6d7ff;stop-opacity:0.54782611"
         offset="1" />
    </linearGradient>
    <clipPath
       id="clipPath3784">
      <rect
         width="84"
         height="84"
         rx="6"
         ry="6"
         x="6"
         y="6"
         id="rect3786"
         style="fill:#ffffff;fill-opacity:1;fill-rule:nonzero;stroke:none" />
    </clipPath>
    <filter
       x="-0.192"
       y="-0.192"
       width="1.384"
       height="1.384"
       color-interpolation-filters="sRGB"
       id="filter3792">
      <feGaussianBlur
         id="feGaussianBlur3794"
         stdDeviation="6.56" />
    </filter>
    <linearGradient
       x1="48"
       y1="6"
       x2="48"
       y2="109.10714"
       id="linearGradient4478"
       xlink:href="#linearGradient31736"
       gradientUnits="userSpaceOnUse" />
    <filter
       inkscape:collect="always"
       style="color-interpolation-filters:sRGB"
       id="filter63570"
       x="-0.10191009"
       y="-0.1316502"
       width="1.2038202"
       height="1.2633004">
      <feGaussianBlur
         inkscape:collect="always"
         stdDeviation="0.8816367"
         id="feGaussianBlur63572" />
    </filter>
  </defs>
  <metadata
     id="metadata2413">
    <rdf:RDF>
      <cc:Work
         rdf:about="">
        <dc:format>image/svg+xml</dc:format>
        <dc:type
           rdf:resource="http://purl.org/dc/dcmitype/StillImage" />
      </cc:Work>
    </rdf:RDF>
  </metadata>
  <g
     id="layer3">
    <path
       d="m 12,-95.03125 c -5.5110903,0 -10.03125,4.52016 -10.03125,10.03125 l 0,71 c 0,5.5110902 4.5201598,10.03125 10.03125,10.03125 l 72,0 c 5.51109,0 10.03125,-4.5201597 10.03125,-10.03125 l 0,-71 c 0,-5.51109 -4.52016,-10.03125 -10.03125,-10.03125 l -72,0 z"
       transform="scale(1,-1)"
       id="path3786"
       style="opacity:0.07999998;fill:url(#linearGradient3026);fill-opacity:1;fill-rule:nonzero;stroke:none;display:inline" />
    <path
       d="m 12,-94.03125 c -4.971633,0 -9.03125,4.059617 -9.03125,9.03125 l 0,71 c 0,4.9716329 4.0596171,9.03125 9.03125,9.03125 l 72,0 c 4.971633,0 9.03125,-4.059617 9.03125,-9.03125 l 0,-71 c 0,-4.971633 -4.059617,-9.03125 -9.03125,-9.03125 l -72,0 z"
       transform="scale(1,-1)"
       id="path3778"
       style="opacity:0.1;fill:url(#linearGradient3780);fill-opacity:1;fill-rule:nonzero;stroke:none;display:inline" />
    <path
       d="m 12,-93 c -4.4091333,0 -8,3.590867 -8,8 l 0,71 c 0,4.4091333 3.5908667,8 8,8 l 72,0 c 4.409133,0 8,-3.5908667 8,-8 l 0,-71 c 0,-4.409133 -3.590867,-8 -8,-8 l -72,0 z"
       transform="scale(1,-1)"
       id="path3770"
       style="opacity:0.2;fill:url(#linearGradient3772);fill-opacity:1;fill-rule:nonzero;stroke:none;display:inline" />
    <rect
       width="86"
       height="85"
       rx="7"
       ry="7"
       x="5"
       y="-92"
       transform="scale(1,-1)"
       id="rect3723"
       style="opacity:0.3;fill:url(#linearGradient3725);fill-opacity:1;fill-rule:nonzero;stroke:none;display:inline" />
    <rect
       width="84"
       height="84"
       rx="6"
       ry="6"
       x="6"
       y="-91"
       transform="scale(1,-1)"
       id="rect3716"
       style="display:inline;opacity:0.45;fill:url(#linearGradient3721);fill-opacity:1;fill-rule:nonzero;stroke:none" />
  </g>
  <g
     id="layer1">
    <rect
       width="84"
       height="84"
       rx="6"
       ry="6"
       x="6"
       y="6"
       id="rect2419"
       style="fill:url(#radialGradient35444);fill-opacity:1;fill-rule:nonzero;stroke:none" />
    <path
       d="M 12,6 C 8.676,6 6,8.676 6,12 v 2 68 2 c 0,0.334721 0.04135,0.6507 0.09375,0.96875 0.0487,0.295596 0.09704,0.596915 0.1875,0.875 0.00988,0.03038 0.020892,0.0636 0.03125,0.09375 0.098865,0.287771 0.2348802,0.547452 0.375,0.8125 0.1445918,0.273507 0.3156161,0.535615 0.5,0.78125 0.1843839,0.245635 0.3737765,0.473472 0.59375,0.6875 0.439947,0.428056 0.94291,0.814526 1.5,1.09375 0.278545,0.139612 0.5734731,0.246947 0.875,0.34375 -0.2562018,-0.100222 -0.4867109,-0.236272 -0.71875,-0.375 -0.00741,-0.0044 -0.023866,0.0045 -0.03125,0 -0.031933,-0.0193 -0.062293,-0.04251 -0.09375,-0.0625 -0.120395,-0.0767 -0.2310226,-0.163513 -0.34375,-0.25 -0.1061728,-0.0808 -0.2132809,-0.161112 -0.3125,-0.25 C 8.4783201,88.557317 8.3087904,88.373362 8.15625,88.1875 8.0486711,88.057245 7.9378561,87.922215 7.84375,87.78125 7.818661,87.74287 7.805304,87.69538 7.78125,87.65625 7.716487,87.553218 7.6510225,87.451733 7.59375,87.34375 7.4927417,87.149044 7.3880752,86.928049 7.3125,86.71875 7.30454,86.69694 7.288911,86.6782 7.28125,86.65625 7.2494249,86.5643 7.2454455,86.469419 7.21875,86.375 7.1884177,86.268382 7.1483606,86.171969 7.125,86.0625 7.0521214,85.720988 7,85.364295 7,85 V 83 15 13 C 7,10.218152 9.2181517,8 12,8 h 2 68 2 c 2.781848,0 5,2.218152 5,5 v 2 68 2 c 0,0.364295 -0.05212,0.720988 -0.125,1.0625 -0.04415,0.206893 -0.08838,0.397658 -0.15625,0.59375 -0.0077,0.02195 -0.0233,0.04069 -0.03125,0.0625 -0.06274,0.173739 -0.138383,0.367449 -0.21875,0.53125 -0.04158,0.0828 -0.07904,0.169954 -0.125,0.25 -0.0546,0.09721 -0.126774,0.18835 -0.1875,0.28125 -0.09411,0.140965 -0.204921,0.275995 -0.3125,0.40625 -0.143174,0.17445 -0.303141,0.346998 -0.46875,0.5 -0.01117,0.0102 -0.01998,0.02115 -0.03125,0.03125 -0.138386,0.125556 -0.285091,0.234436 -0.4375,0.34375 -0.102571,0.07315 -0.204318,0.153364 -0.3125,0.21875 -0.0074,0.0045 -0.02384,-0.0044 -0.03125,0 -0.232039,0.138728 -0.462548,0.274778 -0.71875,0.375 0.301527,-0.0968 0.596455,-0.204138 0.875,-0.34375 0.55709,-0.279224 1.060053,-0.665694 1.5,-1.09375 0.219973,-0.214028 0.409366,-0.441865 0.59375,-0.6875 0.184384,-0.245635 0.355408,-0.507743 0.5,-0.78125 0.14012,-0.265048 0.276135,-0.524729 0.375,-0.8125 0.01041,-0.03078 0.02133,-0.06274 0.03125,-0.09375 0.09046,-0.278085 0.1388,-0.579404 0.1875,-0.875 C 89.95865,84.6507 90,84.334721 90,84 V 82 14 12 C 90,8.676 87.324,6 84,6 Z"
       inkscape:connector-curvature="0"
       id="rect3728"
       style="display:inline;opacity:0.5;fill:url(#linearGradient3188);fill-opacity:1;fill-rule:nonzero;stroke:none" />
    <path
       d="M 12,90 C 8.676,90 6,87.324 6,84 V 82 14 12 c 0,-0.334721 0.04135,-0.6507 0.09375,-0.96875 0.0487,-0.295596 0.09704,-0.596915 0.1875,-0.875 C 6.29113,10.12587 6.302142,10.09265 6.3125,10.0625 6.411365,9.774729 6.5473802,9.515048 6.6875,9.25 6.8320918,8.976493 7.0031161,8.714385 7.1875,8.46875 7.3718839,8.223115 7.5612765,7.995278 7.78125,7.78125 8.221197,7.353194 8.72416,6.966724 9.28125,6.6875 9.559795,6.547888 9.8547231,6.440553 10.15625,6.34375 9.9000482,6.443972 9.6695391,6.580022 9.4375,6.71875 c -0.00741,0.0044 -0.023866,-0.0045 -0.03125,0 -0.031933,0.0193 -0.062293,0.04251 -0.09375,0.0625 -0.120395,0.0767 -0.2310226,0.163513 -0.34375,0.25 -0.1061728,0.0808 -0.2132809,0.161112 -0.3125,0.25 C 8.4783201,7.442683 8.3087904,7.626638 8.15625,7.8125 8.0486711,7.942755 7.9378561,8.077785 7.84375,8.21875 7.818661,8.25713 7.805304,8.30462 7.78125,8.34375 7.716487,8.446782 7.6510225,8.548267 7.59375,8.65625 7.4927417,8.850956 7.3880752,9.071951 7.3125,9.28125 7.30454,9.30306 7.288911,9.3218 7.28125,9.34375 7.2494249,9.4357 7.2454455,9.530581 7.21875,9.625 7.1884177,9.731618 7.1483606,9.828031 7.125,9.9375 7.0521214,10.279012 7,10.635705 7,11 v 2 68 2 c 0,2.781848 2.2181517,5 5,5 h 2 68 2 c 2.781848,0 5,-2.218152 5,-5 V 81 13 11 C 89,10.635705 88.94788,10.279012 88.875,9.9375 88.83085,9.730607 88.78662,9.539842 88.71875,9.34375 88.71105,9.3218 88.69545,9.30306 88.6875,9.28125 88.62476,9.107511 88.549117,8.913801 88.46875,8.75 88.42717,8.6672 88.38971,8.580046 88.34375,8.5 88.28915,8.40279 88.216976,8.31165 88.15625,8.21875 88.06214,8.077785 87.951329,7.942755 87.84375,7.8125 87.700576,7.63805 87.540609,7.465502 87.375,7.3125 87.36383,7.3023 87.35502,7.29135 87.34375,7.28125 87.205364,7.155694 87.058659,7.046814 86.90625,6.9375 86.803679,6.86435 86.701932,6.784136 86.59375,6.71875 c -0.0074,-0.0045 -0.02384,0.0044 -0.03125,0 -0.232039,-0.138728 -0.462548,-0.274778 -0.71875,-0.375 0.301527,0.0968 0.596455,0.204138 0.875,0.34375 0.55709,0.279224 1.060053,0.665694 1.5,1.09375 0.219973,0.214028 0.409366,0.441865 0.59375,0.6875 0.184384,0.245635 0.355408,0.507743 0.5,0.78125 0.14012,0.265048 0.276135,0.524729 0.375,0.8125 0.01041,0.03078 0.02133,0.06274 0.03125,0.09375 0.09046,0.278085 0.1388,0.579404 0.1875,0.875 C 89.95865,11.3493 90,11.665279 90,12 v 2 68 2 c 0,3.324 -2.676,6 -6,6 z"
       inkscape:connector-curvature="0"
       id="path3615"
       style="display:inline;opacity:0.40151515;fill:url(#radialGradient3619);fill-opacity:1;fill-rule:nonzero;stroke:none" />
    <path
       d="M 20.875,6 46.65625,46.65625 6,20.5 V 39 L 46.21875,48 6,56.75 V 75.125 L 46.65625,49.34375 20.5,90 H 39 L 48,49.78125 56.75,90 H 75.125 L 49.34375,49.34375 90,75.5 V 57 L 49.78125,48 90,39.25 V 20.875 L 49.34375,46.65625 75.5,6 H 57 L 48,46.21875 39.25,6 Z"
       inkscape:connector-curvature="0"
       id="path4141"
       style="display:inline;opacity:0.212121;fill:url(#linearGradient4478);fill-opacity:1;stroke:none" />
  </g>
  <g
     id="g1670"
     transform="matrix(3.125,0,0,3.125,-285.11782,-288.04596)"
     style="display:inline">
    <g
       id="g31706"
       transform="translate(-0.05613942,-0.46196292)">
      <path
         d="m 114.21992,101.43605 c -1.344,-0.62882 -2.78108,-1.08583 -4.28351,-1.34605 -0.18451,0.3336 -0.40008,0.78229 -0.5487,1.13923 -1.59712,-0.24019 -3.17954,-0.24019 -4.74729,0 -0.1486,-0.35694 -0.36906,-0.80563 -0.55523,-1.13923 -1.50404,0.26022 -2.94276,0.71891 -4.286772,1.34939 -2.710873,4.09648 -3.445746,8.09122 -3.078309,12.02923 1.797994,1.34269 3.540461,2.15834 5.253531,2.69208 0.42296,-0.58212 0.8002,-1.20093 1.12516,-1.85309 -0.61892,-0.23518 -1.21171,-0.52541 -1.77183,-0.86233 0.1486,-0.11009 0.29395,-0.22519 0.43437,-0.34362 3.41635,1.59791 7.12829,1.59791 10.50382,0 0.14208,0.11843 0.2874,0.23353 0.43438,0.34362 -0.56177,0.33858 -1.15619,0.6288 -1.77512,0.864 0.32498,0.65049 0.70058,1.27098 1.12517,1.85307 1.71472,-0.53374 3.4588,-1.34935 5.2568,-2.69373 0.43113,-4.56516 -0.7365,-8.52321 -3.08647,-12.03257 z m -10.65569,9.61073 c -1.02554,0 -1.86658,-0.95742 -1.86658,-2.12332 0,-1.16589 0.82308,-2.12495 1.86658,-2.12495 1.04354,0 1.88456,0.95739 1.8666,2.12495 0.002,1.1659 -0.82306,2.12332 -1.8666,2.12332 z m 6.89804,0 c -1.02556,0 -1.86659,-0.95742 -1.86659,-2.12332 0,-1.16589 0.82305,-2.12495 1.86659,-2.12495 1.04351,0 1.88454,0.95739 1.86658,2.12495 0,1.1659 -0.82307,2.12332 -1.86658,2.12332 z"
         fill="#5865f2"
         fill-rule="nonzero"
         id="path25856"
         style="display:inline;opacity:0.3;fill:#000000;fill-opacity:1;stroke:none;stroke-width:0.32;stroke-dasharray:none;stroke-opacity:1" />
      <path
         id="path27319"
         style="display:inline;opacity:0.15;stroke-width:0.32"
         d="m 104.03516,99.800781 c -1.53021,0.264749 -2.99393,0.731599 -4.361332,1.373049 a 0.29398937,0.29398937 0 0 0 -0.121094,0.10351 c -2.745921,4.14945 -3.497512,8.22635 -3.125,12.21875 a 0.29398937,0.29398937 0 0 0 0.117188,0.20899 c 1.825271,1.36306 3.601648,2.19415 5.341798,2.73633 a 0.29398937,0.29398937 0 0 0 0.32617,-0.10938 c 0.4324,-0.5951 0.81807,-1.22761 1.15039,-1.89453 a 0.29398937,0.29398937 0 0 0 -0.16016,-0.40625 c -0.12215,-0.0464 -0.22949,-0.11923 -0.3496,-0.16992 2.7175,0.96076 5.57675,0.96864 8.27343,0.0215 -0.10563,0.044 -0.19946,0.10967 -0.30664,0.15039 a 0.29398937,0.29398937 0 0 0 -0.16015,0.40625 c 0.332,0.66456 0.71576,1.30064 1.15039,1.89649 a 0.29398937,0.29398937 0 0 0 0.32617,0.10742 c 1.74178,-0.54217 3.52029,-1.37341 5.3457,-2.73828 a 0.29398937,0.29398937 0 0 0 0.11719,-0.20899 c 0.43729,-4.63043 -0.75297,-8.66771 -3.13477,-12.22461 a 0.29398937,0.29398937 0 0 0 -0.11914,-0.10156 c -1.36745,-0.63979 -2.83105,-1.10443 -4.35937,-1.369139 a 0.29398937,0.29398937 0 0 0 -0.3086,0.146485 c -0.15983,0.288994 -0.32367,0.646754 -0.46679,0.972654 -1.47601,-0.20193 -2.94192,-0.20194 -4.39453,0 -0.14526,-0.32736 -0.31411,-0.68505 -0.47461,-0.972654 a 0.29398937,0.29398937 0 0 0 -0.30664,-0.146485 z m -0.47071,7.292969 c 0.86374,0 1.58997,0.8023 1.57422,1.82617 a 0.29398937,0.29398937 0 0 0 -0.002,0.004 c 0.002,1.02684 -0.70848,1.82812 -1.57227,1.82812 -0.84263,0 -1.57226,-0.80369 -1.57226,-1.82812 0,-1.02744 0.70889,-1.83008 1.57226,-1.83008 z m 6.89844,0 c 0.8637,0 1.58803,0.80198 1.57227,1.82617 a 0.29398937,0.29398937 0 0 0 -0.002,0.004 c 0,1.02778 -0.70655,1.82812 -1.57031,1.82812 -0.84266,0 -1.57227,-0.80369 -1.57227,-1.82812 0,-1.02745 0.70885,-1.83008 1.57227,-1.83008 z" />
      <path
         id="path28780"
         style="display:inline;opacity:0.1;stroke-width:0.32"
         d="m 103.99219,99.554688 c -1.55238,0.268583 -3.03663,0.743792 -4.423831,1.394532 -0.08909,0.0417 -0.167988,0.10766 -0.222656,0.18945 a 0.24897551,0.24897551 0 0 0 0,0.002 c -2.775798,4.1946 -3.542861,8.34006 -3.166015,12.37891 0.01386,0.15129 0.09494,0.29404 0.216796,0.38477 1.848445,1.38036 3.652826,2.22603 5.416016,2.77539 0.21514,0.0669 0.46925,-0.0189 0.60156,-0.20117 0.44033,-0.60602 0.83329,-1.25019 1.17188,-1.92969 0.0367,-0.0739 0.008,-0.15678 0.006,-0.23828 2.2624,0.63881 4.59141,0.64257 6.83984,0.008 -0.001,0.0795 -0.03,0.16036 0.006,0.23242 0.33789,0.67636 0.72865,1.32401 1.17188,1.93164 0.1328,0.18256 0.38626,0.26713 0.60156,0.19922 1.76481,-0.54934 3.57122,-1.39506 5.41992,-2.77734 0.12185,-0.0907 0.20294,-0.23348 0.2168,-0.38477 0.44254,-4.68601 -0.76686,-8.78931 -3.17578,-12.38672 -0.0547,-0.0808 -0.1323,-0.14822 -0.22071,-0.18945 v 0.002 c -1.3873,-0.64908 -2.87162,-1.122114 -4.42187,-1.390622 v 0.002 c -0.2209,-0.03945 -0.45927,0.07344 -0.56836,0.269531 a 0.24897551,0.24897551 0 0 0 -0.002,0 c -0.14019,0.253491 -0.27401,0.551201 -0.40039,0.833991 -1.37268,-0.17231 -2.73819,-0.17234 -4.09179,0 -0.1293,-0.2847 -0.26779,-0.58238 -0.40821,-0.833991 -0.10867,-0.194787 -0.34659,-0.309348 -0.5664,-0.271484 z m -0.42774,7.787112 c 0.70958,0 1.34008,0.67002 1.32617,1.57422 a 0.24897551,0.24897551 0 0 0 -0.002,0.008 c 0.002,0.91175 -0.61438,1.58008 -1.32422,1.58008 -0.68433,0 -1.32422,-0.67386 -1.32422,-1.58008 0,-0.91293 0.61515,-1.58203 1.32422,-1.58203 z m 6.89844,0 c 0.70959,0 1.33814,0.66936 1.32422,1.57422 a 0.24897551,0.24897551 0 0 0 -0.002,0.008 c 0,0.91368 -0.61229,1.58008 -1.32227,1.58008 -0.68437,0 -1.32422,-0.67386 -1.32422,-1.58008 0,-0.91295 0.61508,-1.58203 1.32422,-1.58203 z" />
      <path
         id="path30241"
         style="display:inline;opacity:0.05;stroke-width:0.32"
         d="m 103.94922,99.302734 c -1.57537,0.27256 -3.08284,0.753856 -4.490236,1.414066 -0.130426,0.061 -0.24359,0.15574 -0.326172,0.27929 a 0.25615035,0.25615035 0 0 0 -0.002,0.008 c -2.804663,4.23999 -3.588258,8.45326 -3.207031,12.53906 0.0208,0.22708 0.138891,0.43132 0.320313,0.56641 1.872288,1.39816 3.705107,2.25764 5.492186,2.81445 0.32904,0.10232 0.68332,-0.0174 0.88476,-0.29492 0.44847,-0.61723 0.84831,-1.27433 1.19336,-1.9668 0.0114,-0.0229 -0.003,-0.0216 0.004,-0.043 2.11486,0.54516 4.2829,0.54878 6.38672,0.008 0.007,0.0198 -0.007,0.0179 0.004,0.0391 0.34396,0.6885 0.74129,1.34706 1.19336,1.96679 0.20187,0.2775 0.5563,0.39658 0.88477,0.29297 1.78825,-0.55664 3.6239,-1.4168 5.49609,-2.8164 0.18147,-0.13508 0.29951,-0.33932 0.32032,-0.56641 0.44796,-4.74343 -0.78179,-8.91344 -3.21875,-12.55274 a 0.25615035,0.25615035 0 0 0 0,-0.002 c -0.0802,-0.11838 -0.19206,-0.21318 -0.32422,-0.27539 -7.6e-4,-3.6e-4 -10e-4,-0.002 -0.002,-0.002 a 0.25615035,0.25615035 0 0 0 -0.002,0 c -1.40643,-0.65762 -2.91283,-1.136011 -4.48437,-1.408206 a 0.25615035,0.25615035 0 0 0 -0.0156,0.0039 c -0.3294,-0.05105 -0.65748,0.101834 -0.82031,0.394531 a 0.25615035,0.25615035 0 0 0 -0.002,0.002 c -0.12001,0.216991 -0.22647,0.457195 -0.33204,0.691405 -1.26727,-0.14483 -2.52928,-0.14485 -3.78125,0 -0.10866,-0.23591 -0.21816,-0.478824 -0.33789,-0.693358 -0.16534,-0.296375 -0.49853,-0.456222 -0.83398,-0.398438 z m -0.38477,8.294926 c 0.54738,0 1.08041,0.5296 1.07032,1.31054 -2e-5,0.001 2e-5,0.003 0,0.004 a 0.25615035,0.25615035 0 0 0 -0.002,0.0117 c 0.002,0.79604 -0.51928,1.32422 -1.06836,1.32422 -0.51619,0 -1.06836,-0.53857 -1.06836,-1.32422 0,-0.79788 0.52042,-1.32617 1.06836,-1.32617 z m 6.89844,0 c 0.54755,0 1.07848,0.52849 1.06836,1.31054 -2e-5,0.001 2e-5,0.003 0,0.004 a 0.25615035,0.25615035 0 0 0 -0.002,0.0117 c 0,0.79925 -0.5167,1.32422 -1.06641,1.32422 -0.51624,0 -1.06836,-0.53856 -1.06836,-1.32422 0,-0.79791 0.52032,-1.32617 1.06836,-1.32617 z" />
      <path
         d="m 114.21992,101.43605 c -1.344,-0.62882 -2.78108,-1.08583 -4.28351,-1.34605 -0.18451,0.3336 -0.40008,0.78229 -0.5487,1.13923 -1.59712,-0.24019 -3.17954,-0.24019 -4.74729,0 -0.1486,-0.35694 -0.36906,-0.80563 -0.55523,-1.13923 -1.50404,0.26022 -2.94276,0.71891 -4.286772,1.34939 -2.710873,4.09648 -3.445746,8.09122 -3.078309,12.02923 1.797994,1.34269 3.540461,2.15834 5.253531,2.69208 0.42296,-0.58212 0.8002,-1.20093 1.12516,-1.85309 -0.61892,-0.23518 -1.21171,-0.52541 -1.77183,-0.86233 0.1486,-0.11009 0.29395,-0.22519 0.43437,-0.34362 3.41635,1.59791 7.12829,1.59791 10.50382,0 0.14208,0.11843 0.2874,0.23353 0.43438,0.34362 -0.56177,0.33858 -1.15619,0.6288 -1.77512,0.864 0.32498,0.65049 0.70058,1.27098 1.12517,1.85307 1.71472,-0.53374 3.4588,-1.34935 5.2568,-2.69373 0.43113,-4.56516 -0.7365,-8.52321 -3.08647,-12.03257 z m -10.65569,9.61073 c -1.02554,0 -1.86658,-0.95742 -1.86658,-2.12332 0,-1.16589 0.82308,-2.12495 1.86658,-2.12495 1.04354,0 1.88456,0.95739 1.8666,2.12495 0.002,1.1659 -0.82306,2.12332 -1.8666,2.12332 z m 6.89804,0 c -1.02556,0 -1.86659,-0.95742 -1.86659,-2.12332 0,-1.16589 0.82305,-2.12495 1.86659,-2.12495 1.04351,0 1.88454,0.95739 1.86658,2.12495 0,1.1659 -0.82307,2.12332 -1.86658,2.12332 z"
         fill="#5865f2"
         fill-rule="nonzero"
         id="path63568"
         style="display:inline;opacity:0.81165919;fill:#000000;fill-opacity:1;stroke:none;stroke-width:0.32;stroke-dasharray:none;stroke-opacity:1;filter:url(#filter63570)" />
    </g>
    <path
       d="m 114.16453,100.31827 c -1.344,-0.628824 -2.78108,-1.085829 -4.28351,-1.346053 -0.18451,0.333597 -0.40008,0.782294 -0.5487,1.139233 -1.59712,-0.24019 -3.17954,-0.24019 -4.74729,0 -0.1486,-0.356939 -0.36906,-0.805636 -0.55523,-1.139233 -1.50404,0.260224 -2.94276,0.718914 -4.286775,1.349393 -2.710873,4.09648 -3.445746,8.09122 -3.078309,12.02923 1.797994,1.34269 3.540464,2.15834 5.253534,2.69208 0.42296,-0.58212 0.8002,-1.20093 1.12516,-1.85309 -0.61892,-0.23518 -1.21171,-0.52541 -1.77183,-0.86233 0.1486,-0.11009 0.29395,-0.22519 0.43437,-0.34362 3.41635,1.59791 7.12829,1.59791 10.50382,0 0.14208,0.11843 0.2874,0.23353 0.43438,0.34362 -0.56177,0.33858 -1.15619,0.6288 -1.77512,0.864 0.32498,0.65049 0.70058,1.27098 1.12517,1.85307 1.71472,-0.53374 3.4588,-1.34935 5.2568,-2.69373 0.43113,-4.56516 -0.7365,-8.52321 -3.08647,-12.03257 z m -10.65569,9.61073 c -1.02554,0 -1.86658,-0.95742 -1.86658,-2.12332 0,-1.16589 0.82308,-2.12495 1.86658,-2.12495 1.04354,0 1.88456,0.95739 1.8666,2.12495 0.002,1.1659 -0.82306,2.12332 -1.8666,2.12332 z m 6.89804,0 c -1.02556,0 -1.86659,-0.95742 -1.86659,-2.12332 0,-1.16589 0.82305,-2.12495 1.86659,-2.12495 1.04351,0 1.88454,0.95739 1.86658,2.12495 0,1.1659 -0.82307,2.12332 -1.86658,2.12332 z"
       fill="#5865f2"
       fill-rule="nonzero"
       id="path1662"
       style="display:inline;fill:url(#linearGradient31767);fill-opacity:1;stroke:url(#linearGradient31765);stroke-width:0.64;stroke-dasharray:none;stroke-opacity:1" />
    <path
       d="m 114.16453,100.31827 c -1.344,-0.628824 -2.78108,-1.085829 -4.28351,-1.346053 -0.18451,0.333597 -0.40008,0.782294 -0.5487,1.139233 -1.59712,-0.24019 -3.17954,-0.24019 -4.74729,0 -0.1486,-0.356939 -0.36906,-0.805636 -0.55523,-1.139233 -1.50404,0.260224 -2.94276,0.718914 -4.286775,1.349393 -2.710873,4.09648 -3.445746,8.09122 -3.078309,12.02923 1.797994,1.34269 3.540464,2.15834 5.253534,2.69208 0.42296,-0.58212 0.8002,-1.20093 1.12516,-1.85309 -0.61892,-0.23518 -1.21171,-0.52541 -1.77183,-0.86233 0.1486,-0.11009 0.29395,-0.22519 0.43437,-0.34362 3.41635,1.59791 7.12829,1.59791 10.50382,0 0.14208,0.11843 0.2874,0.23353 0.43438,0.34362 -0.56177,0.33858 -1.15619,0.6288 -1.77512,0.864 0.32498,0.65049 0.70058,1.27098 1.12517,1.85307 1.71472,-0.53374 3.4588,-1.34935 5.2568,-2.69373 0.43113,-4.56516 -0.7365,-8.52321 -3.08647,-12.03257 z m -10.65569,9.61073 c -1.02554,0 -1.86658,-0.95742 -1.86658,-2.12332 0,-1.16589 0.82308,-2.12495 1.86658,-2.12495 1.04354,0 1.88456,0.95739 1.8666,2.12495 0.002,1.1659 -0.82306,2.12332 -1.8666,2.12332 z m 6.89804,0 c -1.02556,0 -1.86659,-0.95742 -1.86659,-2.12332 0,-1.16589 0.82305,-2.12495 1.86659,-2.12495 1.04351,0 1.88454,0.95739 1.86658,2.12495 0,1.1659 -0.82307,2.12332 -1.86658,2.12332 z"
       fill="#5865f2"
       fill-rule="nonzero"
       id="path31740"
       style="display:inline;fill:url(#radialGradient31743);fill-opacity:1;stroke:none;stroke-width:0.32;stroke-dasharray:none;stroke-opacity:1" />
    <path
       id="path1664"
       style="display:none;opacity:0.4;fill:#000000;fill-opacity:1;stroke-width:0.0811043"
       d="m 104.03212,98.612052 c -1.50404,0.260224 -2.94224,0.718897 -4.286249,1.349373 -2.328228,3.518265 -3.198362,6.961455 -3.165,10.358135 0.02992,-3.28024 0.918778,-6.60504 3.165,-9.99938 1.344009,-0.630485 2.782209,-1.089154 4.286249,-1.349378 0.18617,0.333597 0.40702,0.782433 0.55562,1.139378 1.56775,-0.240195 3.14976,-0.240195 4.74688,0 0.14862,-0.356945 0.36424,-0.805781 0.54875,-1.139378 1.50243,0.260224 2.93975,0.717423 4.28375,1.346258 1.99691,2.98212 3.13925,6.2883 3.17312,10.01562 0.0385,-3.87436 -1.11237,-7.29692 -3.17312,-10.374375 -1.344,-0.628826 -2.78132,-1.086029 -4.28375,-1.346253 -0.18451,0.333597 -0.40013,0.782437 -0.54875,1.139373 -1.59712,-0.240188 -3.17913,-0.240188 -4.74688,0 -0.1486,-0.356936 -0.36945,-0.805776 -0.55562,-1.139373 z m 8.23812,8.989378 c -0.0697,1.09397 -0.86413,1.9675 -1.86062,1.9675 -0.9732,0 -1.7795,-0.86256 -1.85938,-1.94687 -0.004,0.0602 -0.008,0.12106 -0.008,0.1825 0,1.1659 0.84132,2.12312 1.86688,2.12312 1.04351,0 1.86625,-0.95722 1.86625,-2.12312 0.001,-0.0685 -9e-4,-0.13621 -0.006,-0.20313 z m -6.8975,0.006 c -0.0704,1.09135 -0.86643,1.96187 -1.86125,1.96187 -0.97317,0 -1.7795,-0.86256 -1.85937,-1.94687 -0.004,0.0602 -0.007,0.12106 -0.007,0.1825 0,1.1659 0.84133,2.12312 1.86687,2.12312 1.04354,0 1.86825,-0.95722 1.86625,-2.12312 10e-4,-0.0666 -5.5e-4,-0.13241 -0.005,-0.1975 z m 7.01,4.51375 c -0.48302,0.27325 -1.14524,0.57355 -1.66817,0.77227 0.0501,0.10022 0.10191,0.19936 0.15438,0.29813 0.56346,-0.22395 1.26266,-0.55446 1.77754,-0.86478 -0.0889,-0.0666 -0.17643,-0.13575 -0.26375,-0.20562 z m -10.84375,6.2e-4 c -0.087,0.0697 -0.17529,0.13854 -0.265,0.205 0.5134,0.30882 1.20608,0.63898 1.76934,0.86291 0.0524,-0.0986 0.10383,-0.19794 0.15375,-0.29812 -0.52234,-0.19848 -1.1769,-0.49791 -1.65809,-0.76979 z"
       sodipodi:nodetypes="ccccccccccccccccscssccccscssccccccccccccc" />
    <path
       id="path1666"
       style="display:none;opacity:0.306818;fill:url(#linearGradient47735);fill-opacity:1;stroke-width:0.0811043"
       d="m 104.02958,98.972207 c -1.50404,0.260224 -2.94224,0.718897 -4.286253,1.349373 -2.71087,4.09648 -3.446186,8.09137 -3.07875,12.02938 1.797993,1.34269 3.540683,2.15813 5.253753,2.69187 0.42296,-0.58212 0.80004,-1.20096 1.125,-1.85312 -0.61892,-0.23518 -1.21176,-0.52558 -1.77188,-0.8625 0.1486,-0.11009 0.29396,-0.2247 0.43438,-0.34313 3.41634,1.59791 7.12822,1.59791 10.50375,0 0.14208,0.11843 0.28739,0.23304 0.43437,0.34313 -0.56177,0.33858 -1.15607,0.62917 -1.775,0.86437 0.32498,0.65049 0.70041,1.27104 1.125,1.85313 1.71472,-0.53374 3.45888,-1.34937 5.25688,-2.69375 0.43113,-4.56516 -0.73628,-8.52315 -3.08625,-12.0325 -1.344,-0.628826 -2.78132,-1.086029 -4.28375,-1.346253 -0.18451,0.333597 -0.40013,0.782437 -0.54875,1.139373 -1.59712,-0.240188 -3.17913,-0.240188 -4.74688,0 -0.1486,-0.356936 -0.36945,-0.805776 -0.55562,-1.139373 z m -0.13313,0.28375 c 0.16205,0.302806 0.34278,0.655172 0.465,0.948753 a 0.24394947,0.24394947 0 0 0 0.26188,0.14687 c 1.54348,-0.23643 3.09817,-0.2348 4.67187,0.002 a 0.24394947,0.24394947 0 0 0 0.26125,-0.14813 c 0.12279,-0.29491 0.29842,-0.647699 0.4575,-0.949373 1.3947,0.257069 2.73177,0.67836 3.98625,1.259373 2.27663,3.42531 3.40956,7.26502 3.01563,11.70125 -1.68296,1.24292 -3.31231,2.0077 -4.92,2.52563 -0.32506,-0.46004 -0.61532,-0.94591 -0.87875,-1.44938 0.5351,-0.21933 1.06099,-0.45939 1.5525,-0.75562 a 0.24394947,0.24394947 0 0 0 0.0212,-0.40438 c -0.14387,-0.10775 -0.28712,-0.2208 -0.42563,-0.33625 a 0.24394947,0.24394947 0 0 0 -0.26,-0.0331 c -3.31301,1.56832 -6.94195,1.56917 -10.29687,0 a 0.24394947,0.24394947 0 0 0 -0.26125,0.0356 c -0.13695,0.1155 -0.27601,0.22709 -0.42,0.33375 a 0.24394947,0.24394947 0 0 0 0.0194,0.40438 c 0.4897,0.29456 1.0143,0.53454 1.54875,0.75375 -0.26328,0.5035 -0.55455,0.98941 -0.87875,1.44937 -1.60462,-0.51744 -3.230521,-1.27988 -4.911873,-2.51937 -0.338349,-3.83776 0.380185,-7.70801 3.00375,-11.70125 1.254163,-0.582236 2.592523,-1.006665 3.988123,-1.263753 z m -0.38687,6.181253 c -1.19297,0 -2.11125,1.08859 -2.11125,2.36937 0,1.28329 0.93393,2.3675 2.11125,2.3675 1.19145,0 2.10965,-1.08448 2.10937,-2.36375 0.0198,-1.28652 -0.91663,-2.37312 -2.10937,-2.37312 z m 6.89687,0 c -1.193,0 -2.10937,1.08887 -2.10937,2.36937 -10e-6,1.28302 0.93204,2.3675 2.10937,2.3675 1.19143,0 2.10925,-1.08471 2.11125,-2.36375 0.0198,-1.28679 -0.91854,-2.37312 -2.11125,-2.37312 z m -6.8975,0.24375 c 1.04354,0 1.88421,0.95744 1.86625,2.125 0.002,1.1659 -0.82271,2.12312 -1.86625,2.12312 -1.02554,0 -1.86687,-0.95722 -1.86687,-2.12312 0,-1.16589 0.82337,-2.125 1.86687,-2.125 z m 6.89813,0 c 1.04351,0 1.88421,0.95744 1.86625,2.125 0,1.1659 -0.82274,2.12312 -1.86625,2.12312 -1.02556,0 -1.86688,-0.95722 -1.86688,-2.12312 0,-1.16589 0.82334,-2.125 1.86688,-2.125 z" />
    <path
       id="path1668"
       style="display:none;opacity:0.4;fill:url(#linearGradient47748);fill-opacity:1;stroke-width:0.0811043"
       d="m 103.50895,105.68096 c -1.03338,0 -1.8505,0.94071 -1.86625,2.09125 0.0993,-1.06007 0.8812,-1.89625 1.85563,-1.89625 1.04354,0 1.88483,0.95744 1.86687,2.125 3e-5,0.0134 -4.3e-4,0.0266 -6.2e-4,0.04 0.007,-0.0774 0.0108,-0.15546 0.0106,-0.235 0.018,-1.16756 -0.82271,-2.125 -1.86625,-2.125 z m 6.89813,0 c -1.03323,0 -1.85021,0.94037 -1.86625,2.09062 0.0995,-1.05977 0.88135,-1.89562 1.85562,-1.89562 1.04351,0 1.88484,0.95744 1.86688,2.125 0,0.0111 -4.8e-4,0.0221 -6.3e-4,0.0331 0.007,-0.0751 0.0106,-0.15095 0.0106,-0.22812 0.018,-1.16756 -0.82274,-2.125 -1.86625,-2.125 z m -13.805628,3.86062 c -0.06258,1.00552 -0.03995,2.00687 0.05313,3.00438 1.797993,1.34269 3.540048,2.15813 5.253118,2.69187 0.42296,-0.58212 0.80004,-1.20096 1.125,-1.85312 -0.025,-0.009 -0.0495,-0.0197 -0.0744,-0.0294 -0.30538,0.59137 -0.65308,1.15499 -1.04,1.6875 -1.71307,-0.53374 -3.455755,-1.34918 -5.253748,-2.69187 -0.08705,-0.933 -0.111439,-1.86941 -0.06312,-2.80938 z m 20.704378,2.07438 c -0.014,0.24338 -0.0317,0.48809 -0.055,0.735 -1.798,1.34438 -3.54216,2.16001 -5.25688,2.69375 -0.38986,-0.53448 -0.73776,-1.10165 -1.04375,-1.69438 -0.0306,0.012 -0.0611,0.0246 -0.0919,0.0362 0.32498,0.65049 0.70103,1.27104 1.12562,1.85313 1.71472,-0.53374 3.45888,-1.34937 5.25688,-2.69375 0.0296,-0.31296 0.0503,-0.6227 0.065,-0.93 z m -15.6,0.36812 -0.14125,0.1113 c 3.41634,1.59791 7.39822,1.59541 10.77375,-0.003 l -0.12875,-0.10873 c -3.37553,1.59791 -7.08741,1.59791 -10.50375,0 z"
       sodipodi:nodetypes="ccscccccccsccccccccccccccccccccccccccccc" />
    <path
       d="M 55.154329,65.597826 C 77.339804,57.819651 81.31728,63 81.31728,63 c 0,0 -9.693358,-2.617086 -26.074563,5.0727 l -0.08839,-2.474874 z"
       inkscape:connector-curvature="0"
       transform="matrix(0.15415043,0.09238038,-0.06354404,0.186033,105.84579,82.04599)"
       id="path8013"
       style="display:inline;opacity:0.4;fill:url(#radialGradient31714);fill-opacity:1;fill-rule:evenodd;stroke:none;filter:url(#filter8019)" />
    <path
       d="m 43.726529,60.733991 c 0.549525,7.810974 1.816639,15.413064 4.139902,22.707719 0,0 4.958778,4.097337 19.159939,5.21612"
       inkscape:connector-curvature="0"
       transform="matrix(0.23501011,0.06840931,-0.06840931,0.23501011,91.86269,88.783241)"
       id="path8023"
       style="display:inline;opacity:0.20454545;fill:none;stroke:url(#radialGradient3798);stroke-width:2.61476;stroke-linecap:butt;stroke-linejoin:miter;stroke-miterlimit:4;stroke-dasharray:none;stroke-opacity:1;filter:url(#filter8041)"
       sodipodi:nodetypes="ccc" />
    <path
       d="m 43.726529,60.733991 c 0.549525,7.810974 1.816639,15.413064 4.139902,22.707719 0,0 4.958778,4.097337 19.159939,5.21612"
       inkscape:connector-curvature="0"
       transform="matrix(-0.23501011,0.06840931,0.06840931,0.23501011,122.12667,88.698388)"
       id="path15365"
       style="display:inline;opacity:0.28787879;fill:none;stroke:url(#radialGradient15367);stroke-width:2.61476;stroke-linecap:butt;stroke-linejoin:miter;stroke-miterlimit:4;stroke-dasharray:none;stroke-opacity:1;filter:url(#filter32511)"
       sodipodi:nodetypes="ccc" />
    <path
       d="m 76.242364,79.244444 c -4.835246,5.131686 -12.526556,1.511762 -12.526556,1.511762 0,0 13.800914,4.520495 14.110507,-11.185355 0,0 0.428158,7.538125 -1.583951,9.673593 z"
       inkscape:connector-curvature="0"
       transform="matrix(0.24476435,0,0,0.24476435,93.546492,90.181551)"
       id="path8045"
       style="display:inline;opacity:0.4;fill:url(#radialGradient31738);fill-opacity:1;fill-rule:evenodd;stroke:none;filter:url(#filter8047)"
       sodipodi:nodetypes="sccs" />
    <path
       d="M 55.154329,65.597826 C 77.339804,57.819651 81.31728,63 81.31728,63 c 0,0 -9.693358,-2.617086 -26.074563,5.0727 l -0.08839,-2.474874 z"
       inkscape:connector-curvature="0"
       transform="matrix(-0.15415043,0.09238038,0.06354404,0.186033,108.16799,81.975279)"
       id="path32499"
       style="display:inline;opacity:0.4;fill:url(#radialGradient32501);fill-opacity:1;fill-rule:evenodd;stroke:none;filter:url(#filter8019)" />
    <path
       d="m 39.976084,60.537143 c 0.549525,7.810974 1.420674,17.72107 7.059885,23.569741 0,0 7.457253,9.131948 21.658414,10.250731"
       inkscape:connector-curvature="0"
       transform="matrix(-0.16376502,-0.18190823,-0.18190823,0.16376502,130.29351,107.55458)"
       id="path34698"
       style="display:inline;opacity:0.23484848;fill:none;stroke:url(#radialGradient34700);stroke-width:2.61476;stroke-linecap:butt;stroke-linejoin:miter;stroke-miterlimit:4;stroke-dasharray:none;stroke-opacity:1;filter:url(#filter32511)"
       sodipodi:nodetypes="ccc" />
    <path
       d="m 76.242364,79.244444 c -4.835246,5.131686 -12.526556,1.511762 -12.526556,1.511762 0,0 13.800914,4.520495 14.110507,-11.185355 0,0 0.428158,7.538125 -1.583951,9.673593 z"
       inkscape:connector-curvature="0"
       transform="matrix(-0.24476435,0,0,0.24476435,120.32313,90.195693)"
       id="path35432"
       style="display:inline;opacity:0.4;fill:url(#radialGradient35434);fill-opacity:1;fill-rule:evenodd;stroke:none;filter:url(#filter8047)"
       sodipodi:nodetypes="sccs" />
  </g>
</svg>
