<?xml version="1.0" encoding="UTF-8" standalone="no"?>
<!-- Created with Inkscape (http://www.inkscape.org/) -->

<svg
   version="1.0"
   width="96"
   height="96"
   id="svg2408"
   sodipodi:docname="image-x-psd.svg"
   inkscape:version="1.2.2 (b0a8486541, 2022-12-01)"
   xmlns:inkscape="http://www.inkscape.org/namespaces/inkscape"
   xmlns:sodipodi="http://sodipodi.sourceforge.net/DTD/sodipodi-0.dtd"
   xmlns:xlink="http://www.w3.org/1999/xlink"
   xmlns="http://www.w3.org/2000/svg"
   xmlns:svg="http://www.w3.org/2000/svg"
   xmlns:rdf="http://www.w3.org/1999/02/22-rdf-syntax-ns#"
   xmlns:cc="http://creativecommons.org/ns#"
   xmlns:dc="http://purl.org/dc/elements/1.1/">
  <sodipodi:namedview
     id="namedview15956"
     pagecolor="#ffffff"
     bordercolor="#000000"
     borderopacity="0.25"
     inkscape:showpageshadow="2"
     inkscape:pageopacity="0.0"
     inkscape:pagecheckerboard="0"
     inkscape:deskcolor="#d1d1d1"
     showgrid="false"
     inkscape:zoom="3.7822847"
     inkscape:cx="-9.2536661"
     inkscape:cy="104.96301"
     inkscape:current-layer="svg2408" />
  <defs
     id="defs2410">
    <linearGradient
       id="linearGradient3729">
      <stop
         id="stop3731"
         style="stop-color:#1c59ad;stop-opacity:1"
         offset="0" />
      <stop
         id="stop3733"
         style="stop-color:#377ad6;stop-opacity:1"
         offset="1" />
    </linearGradient>
    <linearGradient
       x1="45.447727"
       y1="92.539597"
       x2="45.447727"
       y2="7.0165396"
       id="ButtonShadow"
       gradientUnits="userSpaceOnUse"
       gradientTransform="scale(1.0058652,0.994169)">
      <stop
         id="stop3750"
         style="stop-color:#000000;stop-opacity:1"
         offset="0" />
      <stop
         id="stop3752"
         style="stop-color:#000000;stop-opacity:0.58823532"
         offset="1" />
    </linearGradient>
    <linearGradient
       id="linearGradient3737">
      <stop
         id="stop3739"
         style="stop-color:#ffffff;stop-opacity:1"
         offset="0" />
      <stop
         id="stop3741"
         style="stop-color:#ffffff;stop-opacity:0"
         offset="1" />
    </linearGradient>
    <linearGradient
       id="linearGradient3700">
      <stop
         id="stop3702"
         style="stop-color:#e6e6e6;stop-opacity:1"
         offset="0" />
      <stop
         id="stop3704"
         style="stop-color:#f5f5f5;stop-opacity:1"
         offset="1" />
    </linearGradient>
    <linearGradient
       x1="48"
       y1="90"
       x2="48"
       y2="5.9877172"
       id="linearGradient3706"
       xlink:href="#linearGradient3700"
       gradientUnits="userSpaceOnUse" />
    <filter
       color-interpolation-filters="sRGB"
       id="filter3174"
       x="-0.047720931"
       y="-0.048282354"
       width="1.0954419"
       height="1.0965647">
      <feGaussianBlur
         stdDeviation="1.71"
         id="feGaussianBlur3176" />
    </filter>
    <linearGradient
       x1="36.357143"
       y1="6"
       x2="36.357143"
       y2="63.893143"
       id="linearGradient3188"
       xlink:href="#linearGradient3737"
       gradientUnits="userSpaceOnUse" />
    <linearGradient
       x1="45.447727"
       y1="92.539597"
       x2="45.447727"
       y2="7.0165396"
       id="ButtonShadow-0"
       gradientUnits="userSpaceOnUse"
       gradientTransform="matrix(1.0058652,0,0,0.994169,100,0)">
      <stop
         id="stop3750-8"
         style="stop-color:#000000;stop-opacity:1"
         offset="0" />
      <stop
         id="stop3752-5"
         style="stop-color:#000000;stop-opacity:0.58823532"
         offset="1" />
    </linearGradient>
    <linearGradient
       x1="32.251034"
       y1="6.1317081"
       x2="32.251034"
       y2="90.238609"
       id="linearGradient3780"
       xlink:href="#ButtonShadow-0"
       gradientUnits="userSpaceOnUse"
       gradientTransform="matrix(1.0238095,0,0,1.0119048,-1.1428571,-98.071429)" />
    <linearGradient
       x1="32.251034"
       y1="6.1317081"
       x2="32.251034"
       y2="90.238609"
       id="linearGradient3772"
       xlink:href="#ButtonShadow-0"
       gradientUnits="userSpaceOnUse"
       gradientTransform="matrix(1.0238095,0,0,1.0119048,-1.1428571,-98.071429)" />
    <linearGradient
       x1="32.251034"
       y1="6.1317081"
       x2="32.251034"
       y2="90.238609"
       id="linearGradient3725"
       xlink:href="#ButtonShadow-0"
       gradientUnits="userSpaceOnUse"
       gradientTransform="matrix(1.0238095,0,0,1.0119048,-1.1428571,-98.071429)" />
    <linearGradient
       x1="32.251034"
       y1="6.1317081"
       x2="32.251034"
       y2="90.238609"
       id="linearGradient3721"
       xlink:href="#ButtonShadow-0"
       gradientUnits="userSpaceOnUse"
       gradientTransform="translate(0,-97)" />
    <linearGradient
       x1="32.251034"
       y1="6.1317081"
       x2="32.251034"
       y2="90.238609"
       id="linearGradient3760"
       xlink:href="#ButtonShadow-0"
       gradientUnits="userSpaceOnUse"
       gradientTransform="matrix(1.0238095,0,0,1.0119048,-1.1428571,-98.071429)" />
    <linearGradient
       id="linearGradient3737-0">
      <stop
         id="stop3739-6"
         style="stop-color:#ffffff;stop-opacity:1"
         offset="0" />
      <stop
         id="stop3741-0"
         style="stop-color:#ffffff;stop-opacity:0"
         offset="1" />
    </linearGradient>
    <radialGradient
       cx="48"
       cy="90.171875"
       r="42"
       fx="48"
       fy="90.171875"
       id="radialGradient2903"
       xlink:href="#linearGradient3737-0"
       gradientUnits="userSpaceOnUse"
       gradientTransform="matrix(1.1573129,0,0,0.99590774,-7.551021,0.1971319)" />
    <clipPath
       id="clipPath3782">
      <path
         d="m -98,6 c -3.324,0 -6,2.676 -6,6 l 0,72 c 0,3.324 2.676,6 6,6 l 72,0 c 3.324,0 6,-2.676 6,-6 l 0,-72 c 0,-3.324 -2.676,-6 -6,-6 l -72,0 z m 59.0625,12 C -38.336494,17.9909 -38,18.03125 -38,18.03125 l 0,12.0625 C -50.051065,30.305506 -53,42.0625 -53,42.0625 l 9.0625,0 0,12.0625 -14.09375,0 C -66.507844,80.276885 -86,77.9375 -86,77.9375 l 0,-12.0625 c 0,0 12.376145,2.298313 18.6875,-20.75 6.908061,-25.227422 24.167961,-27.061294 28.375,-27.125 z"
         inkscape:connector-curvature="0"
         id="path3784"
         style="fill:#ff00ff;fill-opacity:1;fill-rule:nonzero;stroke:none" />
    </clipPath>
    <filter
       x="-0.18283333"
       y="-0.14622227"
       width="1.3656667"
       height="1.2924143"
       color-interpolation-filters="sRGB"
       id="filter3786">
      <feGaussianBlur
         id="feGaussianBlur3788"
         stdDeviation="3.24" />
    </filter>
    <linearGradient
       x1="46.906918"
       y1="75.471306"
       x2="46.906918"
       y2="36.246487"
       id="linearGradient3745"
       xlink:href="#linearGradient3729"
       gradientUnits="userSpaceOnUse"
       gradientTransform="translate(-2)" />
    <linearGradient
       id="linearGradient3737-9">
      <stop
         id="stop3739-2"
         style="stop-color:#ffffff;stop-opacity:1"
         offset="0" />
      <stop
         id="stop3741-1"
         style="stop-color:#ffffff;stop-opacity:0"
         offset="1" />
    </linearGradient>
    <clipPath
       id="clipPath3613">
      <rect
         width="84"
         height="84"
         rx="6"
         ry="6"
         x="6"
         y="6"
         id="rect3615"
         style="fill:#ffffff;fill-opacity:1;fill-rule:nonzero;stroke:none" />
    </clipPath>
    <filter
       x="-0.19578789"
       y="-0.19578789"
       width="1.3915758"
       height="1.3915758"
       color-interpolation-filters="sRGB"
       id="filter3794">
      <feGaussianBlur
         id="feGaussianBlur3796"
         stdDeviation="5.28" />
    </filter>
    <linearGradient
       x1="48"
       y1="20.220806"
       x2="48"
       y2="138.66119"
       id="linearGradient4186"
       xlink:href="#linearGradient3737-9"
       gradientUnits="userSpaceOnUse" />
    <linearGradient
       inkscape:collect="always"
       xlink:href="#linearGradient3729"
       id="linearGradient16498"
       gradientUnits="userSpaceOnUse"
       gradientTransform="translate(-3.4318404,0.81596873)"
       x1="46.906918"
       y1="75.471306"
       x2="46.906918"
       y2="36.246487" />
  </defs>
  <metadata
     id="metadata2413">
    <rdf:RDF>
      <cc:Work
         rdf:about="">
        <dc:format>image/svg+xml</dc:format>
        <dc:type
           rdf:resource="http://purl.org/dc/dcmitype/StillImage" />
        <dc:title />
      </cc:Work>
    </rdf:RDF>
  </metadata>
  <g
     id="layer2"
     style="display:none">
    <rect
       width="86"
       height="85"
       rx="6"
       ry="6"
       x="5"
       y="7"
       id="rect3745"
       style="opacity:0.9;fill:url(#ButtonShadow);fill-opacity:1;fill-rule:nonzero;stroke:none;filter:url(#filter3174)" />
  </g>
  <g
     id="layer7"
     style="display:inline">
    <path
       d="m 12,-95.03125 c -5.5110903,0 -10.03125,4.52016 -10.03125,10.03125 l 0,71 c 0,5.5110902 4.5201598,10.03125 10.03125,10.03125 l 72,0 c 5.51109,0 10.03125,-4.5201597 10.03125,-10.03125 l 0,-71 c 0,-5.51109 -4.52016,-10.03125 -10.03125,-10.03125 l -72,0 z"
       transform="scale(1,-1)"
       id="path3786"
       style="opacity:0.07999998;fill:url(#linearGradient3760);fill-opacity:1;fill-rule:nonzero;stroke:none;display:inline" />
    <path
       d="m 12,-94.03125 c -4.971633,0 -9.03125,4.059617 -9.03125,9.03125 l 0,71 c 0,4.9716329 4.0596171,9.03125 9.03125,9.03125 l 72,0 c 4.971633,0 9.03125,-4.059617 9.03125,-9.03125 l 0,-71 c 0,-4.971633 -4.059617,-9.03125 -9.03125,-9.03125 l -72,0 z"
       transform="scale(1,-1)"
       id="path3778"
       style="opacity:0.1;fill:url(#linearGradient3780);fill-opacity:1;fill-rule:nonzero;stroke:none;display:inline" />
    <path
       d="m 12,-93 c -4.4091333,0 -8,3.590867 -8,8 l 0,71 c 0,4.4091333 3.5908667,8 8,8 l 72,0 c 4.409133,0 8,-3.5908667 8,-8 l 0,-71 c 0,-4.409133 -3.590867,-8 -8,-8 l -72,0 z"
       transform="scale(1,-1)"
       id="path3770"
       style="opacity:0.2;fill:url(#linearGradient3772);fill-opacity:1;fill-rule:nonzero;stroke:none;display:inline" />
    <rect
       width="86"
       height="85"
       rx="7"
       ry="7"
       x="5"
       y="-92"
       transform="scale(1,-1)"
       id="rect3723"
       style="opacity:0.3;fill:url(#linearGradient3725);fill-opacity:1;fill-rule:nonzero;stroke:none;display:inline" />
    <rect
       width="84"
       height="84"
       rx="6"
       ry="6"
       x="6"
       y="-91"
       transform="scale(1,-1)"
       id="rect3716"
       style="opacity:0.45;fill:url(#linearGradient3721);fill-opacity:1;fill-rule:nonzero;stroke:none;display:inline" />
  </g>
  <g
     id="layer1">
    <rect
       width="84"
       height="84"
       rx="6"
       ry="6"
       x="6"
       y="6"
       id="rect2419"
       style="fill:url(#linearGradient3706);fill-opacity:1;fill-rule:nonzero;stroke:none" />
    <path
       d="M 12,6 C 8.676,6 6,8.676 6,12 l 0,2 0,68 0,2 c 0,0.334721 0.04135,0.6507 0.09375,0.96875 0.0487,0.295596 0.09704,0.596915 0.1875,0.875 0.00988,0.03038 0.020892,0.0636 0.03125,0.09375 0.098865,0.287771 0.2348802,0.547452 0.375,0.8125 0.1445918,0.273507 0.3156161,0.535615 0.5,0.78125 0.1843839,0.245635 0.3737765,0.473472 0.59375,0.6875 0.439947,0.428056 0.94291,0.814526 1.5,1.09375 0.278545,0.139612 0.5734731,0.246947 0.875,0.34375 -0.2562018,-0.100222 -0.4867109,-0.236272 -0.71875,-0.375 -0.00741,-0.0044 -0.023866,0.0045 -0.03125,0 -0.031933,-0.0193 -0.062293,-0.04251 -0.09375,-0.0625 -0.120395,-0.0767 -0.2310226,-0.163513 -0.34375,-0.25 -0.1061728,-0.0808 -0.2132809,-0.161112 -0.3125,-0.25 C 8.4783201,88.557317 8.3087904,88.373362 8.15625,88.1875 8.0486711,88.057245 7.9378561,87.922215 7.84375,87.78125 7.818661,87.74287 7.805304,87.69538 7.78125,87.65625 7.716487,87.553218 7.6510225,87.451733 7.59375,87.34375 7.4927417,87.149044 7.3880752,86.928049 7.3125,86.71875 7.30454,86.69694 7.288911,86.6782 7.28125,86.65625 7.2494249,86.5643 7.2454455,86.469419 7.21875,86.375 7.1884177,86.268382 7.1483606,86.171969 7.125,86.0625 7.0521214,85.720988 7,85.364295 7,85 L 7,83 7,15 7,13 C 7,10.218152 9.2181517,8 12,8 l 2,0 68,0 2,0 c 2.781848,0 5,2.218152 5,5 l 0,2 0,68 0,2 c 0,0.364295 -0.05212,0.720988 -0.125,1.0625 -0.04415,0.206893 -0.08838,0.397658 -0.15625,0.59375 -0.0077,0.02195 -0.0233,0.04069 -0.03125,0.0625 -0.06274,0.173739 -0.138383,0.367449 -0.21875,0.53125 -0.04158,0.0828 -0.07904,0.169954 -0.125,0.25 -0.0546,0.09721 -0.126774,0.18835 -0.1875,0.28125 -0.09411,0.140965 -0.204921,0.275995 -0.3125,0.40625 -0.143174,0.17445 -0.303141,0.346998 -0.46875,0.5 -0.01117,0.0102 -0.01998,0.02115 -0.03125,0.03125 -0.138386,0.125556 -0.285091,0.234436 -0.4375,0.34375 -0.102571,0.07315 -0.204318,0.153364 -0.3125,0.21875 -0.0074,0.0045 -0.02384,-0.0044 -0.03125,0 -0.232039,0.138728 -0.462548,0.274778 -0.71875,0.375 0.301527,-0.0968 0.596455,-0.204138 0.875,-0.34375 0.55709,-0.279224 1.060053,-0.665694 1.5,-1.09375 0.219973,-0.214028 0.409366,-0.441865 0.59375,-0.6875 0.184384,-0.245635 0.355408,-0.507743 0.5,-0.78125 0.14012,-0.265048 0.276135,-0.524729 0.375,-0.8125 0.01041,-0.03078 0.02133,-0.06274 0.03125,-0.09375 0.09046,-0.278085 0.1388,-0.579404 0.1875,-0.875 C 89.95865,84.6507 90,84.334721 90,84 l 0,-2 0,-68 0,-2 C 90,8.676 87.324,6 84,6 L 12,6 z"
       inkscape:connector-curvature="0"
       id="rect3728"
       style="opacity:0.5;fill:url(#linearGradient3188);fill-opacity:1;fill-rule:nonzero;stroke:none" />
    <path
       d="M 12,90 C 8.676,90 6,87.324 6,84 L 6,82 6,14 6,12 c 0,-0.334721 0.04135,-0.6507 0.09375,-0.96875 0.0487,-0.295596 0.09704,-0.596915 0.1875,-0.875 C 6.29113,10.12587 6.302142,10.09265 6.3125,10.0625 6.411365,9.774729 6.5473802,9.515048 6.6875,9.25 6.8320918,8.976493 7.0031161,8.714385 7.1875,8.46875 7.3718839,8.223115 7.5612765,7.995278 7.78125,7.78125 8.221197,7.353194 8.72416,6.966724 9.28125,6.6875 9.559795,6.547888 9.8547231,6.440553 10.15625,6.34375 9.9000482,6.443972 9.6695391,6.580022 9.4375,6.71875 c -0.00741,0.0044 -0.023866,-0.0045 -0.03125,0 -0.031933,0.0193 -0.062293,0.04251 -0.09375,0.0625 -0.120395,0.0767 -0.2310226,0.163513 -0.34375,0.25 -0.1061728,0.0808 -0.2132809,0.161112 -0.3125,0.25 C 8.4783201,7.442683 8.3087904,7.626638 8.15625,7.8125 8.0486711,7.942755 7.9378561,8.077785 7.84375,8.21875 7.818661,8.25713 7.805304,8.30462 7.78125,8.34375 7.716487,8.446782 7.6510225,8.548267 7.59375,8.65625 7.4927417,8.850956 7.3880752,9.071951 7.3125,9.28125 7.30454,9.30306 7.288911,9.3218 7.28125,9.34375 7.2494249,9.4357 7.2454455,9.530581 7.21875,9.625 7.1884177,9.731618 7.1483606,9.828031 7.125,9.9375 7.0521214,10.279012 7,10.635705 7,11 l 0,2 0,68 0,2 c 0,2.781848 2.2181517,5 5,5 l 2,0 68,0 2,0 c 2.781848,0 5,-2.218152 5,-5 l 0,-2 0,-68 0,-2 C 89,10.635705 88.94788,10.279012 88.875,9.9375 88.83085,9.730607 88.78662,9.539842 88.71875,9.34375 88.71105,9.3218 88.69545,9.30306 88.6875,9.28125 88.62476,9.107511 88.549117,8.913801 88.46875,8.75 88.42717,8.6672 88.38971,8.580046 88.34375,8.5 88.28915,8.40279 88.216976,8.31165 88.15625,8.21875 88.06214,8.077785 87.951329,7.942755 87.84375,7.8125 87.700576,7.63805 87.540609,7.465502 87.375,7.3125 87.36383,7.3023 87.35502,7.29135 87.34375,7.28125 87.205364,7.155694 87.058659,7.046814 86.90625,6.9375 86.803679,6.86435 86.701932,6.784136 86.59375,6.71875 c -0.0074,-0.0045 -0.02384,0.0044 -0.03125,0 -0.232039,-0.138728 -0.462548,-0.274778 -0.71875,-0.375 0.301527,0.0968 0.596455,0.204138 0.875,0.34375 0.55709,0.279224 1.060053,0.665694 1.5,1.09375 0.219973,0.214028 0.409366,0.441865 0.59375,0.6875 0.184384,0.245635 0.355408,0.507743 0.5,0.78125 0.14012,0.265048 0.276135,0.524729 0.375,0.8125 0.01041,0.03078 0.02133,0.06274 0.03125,0.09375 0.09046,0.278085 0.1388,0.579404 0.1875,0.875 C 89.95865,11.3493 90,11.665279 90,12 l 0,2 0,68 0,2 c 0,3.324 -2.676,6 -6,6 l -72,0 z"
       inkscape:connector-curvature="0"
       id="path3615"
       style="opacity:0.3;fill:url(#radialGradient2903);fill-opacity:1;fill-rule:nonzero;stroke:none;display:inline" />
    <path
       d="m -38,18.019752 0,12.070101 c -12.051065,0.211756 -15.012766,11.964223 -15.012766,11.964223 l 9.089362,0 0,12.070102 -14.093617,0 C -66.493615,80.276063 -86,77.946746 -86,77.946746 l 0,-12.070102 c 0,0 12.378009,2.29621 18.689364,-20.752103 C -59.415709,16.293202 -38,18.019752 -38,18.019752 z"
       inkscape:connector-curvature="0"
       transform="translate(110,0)"
       clip-path="url(#clipPath3782)"
       id="path3774"
       style="opacity:0.6;fill:none;stroke:#ffffff;stroke-width:2;stroke-miterlimit:4;stroke-dasharray:none;filter:url(#filter3786)" />
    <rect
       width="84"
       height="84"
       rx="6"
       ry="6"
       x="-104"
       y="6"
       id="rect3768"
       style="fill:#ff00ff;fill-opacity:1;fill-rule:nonzero;stroke:none" />
  </g>
  <g
     id="layer3">
    <rect
       width="66"
       height="66"
       rx="12"
       ry="12"
       x="15"
       y="15"
       clip-path="url(#clipPath3613)"
       id="rect3171"
       style="opacity:0.5;fill:url(#linearGradient4186);fill-opacity:1;fill-rule:nonzero;stroke:#ffffff;stroke-width:0.5;stroke-linecap:round;stroke-linejoin:miter;stroke-miterlimit:4;stroke-opacity:1;stroke-dasharray:none;stroke-dashoffset:0;display:inline;filter:url(#filter3794)" />
  </g>
  <g
     id="layer4"
     transform="translate(-0.66097615,-1.8507332)">
    <path
       d="m 26,36 v 40 h 7.65625 V 61.34375 h 2.65625 c 3.007821,1.4e-5 5.496289,-0.376132 7.46875,-1.09375 2.017576,-0.727286 3.626148,-1.691995 4.8125,-2.875 1.217362,-1.19583 2.068695,-2.559991 2.59375,-4.125 0.533685,-1.590867 0.812468,-3.25766 0.8125,-5 -3.2e-5,-1.949457 -0.294026,-3.658067 -0.875,-5.15625 C 50.54664,41.584779 49.642992,40.337651 48.4375,39.3125 47.253899,38.273214 45.713567,37.468336 43.8125,36.90625 41.939289,36.329021 39.649294,36.000039 37,36 Z m 7.65625,5.96875 h 2.90625 c 2.511415,3.5e-5 4.427443,0.5071 5.71875,1.625 1.306893,1.112657 1.906224,2.84282 1.90625,5 -2.6e-5,2.311914 -0.668573,4.108399 -2.125,5.21875 -1.416336,1.09616 -3.445909,1.562523 -6.03125,1.5625 h -2.375 z"
       inkscape:connector-curvature="0"
       id="path3715"
       style="font-style:normal;font-variant:normal;font-weight:bold;font-stretch:normal;font-size:48px;line-height:100%;font-family:'Droid Sans';-inkscape-font-specification:'Droid Sans Bold';text-align:start;writing-mode:lr-tb;text-anchor:start;display:inline;fill:url(#linearGradient3745);fill-opacity:1;stroke:none"
       sodipodi:nodetypes="ccccsccccccccccccccccc" />
    <path
       d="m 26,36 v 1 h 11 c 2.649294,3.9e-5 4.939289,0.329021 6.8125,0.90625 1.901067,0.562086 3.441399,1.366964 4.625,2.40625 1.205492,1.025151 2.10914,2.272279 2.6875,3.78125 0.526069,1.356598 0.793467,2.90075 0.84375,4.625 C 51.973407,48.560517 51.999997,48.409499 52,48.25 51.999968,46.300543 51.705974,44.591933 51.125,43.09375 50.54664,41.584779 49.642992,40.337651 48.4375,39.3125 47.253899,38.273214 45.713567,37.468336 43.8125,36.90625 41.939289,36.329021 39.649294,36.000039 37,36 Z m 18.15625,13.125 c -0.09773,2.054034 -0.752042,3.664608 -2.09375,4.6875 -1.416336,1.09616 -3.445909,1.562523 -6.03125,1.5625 h -2.375 v 1 h 2.375 c 2.585341,2.3e-5 4.614914,-0.46634 6.03125,-1.5625 1.456427,-1.110351 2.124974,-2.906836 2.125,-5.21875 -2e-6,-0.161961 -0.02445,-0.311684 -0.03125,-0.46875 z"
       inkscape:connector-curvature="0"
       id="path3747"
       style="font-style:normal;font-variant:normal;font-weight:bold;font-stretch:normal;font-size:48px;line-height:100%;font-family:'Droid Sans';-inkscape-font-specification:'Droid Sans Bold';text-align:start;writing-mode:lr-tb;text-anchor:start;display:inline;opacity:0.6;fill:#123b72;fill-opacity:1;stroke:none"
       sodipodi:nodetypes="ccccccccccccccccccccsc" />
    <path
       d="m 26,36 v 40 h 7.65625 V 61.34375 h 2.65625 c 3.007821,1.4e-5 5.496289,-0.376132 7.46875,-1.09375 2.017576,-0.727286 3.626148,-1.691995 4.8125,-2.875 1.217362,-1.19583 2.068695,-2.559991 2.59375,-4.125 0.533685,-1.590867 0.812468,-3.25766 0.8125,-5 -3.2e-5,-1.949457 -0.294026,-3.658067 -0.875,-5.15625 C 50.54664,41.584779 49.642992,40.337651 48.4375,39.3125 47.253899,38.273214 45.713567,37.468336 43.8125,36.90625 41.939289,36.329021 39.649294,36.000039 37,36 Z m 1.0625,1.0625 H 37 c 2.560646,3.8e-5 4.752091,0.336383 6.5,0.875 1.785333,0.527867 3.175311,1.271286 4.21875,2.1875 0.01042,1.52e-4 0.02083,1.52e-4 0.03125,0 1.080166,0.918574 1.859484,1.998743 2.375,3.34375 0.52577,1.355827 0.81247,2.939453 0.8125,4.78125 -3e-5,1.628117 -0.252286,3.172609 -0.75,4.65625 -0.473712,1.411974 -1.238788,2.633332 -2.34375,3.71875 -1.049746,1.046784 -2.533309,1.938587 -4.4375,2.625 -1.813494,0.659783 -4.175216,1.031264 -7.09375,1.03125 h -2.65625 c -0.584868,0.0046 -1.057857,0.477632 -1.0625,1.0625 V 74.9375 H 27.0625 Z m 6.40625,3.84375 c -0.510759,0.09507 -0.879632,0.542989 -0.875,1.0625 V 55.375 c 0.0046,0.584868 0.477632,1.057857 1.0625,1.0625 h 2.375 c 2.714134,2.4e-5 4.995826,-0.471995 6.6875,-1.78125 1.773677,-1.352216 2.531222,-3.544135 2.53125,-6.0625 -2.8e-5,-2.355531 -0.680164,-4.449374 -2.28125,-5.8125 -1.566483,-1.356123 -3.750693,-1.874963 -6.40625,-1.875 h -2.90625 c -0.06238,-0.0055 -0.12512,-0.0055 -0.1875,0 z m 0.1875,1.0625 h 2.90625 c 2.511415,3.5e-5 4.427443,0.5071 5.71875,1.625 1.306893,1.112657 1.906224,2.84282 1.90625,5 -2.6e-5,2.311914 -0.668573,4.108399 -2.125,5.21875 -1.416336,1.09616 -3.445909,1.562523 -6.03125,1.5625 h -2.375 z"
       inkscape:connector-curvature="0"
       id="path3757"
       style="font-style:normal;font-variant:normal;font-weight:bold;font-stretch:normal;font-size:48px;line-height:100%;font-family:'Droid Sans';-inkscape-font-specification:'Droid Sans Bold';text-align:start;writing-mode:lr-tb;text-anchor:start;opacity:0.2;fill:#0c2548;fill-opacity:1;stroke:none"
       sodipodi:nodetypes="ccccscccccccccccccccccccscccccccccccccccccccccccc" />
    <path
       d="m 33.65625,41.96875 v 1 h 2.90625 c 2.511415,3.5e-5 4.427443,0.5071 5.71875,1.625 1.208772,1.029119 1.791177,2.596331 1.875,4.53125 0.0084,-0.175624 0.03125,-0.349147 0.03125,-0.53125 -2.6e-5,-2.15718 -0.599357,-3.887343 -1.90625,-5 -1.291307,-1.1179 -3.207335,-1.624965 -5.71875,-1.625 z m 18.3125,6.75 c -0.04621,1.570273 -0.29642,3.086016 -0.78125,4.53125 -0.525055,1.565009 -1.376388,2.92917 -2.59375,4.125 -1.186352,1.183005 -2.794924,2.147714 -4.8125,2.875 -1.972461,0.717618 -4.460929,1.093764 -7.46875,1.09375 h -2.65625 v 1 h 2.65625 c 3.007821,1.4e-5 5.496289,-0.376132 7.46875,-1.09375 2.017576,-0.727286 3.626148,-1.691995 4.8125,-2.875 1.217362,-1.19583 2.068695,-2.559991 2.59375,-4.125 0.533685,-1.590867 0.812468,-3.25766 0.8125,-5 -3e-6,-0.184233 -0.026,-0.351294 -0.03125,-0.53125 z M 26,76 v 1 h 7.65625 v -1 z"
       inkscape:connector-curvature="0"
       id="path3764"
       style="font-style:normal;font-variant:normal;font-weight:bold;font-stretch:normal;font-size:48px;line-height:100%;font-family:'Droid Sans';-inkscape-font-specification:'Droid Sans Bold';text-align:start;writing-mode:lr-tb;text-anchor:start;opacity:0.8;fill:#ffffff;fill-opacity:1;stroke:none"
       sodipodi:nodetypes="cccccccccccccsccscccscccccc" />
  </g>
  <g
     id="g16589"
     transform="matrix(1.249126,0,0,1.249126,-12.799125,-21.236713)">
    <path
       d="m 62.443161,48.815969 c -1.49113,3e-5 -2.83822,0.14666 -4.0625,0.46875 -1.208599,0.306038 -2.230475,0.778148 -3.093751,1.40625 -0.863283,0.628154 -1.529123,1.42478 -2,2.375 -0.470881,0.93416 -0.718751,2.025016 -0.71875,3.28125 -10e-7,1.143534 0.139416,2.131263 0.40625,2.96875 0.26683,0.821415 0.653834,1.574532 1.1875,2.21875 0.549356,0.644249 1.261859,1.21852 2.09375,1.75 0.847577,0.515399 1.822931,1.03102 2.968751,1.5625 1.17719,0.54761 2.12187,1.019721 2.8125,1.40625 0.70631,0.370445 1.23273,0.725246 1.59375,1.03125 0.36099,0.289915 0.59332,0.56996 0.6875,0.84375 0.10986,0.257703 0.15623,0.536787 0.15625,0.875 -2e-5,0.33823 -0.0775,0.662745 -0.21875,0.96875 -0.12558,0.289909 -0.32679,0.555775 -0.625,0.78125 -0.28254,0.209383 -0.63858,0.371156 -1.09375,0.5 -0.4552,0.112752 -1.01273,0.187505 -1.65625,0.1875 -0.58076,5e-6 -1.21563,-0.07475 -1.90625,-0.1875 -0.67494,-0.112735 -1.37174,-0.244224 -2.093751,-0.4375 -0.722021,-0.20937 -1.449794,-0.476196 -2.1875,-0.75 -0.722019,-0.273793 -1.403272,-0.568018 -2.0625,-0.90625 v 6.09375 c 0.627837,0.289907 1.231601,0.525482 1.84375,0.71875 0.612138,0.19327 1.247014,0.339906 1.90625,0.46875 0.659225,0.128847 1.356031,0.23293 2.093751,0.28125 0.7377,0.06442 1.54296,0.09375 2.40625,0.09375 1.63237,-10e-7 3.11902,-0.176921 4.4375,-0.53125 1.31845,-0.354327 2.41767,-0.885091 3.34375,-1.59375 0.92604,-0.708654 1.65395,-1.593262 2.15625,-2.65625 0.50225,-1.06298 0.74998,-2.301431 0.75,-3.71875 -2e-5,-1.191823 -0.18596,-2.224986 -0.53125,-3.0625 -0.34533,-0.837492 -0.82523,-1.559361 -1.46875,-2.1875 -0.64355,-0.628113 -1.41785,-1.173059 -2.3125,-1.65625 -0.89469,-0.499266 -1.8856,-1.000704 -3,-1.5 -0.95747,-0.450947 -1.74732,-0.81897 -2.34375,-1.125 -0.59646,-0.322097 -1.0454,-0.617286 -1.375,-0.875 -0.32963,-0.27378 -0.54638,-0.539642 -0.65625,-0.78125 -0.10988,-0.257673 -0.18751,-0.552864 -0.1875,-0.875 -1e-5,-0.612002 0.23245,-1.083149 0.65625,-1.4375 0.43948,-0.354304 1.12059,-0.531228 2.09375,-0.53125 1.08301,2.2e-5 2.16696,0.160838 3.25,0.53125 1.08301,0.370454 2.24459,0.857711 3.4375,1.4375 l 2.15625,-5.21875 c -1.49114,-0.740843 -2.93113,-1.285789 -4.34375,-1.65625 -1.41265,-0.370409 -2.93042,-0.56247 -4.5,-0.5625 z"
       style="font-style:normal;font-variant:normal;font-weight:bold;font-stretch:normal;font-size:48px;line-height:100%;font-family:'Droid Sans';-inkscape-font-specification:'Droid Sans Bold';text-align:start;writing-mode:lr-tb;text-anchor:start;display:inline;fill:url(#linearGradient16498);fill-opacity:1;stroke:none"
       id="path16469" />
    <path
       d="m 70.943161,51.878469 -1.8125,4.375 c -1.19292,-0.579789 -2.3545,-1.067046 -3.4375,-1.4375 -1.08304,-0.370412 -2.16699,-0.531228 -3.25,-0.53125 -0.97317,2.2e-5 -1.65427,0.176946 -2.09375,0.53125 -0.42381,0.354351 -0.65626,0.825498 -0.65625,1.4375 -1e-5,0.161068 0.0294,0.322476 0.0625,0.46875 0.0971,-0.361843 0.30238,-0.662634 0.59375,-0.90625 0.43948,-0.354304 1.12058,-0.531228 2.09375,-0.53125 1.08301,2.2e-5 2.16696,0.160838 3.25,0.53125 1.083,0.370454 2.24458,0.857711 3.4375,1.4375 l 2.15625,-5.21875 c -0.11573,-0.0575 -0.22863,-0.101104 -0.34375,-0.15625 z m -18.34375,4.9375 c -0.0106,0.177169 -0.0312,0.346992 -0.0312,0.53125 0,1.143534 0.13941,2.131263 0.40625,2.96875 0.26683,0.821415 0.65383,1.574532 1.1875,2.21875 0.54935,0.644249 1.26185,1.21852 2.09375,1.75 0.84757,0.515399 1.82293,1.03102 2.96875,1.5625 1.17719,0.54761 2.12186,1.019721 2.8125,1.40625 0.7063,0.370445 1.23273,0.725246 1.59375,1.03125 0.36099,0.289915 0.59332,0.56996 0.6875,0.84375 0.0422,0.0989 0.0693,0.205166 0.0937,0.3125 0.0286,-0.142623 0.0625,-0.289199 0.0625,-0.4375 -2e-5,-0.338213 -0.0464,-0.617297 -0.15625,-0.875 -0.0942,-0.27379 -0.32651,-0.553835 -0.6875,-0.84375 -0.36102,-0.306004 -0.88745,-0.660805 -1.59375,-1.03125 -0.69064,-0.386529 -1.63531,-0.85864 -2.8125,-1.40625 -1.14582,-0.53148 -2.12118,-1.047101 -2.96875,-1.5625 -0.8319,-0.53148 -1.5444,-1.105751 -2.09375,-1.75 -0.53367,-0.644218 -0.92067,-1.397335 -1.1875,-2.21875 -0.22974,-0.721042 -0.34183,-1.552674 -0.375,-2.5 z m 18.9375,12.03125 c -0.0558,1.194509 -0.28124,2.261537 -0.71875,3.1875 -0.5023,1.062988 -1.23021,1.947596 -2.15625,2.65625 -0.92609,0.708659 -2.02531,1.239423 -3.34375,1.59375 -1.31848,0.354329 -2.80514,0.531249 -4.4375,0.53125 -0.86329,0 -1.66855,-0.02933 -2.40625,-0.09375 -0.73772,-0.04832 -1.43453,-0.152403 -2.09375,-0.28125 -0.65924,-0.128844 -1.29412,-0.27548 -1.90625,-0.46875 -0.61215,-0.193268 -1.21592,-0.428843 -1.84375,-0.71875 v 1 c 0.62783,0.289907 1.2316,0.525482 1.84375,0.71875 0.61213,0.19327 1.24701,0.339906 1.90625,0.46875 0.65922,0.128847 1.35603,0.23293 2.09375,0.28125 0.7377,0.06442 1.54296,0.09375 2.40625,0.09375 1.63236,-10e-7 3.11902,-0.176921 4.4375,-0.53125 1.31844,-0.354327 2.41766,-0.885091 3.34375,-1.59375 0.92604,-0.708654 1.65395,-1.593262 2.15625,-2.65625 0.50225,-1.06298 0.74997,-2.301431 0.75,-3.71875 -1e-5,-0.159795 -0.0246,-0.314748 -0.0312,-0.46875 z"
       style="font-style:normal;font-variant:normal;font-weight:bold;font-stretch:normal;font-size:48px;line-height:100%;font-family:'Droid Sans';-inkscape-font-specification:'Droid Sans Bold';text-align:start;writing-mode:lr-tb;text-anchor:start;opacity:0.8;fill:#ffffff;fill-opacity:1;stroke:none"
       id="path16509" />
    <path
       d="m 62.441144,48.799933 c -1.49113,3e-5 -2.83822,0.14666 -4.0625,0.46875 -1.2086,0.306038 -2.23047,0.778148 -3.09375,1.40625 -0.86328,0.628154 -1.52912,1.42478 -2,2.375 -0.47088,0.93416 -0.71875,2.025016 -0.71875,3.28125 0,0.158998 0.0259,0.315761 0.0312,0.46875 0.0616,-1.030738 0.28569,-1.952858 0.6875,-2.75 0.47088,-0.95022 1.13672,-1.746846 2,-2.375 0.86328,-0.628102 1.88515,-1.100212 3.09375,-1.40625 1.22428,-0.32209 2.57137,-0.46872 4.0625,-0.46875 1.56959,3e-5 3.08735,0.192091 4.5,0.5625 1.30299,0.34171 2.63178,0.844581 4,1.5 l 0.34375,-0.84375 c -1.49114,-0.740843 -2.93113,-1.285789 -4.34375,-1.65625 -1.41265,-0.370409 -2.93041,-0.56247 -4.5,-0.5625 z m -2.6875,7.90625 c -0.0442,0.164474 -0.0625,0.339999 -0.0625,0.53125 -1e-5,0.322136 0.0776,0.617327 0.1875,0.875 0.10987,0.241608 0.32662,0.50747 0.65625,0.78125 0.32961,0.257714 0.77854,0.552903 1.375,0.875 0.59644,0.30603 1.38628,0.674053 2.34375,1.125 1.1144,0.499296 2.10531,1.000734 3,1.5 0.89465,0.483191 1.66895,1.028137 2.3125,1.65625 0.64352,0.628139 1.12342,1.350008 1.46875,2.1875 0.299,0.725223 0.45723,1.599139 0.5,2.59375 0.008,-0.176755 0.0312,-0.348559 0.0312,-0.53125 -2e-5,-1.191823 -0.18596,-2.224986 -0.53125,-3.0625 -0.34533,-0.837492 -0.82523,-1.559361 -1.46875,-2.1875 -0.64355,-0.628113 -1.41785,-1.173059 -2.3125,-1.65625 -0.89469,-0.499266 -1.8856,-1.000704 -3,-1.5 -0.95747,-0.450947 -1.74731,-0.81897 -2.34375,-1.125 -0.59646,-0.322097 -1.04539,-0.617286 -1.375,-0.875 -0.32963,-0.27378 -0.54638,-0.539642 -0.65625,-0.78125 -0.0549,-0.128836 -0.0919,-0.259976 -0.125,-0.40625 z m -7.125,12.4375 v 1 c 0.65923,0.338232 1.34048,0.632457 2.0625,0.90625 0.73771,0.273804 1.46548,0.54063 2.1875,0.75 0.72201,0.193276 1.41882,0.324765 2.09375,0.4375 0.69062,0.11275 1.32549,0.187505 1.90625,0.1875 0.64352,5e-6 1.20106,-0.07475 1.65625,-0.1875 0.45517,-0.128844 0.81121,-0.290617 1.09375,-0.5 0.29821,-0.225475 0.49942,-0.491341 0.625,-0.78125 0.14125,-0.306005 0.21874,-0.63052 0.21875,-0.96875 -10e-6,-0.208412 -0.0233,-0.39016 -0.0625,-0.5625 -0.0367,0.182658 -0.0769,0.359416 -0.15625,0.53125 -0.12558,0.289909 -0.32679,0.555775 -0.625,0.78125 -0.28254,0.209383 -0.63858,0.371156 -1.09375,0.5 -0.45519,0.112752 -1.01273,0.187505 -1.65625,0.1875 -0.58076,5e-6 -1.21563,-0.07475 -1.90625,-0.1875 -0.67493,-0.112735 -1.37174,-0.244224 -2.09375,-0.4375 -0.72202,-0.20937 -1.44979,-0.476196 -2.1875,-0.75 -0.72202,-0.273793 -1.40327,-0.568018 -2.0625,-0.90625 z"
       style="font-style:normal;font-variant:normal;font-weight:bold;font-stretch:normal;font-size:48px;line-height:100%;font-family:'Droid Sans';-inkscape-font-specification:'Droid Sans Bold';text-align:start;writing-mode:lr-tb;text-anchor:start;display:inline;opacity:0.6;fill:#123b72;fill-opacity:1;stroke:none"
       id="path16537" />
    <path
       d="m 62.443161,48.815969 c -1.49113,3e-5 -2.83822,0.14666 -4.0625,0.46875 -1.2086,0.306038 -2.23048,0.778148 -3.09375,1.40625 -0.86329,0.628154 -1.52913,1.42478 -2,2.375 -0.47088,0.93416 -0.71875,2.025016 -0.71875,3.28125 0,1.143534 0.13941,2.131263 0.40625,2.96875 0.26683,0.821415 0.65383,1.574532 1.1875,2.21875 0.54935,0.644249 1.26186,1.21852 2.09375,1.75 0.84757,0.515399 1.82293,1.03102 2.96875,1.5625 1.17719,0.54761 2.12186,1.019721 2.8125,1.40625 0.7063,0.370445 1.23273,0.725246 1.59375,1.03125 0.36099,0.289915 0.59332,0.56996 0.6875,0.84375 0.10986,0.257703 0.15623,0.536787 0.15625,0.875 -2e-5,0.33823 -0.0775,0.662745 -0.21875,0.96875 -0.12559,0.289909 -0.32679,0.555775 -0.625,0.78125 -0.28254,0.209383 -0.63858,0.371156 -1.09375,0.5 -0.4552,0.112752 -1.01273,0.187505 -1.65625,0.1875 -0.58076,5e-6 -1.21564,-0.07475 -1.90625,-0.1875 -0.67494,-0.112735 -1.37174,-0.244224 -2.09375,-0.4375 -0.72202,-0.20937 -1.4498,-0.476196 -2.1875,-0.75 -0.72202,-0.273793 -1.40327,-0.568018 -2.0625,-0.90625 v 6.09375 c 0.62783,0.289907 1.2316,0.525482 1.84375,0.71875 0.61214,0.19327 1.24701,0.339906 1.90625,0.46875 0.65922,0.128847 1.35603,0.23293 2.09375,0.28125 0.7377,0.06442 1.54296,0.09375 2.40625,0.09375 1.63237,-10e-7 3.11902,-0.176921 4.4375,-0.53125 1.31844,-0.354327 2.41767,-0.885091 3.34375,-1.59375 0.92604,-0.708654 1.65395,-1.593262 2.15625,-2.65625 0.50225,-1.06298 0.74998,-2.301431 0.75,-3.71875 -2e-5,-1.191823 -0.18596,-2.224986 -0.53125,-3.0625 -0.34533,-0.837492 -0.82524,-1.559361 -1.46875,-2.1875 -0.64356,-0.628113 -1.41785,-1.173059 -2.3125,-1.65625 -0.89469,-0.499266 -1.8856,-1.000704 -3,-1.5 -0.95747,-0.450947 -1.74732,-0.81897 -2.34375,-1.125 -0.59646,-0.322097 -1.0454,-0.617286 -1.375,-0.875 -0.32963,-0.27378 -0.54639,-0.539642 -0.65625,-0.78125 -0.10988,-0.257673 -0.18751,-0.552864 -0.1875,-0.875 -1e-5,-0.612002 0.23245,-1.083149 0.65625,-1.4375 0.43948,-0.354304 1.12058,-0.531228 2.09375,-0.53125 1.08301,2.2e-5 2.16696,0.160838 3.25,0.53125 1.083,0.370454 2.24458,0.857711 3.4375,1.4375 l 2.15625,-5.21875 c -1.49114,-0.740843 -2.93113,-1.285789 -4.34375,-1.65625 -1.41266,-0.370409 -2.93042,-0.56247 -4.5,-0.5625 z m 0,1.0625 c 1.48223,2.8e-5 2.90028,0.185538 4.21875,0.53125 1.03305,0.270918 2.13185,0.735547 3.21875,1.21875 l -1.34375,3.21875 c -0.84697,-0.378249 -1.7047,-0.759207 -2.5,-1.03125 -1.20026,-0.410502 -2.40474,-0.593726 -3.59375,-0.59375 -1.10295,2.5e-5 -2.05649,0.165703 -2.78125,0.75 -1.5e-4,0.01042 -1.5e-4,0.02083 0,0.03125 -0.63434,0.530381 -1.03127,1.366807 -1.03125,2.25 -2e-5,0.494217 0.0958,0.919542 0.25,1.28125 0.0102,0.01063 0.0206,0.02105 0.0312,0.03125 0.20703,0.455288 0.52324,0.812181 0.9375,1.15625 0.0102,0.01063 0.0206,0.02105 0.0312,0.03125 0.38872,0.303941 0.89177,0.623422 1.53125,0.96875 0.62783,0.322142 1.41973,0.706337 2.375,1.15625 0.0104,1.52e-4 0.0208,1.52e-4 0.0312,0 1.08641,0.486758 2.03894,0.984761 2.90625,1.46875 0.0104,1.52e-4 0.0208,1.52e-4 0.0312,0 0.82574,0.445976 1.50464,0.95553 2.0625,1.5 0.54047,0.527564 0.92403,1.097767 1.21875,1.8125 0.27863,0.675835 0.46873,1.5758 0.46875,2.65625 -2e-5,1.29254 -0.23315,2.354537 -0.65625,3.25 -0.4296,0.909143 -1.0442,1.669392 -1.84375,2.28125 -0.80623,0.616946 -1.76509,1.082772 -2.96875,1.40625 -1.20991,0.325152 -2.60126,0.499999 -4.15625,0.5 -0.83904,0 -1.61402,-0.03275 -2.3125,-0.09375 -0.0104,-1.52e-4 -0.0208,-1.52e-4 -0.0312,0 -0.68152,-0.04464 -1.31115,-0.158828 -1.9375,-0.28125 -0.63615,-0.124331 -1.25479,-0.261414 -1.8125,-0.4375 -0.35937,-0.11346 -0.73029,-0.257327 -1.09375,-0.40625 v -3.75 c 0.21025,0.08631 0.40985,0.199665 0.625,0.28125 0.74033,0.274778 1.4791,0.557708 2.25,0.78125 0.0104,1.52e-4 0.0208,1.52e-4 0.0312,0 0.77107,0.206409 1.49723,0.353455 2.1875,0.46875 0.71933,0.117438 1.42108,0.187506 2.09375,0.1875 0.72646,6e-6 1.36018,-0.08349 1.90625,-0.21875 0.0104,1.52e-4 0.0208,1.52e-4 0.0312,0 0.54039,-0.152967 1.02118,-0.347733 1.4375,-0.65625 0.0106,-0.0102 0.021,-0.02062 0.0312,-0.03125 0.4364,-0.329964 0.741,-0.733882 0.9375,-1.1875 0.19953,-0.432277 0.31248,-0.904491 0.3125,-1.40625 -2e-5,-0.415417 -0.0605,-0.821468 -0.21875,-1.21875 -0.008,-0.01977 0.008,-0.04286 0,-0.0625 h -0.0312 c -0.19814,-0.522395 -0.55314,-0.9118 -0.96875,-1.25 -0.009,-0.0076 -0.0222,-0.02362 -0.0312,-0.03125 -0.43254,-0.362382 -0.98628,-0.738879 -1.71875,-1.125 -0.009,-0.0049 -0.0219,0.0049 -0.0312,0 -0.7272,-0.405989 -1.69335,-0.887811 -2.875,-1.4375 -1.11642,-0.517842 -2.03689,-1.009356 -2.84375,-1.5 -0.77074,-0.492411 -1.38716,-0.99579 -1.84375,-1.53125 -0.42864,-0.517433 -0.73709,-1.140473 -0.96875,-1.84375 -0.003,-0.0082 0.003,-0.02304 0,-0.03125 -0.22087,-0.703954 -0.375,-1.580696 -0.375,-2.625 0,-1.115362 0.23696,-2.042686 0.625,-2.8125 0.39827,-0.803704 0.92944,-1.439901 1.65625,-1.96875 0.7446,-0.541761 1.62496,-0.973035 2.71875,-1.25 0.0104,1.52e-4 0.0208,1.52e-4 0.0312,0 1.11468,-0.293258 2.36031,-0.437471 3.78125,-0.4375 z"
       style="font-style:normal;font-variant:normal;font-weight:bold;font-stretch:normal;font-size:48px;line-height:100%;font-family:'Droid Sans';-inkscape-font-specification:'Droid Sans Bold';text-align:start;writing-mode:lr-tb;text-anchor:start;opacity:0.2;fill:#0c2548;fill-opacity:1;stroke:none"
       id="path16565" />
  </g>
</svg>
