<?xml version="1.0" encoding="UTF-8" standalone="no"?>
<!-- Created with Inkscape (http://www.inkscape.org/) -->

<svg
   version="1.0"
   width="96"
   height="96"
   id="svg2408"
   sodipodi:docname="librewolf.svg"
   inkscape:version="1.2.2 (b0a8486541, 2022-12-01)"
   xmlns:inkscape="http://www.inkscape.org/namespaces/inkscape"
   xmlns:sodipodi="http://sodipodi.sourceforge.net/DTD/sodipodi-0.dtd"
   xmlns:xlink="http://www.w3.org/1999/xlink"
   xmlns="http://www.w3.org/2000/svg"
   xmlns:svg="http://www.w3.org/2000/svg"
   xmlns:rdf="http://www.w3.org/1999/02/22-rdf-syntax-ns#"
   xmlns:cc="http://creativecommons.org/ns#"
   xmlns:dc="http://purl.org/dc/elements/1.1/">
  <sodipodi:namedview
     id="namedview15843"
     pagecolor="#ffffff"
     bordercolor="#000000"
     borderopacity="0.25"
     inkscape:showpageshadow="2"
     inkscape:pageopacity="0.0"
     inkscape:pagecheckerboard="0"
     inkscape:deskcolor="#d1d1d1"
     showgrid="false"
     inkscape:zoom="15.129139"
     inkscape:cx="35.428321"
     inkscape:cy="45.475158"
     inkscape:current-layer="layer1" />
  <defs
     id="defs2410">
    <linearGradient
       inkscape:collect="always"
       id="linearGradient34840">
      <stop
         style="stop-color:#d4d4d4;stop-opacity:1;"
         offset="0"
         id="stop34836" />
      <stop
         style="stop-color:#ffffff;stop-opacity:1;"
         offset="1"
         id="stop34838" />
    </linearGradient>
    <linearGradient
       id="linearGradient4085">
      <stop
         id="stop4087"
         style="stop-color:#782121;stop-opacity:1"
         offset="0" />
      <stop
         id="stop4089"
         style="stop-color:#782121;stop-opacity:0"
         offset="1" />
    </linearGradient>
    <linearGradient
       id="linearGradient3694">
      <stop
         id="stop3696"
         style="stop-color:#e6e6e6;stop-opacity:1"
         offset="0" />
      <stop
         id="stop3698"
         style="stop-color:#f5f5f5;stop-opacity:1"
         offset="1" />
    </linearGradient>
    <linearGradient
       id="linearGradient3688">
      <stop
         id="stop3690"
         style="stop-color:#007ab2;stop-opacity:1;"
         offset="0" />
      <stop
         id="stop3692"
         style="stop-color:#00acff;stop-opacity:1;"
         offset="1" />
    </linearGradient>
    <linearGradient
       x1="45.447727"
       y1="92.539597"
       x2="45.447727"
       y2="7.0165396"
       id="ButtonShadow"
       gradientUnits="userSpaceOnUse"
       gradientTransform="scale(1.0058652,0.994169)">
      <stop
         id="stop3750"
         style="stop-color:#000000;stop-opacity:1"
         offset="0" />
      <stop
         id="stop3752"
         style="stop-color:#000000;stop-opacity:0.58823532"
         offset="1" />
    </linearGradient>
    <linearGradient
       id="linearGradient3737">
      <stop
         id="stop3739"
         style="stop-color:#ffffff;stop-opacity:1"
         offset="0" />
      <stop
         id="stop3741"
         style="stop-color:#ffffff;stop-opacity:0"
         offset="1" />
    </linearGradient>
    <filter
       color-interpolation-filters="sRGB"
       id="filter3174"
       x="-0.047720931"
       y="-0.048282354"
       width="1.0954419"
       height="1.0965647">
      <feGaussianBlur
         id="feGaussianBlur3176"
         stdDeviation="1.71" />
    </filter>
    <linearGradient
       x1="36.357143"
       y1="6"
       x2="36.357143"
       y2="63.893143"
       id="linearGradient3188"
       xlink:href="#linearGradient3737"
       gradientUnits="userSpaceOnUse" />
    <filter
       x="-0.19578789"
       y="-0.19578789"
       width="1.3915758"
       height="1.3915758"
       color-interpolation-filters="sRGB"
       id="filter3794">
      <feGaussianBlur
         id="feGaussianBlur3796"
         stdDeviation="5.28" />
    </filter>
    <linearGradient
       x1="48"
       y1="20.220806"
       x2="48"
       y2="138.66119"
       id="linearGradient3613"
       xlink:href="#linearGradient3737"
       gradientUnits="userSpaceOnUse" />
    <radialGradient
       cx="48"
       cy="90.171875"
       r="42"
       fx="48"
       fy="90.171875"
       id="radialGradient3619"
       xlink:href="#linearGradient3737"
       gradientUnits="userSpaceOnUse"
       gradientTransform="matrix(1.1573129,0,0,0.99590774,-7.5510206,0.19713193)" />
    <clipPath
       id="clipPath3613">
      <rect
         width="84"
         height="84"
         rx="6"
         ry="6"
         x="6"
         y="6"
         id="rect3615"
         style="fill:#ffffff;fill-opacity:1;fill-rule:nonzero;stroke:none" />
    </clipPath>
    <linearGradient
       x1="48"
       y1="90"
       x2="48"
       y2="5.9877172"
       id="linearGradient3617"
       xlink:href="#linearGradient3688"
       gradientUnits="userSpaceOnUse" />
    <linearGradient
       x1="45.447727"
       y1="92.539597"
       x2="45.447727"
       y2="7.0165396"
       id="ButtonShadow-0"
       gradientUnits="userSpaceOnUse"
       gradientTransform="matrix(1.0058652,0,0,0.994169,100,0)">
      <stop
         id="stop3750-8"
         style="stop-color:#000000;stop-opacity:1"
         offset="0" />
      <stop
         id="stop3752-5"
         style="stop-color:#000000;stop-opacity:0.58823532"
         offset="1" />
    </linearGradient>
    <linearGradient
       x1="32.251034"
       y1="6.1317081"
       x2="32.251034"
       y2="90.238609"
       id="linearGradient3780"
       xlink:href="#ButtonShadow-0"
       gradientUnits="userSpaceOnUse"
       gradientTransform="matrix(1.0238095,0,0,1.0119048,-1.1428571,-98.071429)" />
    <linearGradient
       x1="32.251034"
       y1="6.1317081"
       x2="32.251034"
       y2="90.238609"
       id="linearGradient3772"
       xlink:href="#ButtonShadow-0"
       gradientUnits="userSpaceOnUse"
       gradientTransform="matrix(1.0238095,0,0,1.0119048,-1.1428571,-98.071429)" />
    <linearGradient
       x1="32.251034"
       y1="6.1317081"
       x2="32.251034"
       y2="90.238609"
       id="linearGradient3725"
       xlink:href="#ButtonShadow-0"
       gradientUnits="userSpaceOnUse"
       gradientTransform="matrix(1.0238095,0,0,1.0119048,-1.1428571,-98.071429)" />
    <linearGradient
       x1="32.251034"
       y1="6.1317081"
       x2="32.251034"
       y2="90.238609"
       id="linearGradient3721"
       xlink:href="#ButtonShadow-0"
       gradientUnits="userSpaceOnUse"
       gradientTransform="translate(0,-97)" />
    <linearGradient
       x1="32.251034"
       y1="6.1317081"
       x2="32.251034"
       y2="90.238609"
       id="linearGradient3026"
       xlink:href="#ButtonShadow-0"
       gradientUnits="userSpaceOnUse"
       gradientTransform="matrix(1.0238095,0,0,1.0119048,-1.1428571,-98.071429)" />
    <linearGradient
       x1="-73.494293"
       y1="72.699486"
       x2="-50.243786"
       y2="159.47563"
       id="linearGradient4018"
       xlink:href="#linearGradient3694"
       gradientUnits="userSpaceOnUse"
       gradientTransform="matrix(0.59136097,-0.15844727,-0.15844727,-0.59136097,103.35407,108.29989)" />
    <linearGradient
       x1="-73.494293"
       y1="72.699486"
       x2="-50.243786"
       y2="159.47563"
       id="linearGradient4071"
       xlink:href="#linearGradient3694"
       gradientUnits="userSpaceOnUse"
       gradientTransform="matrix(0.59136097,-0.15844727,-0.15844727,-0.59136097,103.35407,109.29989)" />
    <linearGradient
       x1="58"
       y1="19"
       x2="58"
       y2="120"
       id="linearGradient4091"
       xlink:href="#linearGradient4085"
       gradientUnits="userSpaceOnUse" />
    <clipPath
       clipPathUnits="userSpaceOnUse"
       id="clipPath28916">
      <rect
         width="84"
         height="84"
         rx="6"
         ry="6"
         x="6"
         y="6"
         id="rect28918"
         style="fill:#000000;fill-opacity:1;fill-rule:nonzero;stroke:none" />
    </clipPath>
    <linearGradient
       inkscape:collect="always"
       xlink:href="#linearGradient34840"
       id="linearGradient34842"
       x1="43.390457"
       y1="89.786324"
       x2="43.390457"
       y2="17.061884"
       gradientUnits="userSpaceOnUse" />
  </defs>
  <metadata
     id="metadata2413">
    <rdf:RDF>
      <cc:Work
         rdf:about="">
        <dc:format>image/svg+xml</dc:format>
        <dc:type
           rdf:resource="http://purl.org/dc/dcmitype/StillImage" />
      </cc:Work>
    </rdf:RDF>
  </metadata>
  <g
     id="layer2"
     style="display:none">
    <rect
       width="86"
       height="85"
       rx="6"
       ry="6"
       x="5"
       y="7"
       id="rect3745"
       style="opacity:0.9;fill:url(#ButtonShadow);fill-opacity:1;fill-rule:nonzero;stroke:none;filter:url(#filter3174)" />
  </g>
  <g
     id="layer3">
    <path
       d="m 12,-95.03125 c -5.5110903,0 -10.03125,4.52016 -10.03125,10.03125 l 0,71 c 0,5.5110902 4.5201598,10.03125 10.03125,10.03125 l 72,0 c 5.51109,0 10.03125,-4.5201597 10.03125,-10.03125 l 0,-71 c 0,-5.51109 -4.52016,-10.03125 -10.03125,-10.03125 l -72,0 z"
       transform="scale(1,-1)"
       id="path3786"
       style="opacity:0.07999998;fill:url(#linearGradient3026);fill-opacity:1;fill-rule:nonzero;stroke:none;display:inline" />
    <path
       d="m 12,-94.03125 c -4.971633,0 -9.03125,4.059617 -9.03125,9.03125 l 0,71 c 0,4.9716329 4.0596171,9.03125 9.03125,9.03125 l 72,0 c 4.971633,0 9.03125,-4.059617 9.03125,-9.03125 l 0,-71 c 0,-4.971633 -4.059617,-9.03125 -9.03125,-9.03125 l -72,0 z"
       transform="scale(1,-1)"
       id="path3778"
       style="opacity:0.1;fill:url(#linearGradient3780);fill-opacity:1;fill-rule:nonzero;stroke:none;display:inline" />
    <path
       d="m 12,-93 c -4.4091333,0 -8,3.590867 -8,8 l 0,71 c 0,4.4091333 3.5908667,8 8,8 l 72,0 c 4.409133,0 8,-3.5908667 8,-8 l 0,-71 c 0,-4.409133 -3.590867,-8 -8,-8 l -72,0 z"
       transform="scale(1,-1)"
       id="path3770"
       style="opacity:0.2;fill:url(#linearGradient3772);fill-opacity:1;fill-rule:nonzero;stroke:none;display:inline" />
    <rect
       width="86"
       height="85"
       rx="7"
       ry="7"
       x="5"
       y="-92"
       transform="scale(1,-1)"
       id="rect3723"
       style="opacity:0.3;fill:url(#linearGradient3725);fill-opacity:1;fill-rule:nonzero;stroke:none;display:inline" />
    <rect
       width="84"
       height="84"
       rx="6"
       ry="6"
       x="6"
       y="-91"
       transform="scale(1,-1)"
       id="rect3716"
       style="display:inline;opacity:0.45;fill:url(#linearGradient3721);fill-opacity:1;fill-rule:nonzero;stroke:none" />
  </g>
  <g
     id="layer1">
    <rect
       width="84"
       height="84"
       rx="6"
       ry="6"
       x="6"
       y="6"
       id="rect2419"
       style="fill:url(#linearGradient3617);fill-opacity:1;fill-rule:nonzero;stroke:none" />
    <path
       id="path847"
       clip-path="url(#clipPath28916)"
       style="display:inline;fill:url(#linearGradient34842);stroke-width:0.252148;fill-opacity:1"
       d="m 71.257812,17.035156 c -4.211084,2.676057 -7.749398,6.363152 -11.880859,9.201172 -3.119196,2.480823 -6.548062,4.897961 -10.748047,4.085938 -5.266267,1.007158 -8.98466,6.045638 -14.523437,6.267578 -3.237376,0.582855 -10.229607,0.130056 -9.541016,4.873047 1.278895,2.479541 3.33806,4.408626 5.308594,6.335937 -2.770461,3.73579 -3.863478,8.460165 -7.138672,11.84961 -3.139729,3.707216 -4.737993,8.412384 -7.632813,12.255859 -2.337319,2.160358 -5.364692,3.349311 -7.5957026,5.142578 -0.8259502,1.195732 -1.9896917,1.944517 -2.7636719,2.763672 1.1737198,3.163977 -1.0362668,7.370231 2.15625,10.066406 9.5931105,7.17671 28.6360955,10.562107 40.6269535,9.720703 2.460897,-0.640034 9.179925,0.769334 8.080078,-2.833984 -0.47932,-2.814901 1.132053,-5.674548 0.02148,-7.101563 0.727962,-3.939966 0.745736,-8.127733 3.005859,-11.626953 2.825445,-2.952184 3.491669,-6.921816 3.199219,-10.880859 -0.42985,-6.402327 1.892476,-12.693678 5.548828,-17.871094 2.186123,-4.129714 4.83684,-8.292077 9.101563,-10.525391 3.078979,-1.725173 4.694836,-9.561535 -0.253906,-9.326171 -2.072446,-1.568871 -2.307342,-0.374017 -3.597657,1.08789 0.945986,-3.409892 2.175083,-7.115203 0.408203,-10.560547 -0.457375,-1.014207 -0.775866,-2.315151 -1.78125,-2.923828 z m -20.386718,16.310547 -1.232422,1.710938 -0.949219,1.015625 -1.833984,0.40625 -1.669922,0.130859 c 0.04957,-0.07436 0.859375,-1.503906 0.859375,-1.503906 0,0 2.056795,-1.41211 2.089844,-1.41211 0.03305,0 2.736328,-0.347656 2.736328,-0.347656 z" />
    <path
       d="M 12,6 C 8.676,6 6,8.676 6,12 l 0,2 0,68 0,2 c 0,0.334721 0.04135,0.6507 0.09375,0.96875 0.0487,0.295596 0.09704,0.596915 0.1875,0.875 0.00988,0.03038 0.020892,0.0636 0.03125,0.09375 0.098865,0.287771 0.2348802,0.547452 0.375,0.8125 0.1445918,0.273507 0.3156161,0.535615 0.5,0.78125 0.1843839,0.245635 0.3737765,0.473472 0.59375,0.6875 0.439947,0.428056 0.94291,0.814526 1.5,1.09375 0.278545,0.139612 0.5734731,0.246947 0.875,0.34375 -0.2562018,-0.100222 -0.4867109,-0.236272 -0.71875,-0.375 -0.00741,-0.0044 -0.023866,0.0045 -0.03125,0 -0.031933,-0.0193 -0.062293,-0.04251 -0.09375,-0.0625 -0.120395,-0.0767 -0.2310226,-0.163513 -0.34375,-0.25 -0.1061728,-0.0808 -0.2132809,-0.161112 -0.3125,-0.25 C 8.4783201,88.557317 8.3087904,88.373362 8.15625,88.1875 8.0486711,88.057245 7.9378561,87.922215 7.84375,87.78125 7.818661,87.74287 7.805304,87.69538 7.78125,87.65625 7.716487,87.553218 7.6510225,87.451733 7.59375,87.34375 7.4927417,87.149044 7.3880752,86.928049 7.3125,86.71875 7.30454,86.69694 7.288911,86.6782 7.28125,86.65625 7.2494249,86.5643 7.2454455,86.469419 7.21875,86.375 7.1884177,86.268382 7.1483606,86.171969 7.125,86.0625 7.0521214,85.720988 7,85.364295 7,85 L 7,83 7,15 7,13 C 7,10.218152 9.2181517,8 12,8 l 2,0 68,0 2,0 c 2.781848,0 5,2.218152 5,5 l 0,2 0,68 0,2 c 0,0.364295 -0.05212,0.720988 -0.125,1.0625 -0.04415,0.206893 -0.08838,0.397658 -0.15625,0.59375 -0.0077,0.02195 -0.0233,0.04069 -0.03125,0.0625 -0.06274,0.173739 -0.138383,0.367449 -0.21875,0.53125 -0.04158,0.0828 -0.07904,0.169954 -0.125,0.25 -0.0546,0.09721 -0.126774,0.18835 -0.1875,0.28125 -0.09411,0.140965 -0.204921,0.275995 -0.3125,0.40625 -0.143174,0.17445 -0.303141,0.346998 -0.46875,0.5 -0.01117,0.0102 -0.01998,0.02115 -0.03125,0.03125 -0.138386,0.125556 -0.285091,0.234436 -0.4375,0.34375 -0.102571,0.07315 -0.204318,0.153364 -0.3125,0.21875 -0.0074,0.0045 -0.02384,-0.0044 -0.03125,0 -0.232039,0.138728 -0.462548,0.274778 -0.71875,0.375 0.301527,-0.0968 0.596455,-0.204138 0.875,-0.34375 0.55709,-0.279224 1.060053,-0.665694 1.5,-1.09375 0.219973,-0.214028 0.409366,-0.441865 0.59375,-0.6875 0.184384,-0.245635 0.355408,-0.507743 0.5,-0.78125 0.14012,-0.265048 0.276135,-0.524729 0.375,-0.8125 0.01041,-0.03078 0.02133,-0.06274 0.03125,-0.09375 0.09046,-0.278085 0.1388,-0.579404 0.1875,-0.875 C 89.95865,84.6507 90,84.334721 90,84 l 0,-2 0,-68 0,-2 C 90,8.676 87.324,6 84,6 L 12,6 z"
       inkscape:connector-curvature="0"
       id="rect3728"
       style="opacity:0.35;fill:url(#linearGradient3188);fill-opacity:1;fill-rule:nonzero;stroke:none" />
    <path
       d="M 12,90 C 8.676,90 6,87.324 6,84 V 82 14 12 c 0,-0.334721 0.04135,-0.6507 0.09375,-0.96875 0.0487,-0.295596 0.09704,-0.596915 0.1875,-0.875 C 6.29113,10.12587 6.302142,10.09265 6.3125,10.0625 6.411365,9.774729 6.5473802,9.515048 6.6875,9.25 6.8320918,8.976493 7.0031161,8.714385 7.1875,8.46875 7.3718839,8.223115 7.5612765,7.995278 7.78125,7.78125 8.221197,7.353194 8.72416,6.966724 9.28125,6.6875 9.559795,6.547888 9.8547231,6.440553 10.15625,6.34375 9.9000482,6.443972 9.6695391,6.580022 9.4375,6.71875 c -0.00741,0.0044 -0.023866,-0.0045 -0.03125,0 -0.031933,0.0193 -0.062293,0.04251 -0.09375,0.0625 -0.120395,0.0767 -0.2310226,0.163513 -0.34375,0.25 -0.1061728,0.0808 -0.2132809,0.161112 -0.3125,0.25 C 8.4783201,7.442683 8.3087904,7.626638 8.15625,7.8125 8.0486711,7.942755 7.9378561,8.077785 7.84375,8.21875 7.818661,8.25713 7.805304,8.30462 7.78125,8.34375 7.716487,8.446782 7.6510225,8.548267 7.59375,8.65625 7.4927417,8.850956 7.3880752,9.071951 7.3125,9.28125 7.30454,9.30306 7.288911,9.3218 7.28125,9.34375 7.2494249,9.4357 7.2454455,9.530581 7.21875,9.625 7.1884177,9.731618 7.1483606,9.828031 7.125,9.9375 7.0521214,10.279012 7,10.635705 7,11 v 2 68 2 c 0,2.781848 2.2181517,5 5,5 h 2 68 2 c 2.781848,0 5,-2.218152 5,-5 V 81 13 11 C 89,10.635705 88.94788,10.279012 88.875,9.9375 88.83085,9.730607 88.78662,9.539842 88.71875,9.34375 88.71105,9.3218 88.69545,9.30306 88.6875,9.28125 88.62476,9.107511 88.549117,8.913801 88.46875,8.75 88.42717,8.6672 88.38971,8.580046 88.34375,8.5 88.28915,8.40279 88.216976,8.31165 88.15625,8.21875 88.06214,8.077785 87.951329,7.942755 87.84375,7.8125 87.700576,7.63805 87.540609,7.465502 87.375,7.3125 87.36383,7.3023 87.35502,7.29135 87.34375,7.28125 87.205364,7.155694 87.058659,7.046814 86.90625,6.9375 86.803679,6.86435 86.701932,6.784136 86.59375,6.71875 c -0.0074,-0.0045 -0.02384,0.0044 -0.03125,0 -0.232039,-0.138728 -0.462548,-0.274778 -0.71875,-0.375 0.301527,0.0968 0.596455,0.204138 0.875,0.34375 0.55709,0.279224 1.060053,0.665694 1.5,1.09375 0.219973,0.214028 0.409366,0.441865 0.59375,0.6875 0.184384,0.245635 0.355408,0.507743 0.5,0.78125 0.14012,0.265048 0.276135,0.524729 0.375,0.8125 0.01041,0.03078 0.02133,0.06274 0.03125,0.09375 0.09046,0.278085 0.1388,0.579404 0.1875,0.875 C 89.95865,11.3493 90,11.665279 90,12 v 2 68 2 c 0,3.324 -2.676,6 -6,6 z"
       inkscape:connector-curvature="0"
       id="path3615"
       style="display:inline;opacity:0.2;fill:url(#radialGradient3619);fill-opacity:1;fill-rule:nonzero;stroke:none" />
    <path
       id="path32635"
       clip-path="url(#clipPath28916)"
       style="display:inline;opacity:0.2;fill:#000000;fill-opacity:1;stroke-width:0.252148"
       d="m 71.257195,17.035359 c -4.21108,2.676054 -7.749402,6.363155 -11.880859,9.201172 -3.119193,2.48082 -6.548066,4.897959 -10.748047,4.085937 -5.266262,1.007157 -8.984666,6.045639 -14.523438,6.267578 -3.237372,0.582855 -10.229605,0.130061 -9.541015,4.873047 0.0317,0.06146 0.06892,0.118901 0.101562,0.179688 -0.0034,-4.078909 6.484395,-3.703828 9.572266,-4.259766 5.538771,-0.22194 9.257176,-5.260421 14.523437,-6.267578 4.199981,0.812022 7.628854,-1.605117 10.748047,-4.085938 4.131457,-2.838017 7.66978,-6.525117 11.88086,-9.201171 1.005383,0.608676 1.323875,1.909622 1.78125,2.923828 0.323133,0.630097 0.544718,1.268019 0.6875,1.912109 -0.113527,-0.912857 -0.365004,-1.817244 -0.820313,-2.705078 -0.457374,-1.014206 -0.775867,-2.315152 -1.78125,-2.923828 z m 3.261719,11.666015 c -0.510478,0.07085 -0.886137,0.560336 -1.361328,1.167969 -0.133266,0.482506 -0.263411,0.970726 -0.394531,1.44336 1.290313,-1.461906 1.525212,-2.65676 3.597656,-1.087891 1.751156,-0.08329 2.666791,0.852402 3,2.162109 -0.133253,-1.710379 -1.043866,-3.054429 -3.132813,-2.955078 -0.777166,-0.588326 -1.296069,-0.787779 -1.708984,-0.730469 z m -23.761,5.086964 c 0,0 -0.463593,0.05765 -0.775391,0.09766 l -0.589843,0.820312 -0.949219,1.015625 -1.833985,0.40625 -1.05664,0.08203 c -0.228739,0.402365 -0.452731,0.800187 -0.480469,0.841797 l 1.669922,-0.130859 1.833984,-0.40625 0.949219,-1.015625 z M 29.604851,48.199421 c -2.566712,3.669782 -3.70939,8.177224 -6.871093,11.449219 -3.139726,3.707212 -4.737996,8.412388 -7.632813,12.255859 -2.337316,2.160356 -5.3646945,3.349313 -7.5957029,5.142579 -0.8259494,1.19573 -1.9896924,1.944517 -2.7636719,2.763671 0.087331,0.235417 0.1515934,0.478704 0.2050782,0.72461 0.7729627,-0.792706 1.8886512,-1.53316 2.6914062,-2.695313 2.2310084,-1.793265 5.2583864,-2.982222 7.5957034,-5.142578 2.894817,-3.843471 4.493086,-8.548647 7.632812,-12.255859 3.275191,-3.389442 4.368214,-8.113823 7.138672,-11.84961 -0.133074,-0.130155 -0.266775,-0.262237 -0.400391,-0.392578 z M 5.050164,81.189656 C 5.2757108,83.102017 4.8356508,85.225921 5.2552421,87.119343 5.0469136,85.164782 5.4986508,83.036838 5.050164,81.189656 Z m 50.777344,8.818359 c -0.02542,0.14815 -0.04111,0.299762 -0.06836,0.447266 0.118308,0.152018 0.201326,0.32311 0.263672,0.505859 -0.01028,-0.351922 -0.06962,-0.672015 -0.195312,-0.953125 z"
       transform="translate(6.18e-4,-2.05e-4)"
       sodipodi:nodetypes="ccccccccccccccscccccsccccccccccccccccccccccccccccc" />
    <path
       id="path32640"
       clip-path="url(#clipPath28916)"
       style="display:inline;opacity:0.4;fill:#000000;fill-opacity:1;stroke-width:0.252148"
       d="m 71.257812,17.035156 c -4.211079,2.676055 -7.749402,6.363155 -11.880859,9.201172 -3.119193,2.480821 -6.548066,4.89796 -10.748047,4.085938 -5.266261,1.007157 -8.984666,6.045638 -14.523437,6.267578 -3.237373,0.582854 -10.229606,0.13006 -9.541016,4.873047 0.07354,0.142589 0.157788,0.276962 0.236328,0.416015 0.30524,-3.765263 6.558959,-3.416822 9.570313,-3.958984 5.538771,-0.22194 9.257176,-5.260421 14.523437,-6.267578 4.199981,0.812022 7.628854,-1.605117 10.748047,-4.085938 4.131457,-2.838017 7.66978,-6.525117 11.88086,-9.201172 1.005382,0.608677 1.323875,1.909623 1.78125,2.923828 0.239495,0.467007 0.419069,0.938887 0.55664,1.414063 -0.111152,-0.925437 -0.360787,-1.844276 -0.822266,-2.744141 -0.457374,-1.014206 -0.775867,-2.315151 -1.78125,-2.923828 z m 3.261719,11.666016 c -0.360719,0.05007 -0.642487,0.307573 -0.943359,0.662109 -0.213514,0.840287 -0.453819,1.672165 -0.679688,2.486328 1.290314,-1.461905 1.525213,-2.65676 3.597657,-1.08789 1.558066,-0.0741 2.46306,0.652842 2.878906,1.736328 -0.100862,-1.76446 -1.009393,-3.167954 -3.144531,-3.066406 -0.777167,-0.588326 -1.29607,-0.78778 -1.708985,-0.730469 z m -23.686609,5.437121 c 0,0 -0.678127,0.08628 -1.347657,0.171875 l -0.15039,0.208985 -0.949219,1.015625 -1.833984,0.40625 -0.595703,0.04687 c -0.08551,0.1509 -0.761978,1.344133 -0.808594,1.414062 l 1.669922,-0.130859 1.833984,-0.40625 0.949219,-1.015625 z M 29.439453,48.443359 C 26.989311,52.067897 25.826618,56.448326 22.734375,59.648438 19.594649,63.35565 17.99638,68.060826 15.101562,71.904297 12.764246,74.064653 9.7368677,75.25361 7.5058594,77.046875 6.67991,78.242606 5.5161669,78.991393 4.7421875,79.810547 4.896181,80.225665 4.9875777,80.660232 5.0449219,81.105469 5.8186688,80.300053 6.9574732,79.555401 7.7714844,78.376953 10.002493,76.583688 13.029871,75.394731 15.367188,73.234375 18.262005,69.390904 19.860274,64.685728 23,60.978516 c 3.275191,-3.389442 4.368214,-8.113823 7.138672,-11.84961 -0.232386,-0.227289 -0.465793,-0.457308 -0.699219,-0.685547 z M 5.0585938,81.308594 C 5.270806,83.363622 4.7534657,85.650834 5.3847656,87.626953 5.168471,85.530454 5.6975682,83.239107 5.0585938,81.308594 Z M 55.962891,90.53125 c -0.02614,0.15269 -0.04223,0.308931 -0.07031,0.460938 0.04796,0.06163 0.0829,0.130412 0.121094,0.197265 0.0047,-0.233646 -0.01586,-0.451254 -0.05078,-0.658203 z"
       sodipodi:nodetypes="ccccccccccccccscccccscccccccccccccccccccccccccsccss" />
    <path
       id="path32648"
       clip-path="url(#clipPath28916)"
       style="display:inline;opacity:0.1;fill:#000000;fill-opacity:1;stroke-width:0.252148"
       d="m 71.257812,17.035156 c -4.211079,2.676055 -7.749402,6.363155 -11.880859,9.201172 -3.119193,2.480821 -6.548066,4.89796 -10.748047,4.085938 -5.266261,1.007157 -8.984666,6.045638 -14.523437,6.267578 -3.237373,0.582854 -10.229606,0.13006 -9.541016,4.873047 0.142248,0.275793 0.296672,0.541759 0.457031,0.804687 0.445934,-3.61842 6.572869,-3.290734 9.546875,-3.826172 5.538772,-0.22194 9.257176,-5.260421 14.523438,-6.267578 4.199981,0.812022 7.628854,-1.605117 10.748047,-4.085937 4.131457,-2.838018 7.669779,-6.525118 11.880859,-9.201172 1.005383,0.608676 1.323876,1.909622 1.78125,2.923828 0.137447,0.268016 0.250785,0.537692 0.353516,0.808594 -0.116395,-0.897031 -0.36886,-1.787459 -0.816407,-2.660157 -0.457374,-1.014206 -0.775867,-2.315151 -1.78125,-2.923828 z m 3.261719,11.666016 c -0.197231,0.02737 -0.367645,0.129472 -0.533203,0.259766 -0.25492,1.154642 -0.584326,2.299032 -0.892578,3.410156 1.290314,-1.461906 1.525212,-2.65676 3.597656,-1.087891 1.363877,-0.06487 2.214071,0.49495 2.6875,1.359375 -0.05839,-1.832115 -0.956987,-3.315256 -3.15039,-3.210937 -0.777167,-0.588326 -1.29607,-0.78778 -1.708985,-0.730469 z m -23.60619,5.63144 c 0,0 -1.305413,0.166896 -2.072265,0.263672 l -0.572266,0.611328 -1.296875,0.287109 c -0.427614,0.291861 -0.884766,0.597656 -0.884766,0.597656 0,0 -0.809805,1.429547 -0.859374,1.503907 l 1.669921,-0.13086 1.833985,-0.40625 0.949218,-1.015625 z M 29.308594,48.640625 C 26.947729,52.226298 25.770867,56.506021 22.734375,59.648438 19.594649,63.35565 17.99638,68.060826 15.101562,71.904297 12.764246,74.064653 9.7368677,75.25361 7.5058594,77.046875 6.67991,78.242606 5.5161669,78.991393 4.7421875,79.810547 5.6859543,82.354643 4.4479174,85.571772 5.5839844,88.136719 5.3641598,85.98252 5.9325871,83.623243 5.2050781,81.662109 5.9790576,80.842955 7.1428006,80.094168 7.96875,78.898438 10.199758,77.105172 13.227136,75.916215 15.564453,73.755859 18.45927,69.912388 20.05754,65.207212 23.197266,61.5 c 3.27519,-3.389442 4.368213,-8.113823 7.138672,-11.849609 -0.341861,-0.334362 -0.684686,-0.672432 -1.027344,-1.009766 z"
       sodipodi:nodetypes="ccccccccccccccscccccscccccccccccccccccccccc" />
    <path
       id="path34831"
       clip-path="url(#clipPath28916)"
       style="display:inline;fill:#ffffff;stroke-width:0.252148;opacity:0.3"
       d="m 71.443359,17.173828 c 0.433166,0.643673 0.692397,1.442905 1,2.125 1.766879,3.445341 0.537782,7.150658 -0.408203,10.560547 0.482562,-0.546735 0.819551,-1.05505 1.158203,-1.396484 0.746239,-2.812667 1.263608,-5.739051 -0.154297,-8.503907 -0.426748,-0.946294 -0.740015,-2.134831 -1.595703,-2.785156 z m 6.802735,12.814453 c 1.385122,2.224539 -0.08288,6.833839 -2.359375,8.109375 -4.264719,2.233312 -6.915442,6.395681 -9.101563,10.525391 -3.656348,5.177411 -5.978677,11.468773 -5.548828,17.871094 0.29245,3.959039 -0.373776,7.928678 -3.199219,10.880859 -2.26012,3.499217 -2.277898,7.686991 -3.005859,11.626953 1.110572,1.427014 -0.500804,4.286664 -0.02148,7.101563 1.099846,3.603314 -5.619184,2.193951 -8.080078,2.833984 -11.990847,0.841403 -31.033853,-2.544 -40.6269536,-9.720703 -0.067984,-0.05741 -0.1204251,-0.118976 -0.1835938,-0.177735 0.2175172,0.291198 0.4660636,0.573356 0.7792969,0.837891 9.5931005,7.176703 28.6361075,10.562107 40.6269535,9.720703 2.460894,-0.640033 9.179924,0.769334 8.080078,-2.833984 -0.47932,-2.814898 1.132056,-5.674549 0.02148,-7.101563 0.727961,-3.939962 0.745739,-8.127736 3.005859,-11.626953 2.825443,-2.952181 3.491669,-6.92182 3.199219,-10.880859 -0.429849,-6.402321 1.89248,-12.693683 5.548828,-17.871094 2.186121,-4.12971 4.836844,-8.292079 9.101563,-10.525391 2.538081,-1.422104 4.071558,-6.986587 1.763672,-8.769531 z m -27.970703,2.697266 c 0,0 -2.703279,0.347656 -2.736329,0.347656 -0.03305,0 -2.089843,1.412109 -2.089843,1.412109 0,0 -0.809805,1.429547 -0.859375,1.503907 l 1.017578,-0.08008 c 0.212184,-0.372844 0.4375,-0.763672 0.4375,-0.763672 0,0 2.056795,-1.41211 2.089844,-1.41211 0.0188,0 0.79884,-0.100258 1.55664,-0.197265 z M 26.667969,44.496094 c 0.808213,0.940895 1.692199,1.820144 2.580078,2.6875 0.01065,-0.01446 0.0186,-0.03049 0.0293,-0.04492 -0.881106,-0.861779 -1.770508,-1.731038 -2.609375,-2.642578 z"
       transform="translate(0.52878091,0.66097613)" />
  </g>
  <g
     id="layer5"
     style="display:none">
    <rect
       width="66"
       height="66"
       rx="12"
       ry="12"
       x="15"
       y="15"
       clip-path="url(#clipPath3613)"
       id="rect3171"
       style="display:inline;opacity:0.1;fill:url(#linearGradient3613);fill-opacity:1;fill-rule:nonzero;stroke:#ffffff;stroke-width:0.5;stroke-linecap:round;stroke-linejoin:miter;stroke-miterlimit:4;stroke-dasharray:none;stroke-dashoffset:0;stroke-opacity:1;filter:url(#filter3794)" />
  </g>
  <g
     id="layer4"
     style="display:none">
    <path
       d="m 75.463619,59.577234 c -0.1751,-0.236936 -0.45245,-0.569994 -0.76469,-0.890194 -3.24854,-3.333638 -5.674837,-7.269718 -6.981966,-11.629467 -0.06,-0.202651 -0.119999,-0.405302 -0.173876,-0.608565 -0.05633,-0.204487 -0.105305,-0.413261 -0.155508,-0.620809 -1.046315,-4.426483 -0.918358,-9.050719 0.233263,-13.559854 0,0 0.175712,-0.744482 0.221018,-1.051213 0.967948,-5.69749 -2.539565,-11.298246 -8.23032,-12.823944 -5.802182,-1.554473 -11.748853,1.698962 -13.646179,7.310738 -0.07837,0.209385 -0.238161,0.738359 -0.239998,0.746318 -1.247129,4.420361 -3.41384,8.433583 -6.475032,11.718854 -3.477513,3.650164 -7.898486,6.245442 -12.855167,7.573387 -6.037895,1.617534 -9.624999,7.834814 -8.006853,13.875157 1.620595,6.039118 7.828079,9.626223 13.870259,8.00624 4.508523,-1.151008 9.132758,-1.281415 13.561078,-0.235712 0.206324,0.05143 0.413873,0.102244 0.619585,0.157958 0.206325,0.0551 0.410812,0.115101 0.6153,0.173263 4.357912,1.308354 8.298278,3.732814 11.627017,6.983194 0.408975,0.40959 0.762237,0.69795 1.092233,0.93121 4.47485,3.41017 10.842126,3.14874 14.922086,-0.93121 4.14118,-4.13873 4.38118,-10.678052 0.76775,-15.125351 z m -27.437464,2.046713 c -5.911161,-1.583861 -9.420511,-7.662163 -7.83665,-13.573323 1.585085,-5.911773 7.662162,-9.421123 13.573323,-7.837263 5.913609,1.585085 9.421735,7.66155 7.837262,13.573323 -1.584473,5.911773 -7.660325,9.421736 -13.573935,7.837263 z"
       inkscape:connector-curvature="0"
       id="path3860"
       style="display:inline;fill:url(#linearGradient4018);fill-opacity:1" />
    <path
       d="m 153.20187,87.015227 v 0.359 h -0.695 v 1.815 h -0.432 v -1.815 h -0.695 v -0.359 z m 2.351,2.175 -0.08,-1.279 c -0.008,-0.168 -0.008,-0.376 -0.017,-0.608 h -0.024 c -0.055,0.192 -0.119,0.448 -0.184,0.648 l -0.392,1.207 h -0.448 l -0.391,-1.239 c -0.041,-0.168 -0.104,-0.424 -0.152,-0.616 h -0.023 c 0,0.2 -0.009,0.408 -0.017,0.608 l -0.08,1.279 h -0.415 l 0.159,-2.175 h 0.647 l 0.376,1.063 c 0.048,0.167 0.088,0.327 0.144,0.552 h 0.008 c 0.057,-0.2 0.104,-0.385 0.152,-0.544 l 0.376,-1.071 h 0.624 l 0.168,2.175 z"
       inkscape:connector-curvature="0"
       id="path3903"
       style="display:inline;opacity:0.5" />
    <path
       d="m 56.375,17 c -4.638502,0.13193 -8.864673,3.159182 -10.40625,7.71875 -0.07837,0.209385 -0.248163,0.710791 -0.25,0.71875 -1.247129,4.420361 -3.407558,8.433479 -6.46875,11.71875 -3.477513,3.650164 -7.887069,6.265805 -12.84375,7.59375 -5.157466,1.38167 -8.510544,6.101872 -8.375,11.21875 0.295987,-4.722895 3.555754,-8.927688 8.375,-10.21875 4.956681,-1.327945 9.366237,-3.943586 12.84375,-7.59375 3.061192,-3.285271 5.221621,-7.298389 6.46875,-11.71875 0.0018,-0.008 0.17163,-0.509365 0.25,-0.71875 1.897326,-5.611776 7.854068,-8.866973 13.65625,-7.3125 4.871375,1.306021 8.10978,5.592307 8.34375,10.375 C 68.177129,23.606427 64.83466,18.802966 59.625,17.40625 58.537091,17.114786 57.445424,16.969555 56.375,17 Z m 10.3125,22.78125 c 0.0099,2.039246 0.217627,4.074681 0.6875,6.0625 0.0502,0.207548 0.09992,0.389263 0.15625,0.59375 0.05388,0.203263 0.1275,0.422349 0.1875,0.625 1.307129,4.359749 3.72021,8.291362 6.96875,11.625 0.31224,0.3202 0.60615,0.638064 0.78125,0.875 1.580876,1.945693 2.429514,4.317167 2.53125,6.6875 0.125969,-2.708084 -0.724535,-5.46385 -2.53125,-7.6875 -0.1751,-0.236936 -0.46901,-0.5548 -0.78125,-0.875 -3.24854,-3.333638 -5.661621,-7.265251 -6.96875,-11.625 -0.06,-0.202651 -0.133623,-0.421737 -0.1875,-0.625 -0.05633,-0.204487 -0.106047,-0.386202 -0.15625,-0.59375 -0.392368,-1.659931 -0.617454,-3.363449 -0.6875,-5.0625 z M 61.96875,50.5625 c -0.04416,0.735024 -0.176941,1.479778 -0.375,2.21875 -1.584473,5.911773 -7.64889,9.428223 -13.5625,7.84375 -4.71561,-1.26352 -7.895301,-5.382577 -8.1875,-10 -0.142785,5.014198 3.131252,9.645208 8.1875,11 5.91361,1.584473 11.978027,-1.931977 13.5625,-7.84375 0.2886,-1.076787 0.408066,-2.159171 0.375,-3.21875 z"
       inkscape:connector-curvature="0"
       id="path4060"
       style="display:inline;opacity:0.3;fill:#000000;fill-opacity:1" />
    <path
       d="m 67.96875,29.78125 c -0.01924,0.477878 -0.04317,0.955836 -0.125,1.4375 -0.04531,0.306731 -0.21875,1.0625 -0.21875,1.0625 -0.661116,2.588577 -0.979598,5.207247 -0.9375,7.8125 0.04515,-2.273011 0.36169,-4.557932 0.9375,-6.8125 0,0 0.173444,-0.755769 0.21875,-1.0625 0.139369,-0.82035 0.164354,-1.633036 0.125,-2.4375 z M 50.4375,39.84375 c -4.72032,0.18809 -8.962118,3.415434 -10.25,8.21875 -0.320341,1.195551 -0.417831,2.391842 -0.34375,3.5625 0.02414,-0.847803 0.114681,-1.707588 0.34375,-2.5625 1.585085,-5.911773 7.651339,-9.42761 13.5625,-7.84375 4.804807,1.287882 8.031239,5.529503 8.21875,10.25 0.262999,-5.109665 -3.076022,-9.871542 -8.21875,-11.25 -1.108343,-0.296974 -2.223195,-0.418405 -3.3125,-0.375 z m -32.40625,17.125 c -0.07485,1.194285 0.01715,2.437107 0.34375,3.65625 1.620595,6.039118 7.83282,9.619983 13.875,8 4.508523,-1.151008 9.13418,-1.295703 13.5625,-0.25 0.206324,0.05143 0.419288,0.100536 0.625,0.15625 0.206325,0.0551 0.420512,0.129338 0.625,0.1875 4.357912,1.308354 8.296261,3.71837 11.625,6.96875 0.408975,0.40959 0.763754,0.70424 1.09375,0.9375 4.47485,3.41017 10.82629,3.14245 14.90625,-0.9375 2.329414,-2.328036 3.443303,-5.389929 3.3125,-8.4375 -0.125969,2.708084 -1.24191,5.368135 -3.3125,7.4375 -4.07996,4.07995 -10.4314,4.34767 -14.90625,0.9375 -0.329996,-0.23326 -0.684775,-0.52791 -1.09375,-0.9375 -3.328739,-3.25038 -7.267088,-5.660396 -11.625,-6.96875 -0.204488,-0.05816 -0.418675,-0.1324 -0.625,-0.1875 -0.205712,-0.05571 -0.418676,-0.10482 -0.625,-0.15625 -4.42832,-1.045703 -9.053977,-0.901008 -13.5625,0.25 -6.04218,1.619983 -12.254405,-1.960882 -13.875,-8 -0.235954,-0.880786 -0.320611,-1.782749 -0.34375,-2.65625 z"
       inkscape:connector-curvature="0"
       id="path4069"
       style="display:inline;opacity:0.4;fill:url(#linearGradient4071);fill-opacity:1" />
    <path
       d="m 56.375,18 c -4.638502,0.13193 -8.864673,3.159182 -10.40625,7.71875 -0.07837,0.209385 -0.248163,0.710791 -0.25,0.71875 -1.247129,4.420361 -3.407558,8.433479 -6.46875,11.71875 -3.477513,3.650164 -7.887069,6.265805 -12.84375,7.59375 -6.037895,1.617534 -9.649396,7.834657 -8.03125,13.875 1.620595,6.039118 7.83282,9.619983 13.875,8 4.508523,-1.151008 9.13418,-1.295703 13.5625,-0.25 0.206324,0.05143 0.419288,0.100536 0.625,0.15625 0.206325,0.0551 0.420512,0.129338 0.625,0.1875 4.357912,1.308354 8.296261,3.71837 11.625,6.96875 0.408975,0.40959 0.763754,0.70424 1.09375,0.9375 4.47485,3.41017 10.82629,3.14245 14.90625,-0.9375 4.14118,-4.13873 4.39468,-10.677701 0.78125,-15.125 -0.1751,-0.236936 -0.46901,-0.5548 -0.78125,-0.875 -3.24854,-3.333638 -5.661621,-7.265251 -6.96875,-11.625 -0.06,-0.202651 -0.133623,-0.421737 -0.1875,-0.625 -0.05633,-0.204487 -0.106047,-0.386202 -0.15625,-0.59375 -1.046315,-4.426483 -0.901621,-9.053365 0.25,-13.5625 0,0 0.173444,-0.755769 0.21875,-1.0625 C 68.811698,25.52126 65.315755,19.931948 59.625,18.40625 58.537091,18.114786 57.445424,17.969555 56.375,18 Z m 0.03125,1.0625 c 0.966465,-0.02631 1.9431,0.07734 2.9375,0.34375 5.186023,1.390379 8.380917,6.439789 7.5,11.625 A 1.0278728,1.0278728 0 0 0 66.8125,31.0625 c -0.02479,0.167828 -0.177359,0.922615 -0.1875,0.96875 -3.16e-4,0.0014 0,0.03125 0,0.03125 -1.181134,4.642945 -1.335704,9.438128 -0.25,14.03125 0.05187,0.214428 0.10259,0.398809 0.15625,0.59375 0.0029,0.01103 -0.003,0.02031 0,0.03125 0.06431,0.237483 0.137529,0.456223 0.1875,0.625 1.358244,4.530237 3.865866,8.621785 7.21875,12.0625 0.299948,0.307594 0.609238,0.633064 0.71875,0.78125 a 1.0278728,1.0278728 0 0 0 0,0.03125 c 3.287681,4.046376 3.085662,9.97907 -0.6875,13.75 -3.718739,3.718729 -9.48118,3.95402 -13.5625,0.84375 A 1.0278728,1.0278728 0 0 0 60.375,74.78125 c -0.280394,-0.198198 -0.595626,-0.438815 -0.96875,-0.8125 a 1.0278728,1.0278728 0 0 0 0,-0.03125 C 55.969279,70.581436 51.871241,68.109266 47.34375,66.75 a 1.0278728,1.0278728 0 0 0 0,-0.03125 c -0.157526,-0.0448 -0.382246,-0.121228 -0.625,-0.1875 -0.01118,-0.0031 -0.01992,0.003 -0.03125,0 C 46.467593,66.472443 46.247998,66.421239 46.0625,66.375 41.457745,65.287634 36.651771,65.437421 32,66.625 a 1.0278728,1.0278728 0 0 0 -0.03125,0 C 26.46268,68.101245 20.851549,64.846085 19.375,59.34375 17.901377,53.842894 21.186507,48.2237 26.6875,46.75 31.822867,45.374183 36.392329,42.661784 40,38.875 a 1.0278728,1.0278728 0 0 0 0,-0.03125 c 3.181357,-3.414232 5.431536,-7.56256 6.71875,-12.125 a 1.0278728,1.0278728 0 0 0 0,-0.0625 c 9.18e-4,-0.004 0.01121,-0.0072 0.0625,-0.15625 0.05129,-0.149085 0.126058,-0.325585 0.15625,-0.40625 a 1.0278728,1.0278728 0 0 0 0,-0.03125 c 1.295105,-3.830571 4.677893,-6.463248 8.5,-6.9375 0.31748,-0.03939 0.646595,-0.05373 0.96875,-0.0625 z m -6,19.75 c -0.398744,0.01454 -0.797335,0.03939 -1.1875,0.09375 -4.678291,0.651803 -8.734476,4.03852 -10.03125,8.875 -1.727793,6.448332 2.115935,13.116431 8.5625,14.84375 6.450472,1.728318 13.115894,-2.115757 14.84375,-8.5625 1.72837,-6.448664 -2.113923,-13.115272 -8.5625,-14.84375 -1.2056,-0.323033 -2.428767,-0.449885 -3.625,-0.40625 z m 0.03125,1.03125 c 1.089305,-0.0434 2.204157,0.07803 3.3125,0.375 5.913609,1.585085 9.428223,7.650727 7.84375,13.5625 -1.584473,5.911773 -7.64889,9.428223 -13.5625,7.84375 -5.911161,-1.583861 -9.427611,-7.65134 -7.84375,-13.5625 1.287882,-4.803316 5.52968,-8.03066 10.25,-8.21875 z"
       inkscape:connector-curvature="0"
       id="path4078"
       style="display:inline;opacity:0.25;fill:url(#linearGradient4091);fill-opacity:1" />
  </g>
</svg>
