<?xml version="1.0" encoding="UTF-8" standalone="no"?>
<!-- Created with Inkscape (http://www.inkscape.org/) -->

<svg
   version="1.0"
   width="96"
   height="96"
   id="svg2408"
   style="display:inline"
   sodipodi:docname="text-x-java.svg"
   inkscape:version="1.2.2 (b0a8486541, 2022-12-01)"
   xmlns:inkscape="http://www.inkscape.org/namespaces/inkscape"
   xmlns:sodipodi="http://sodipodi.sourceforge.net/DTD/sodipodi-0.dtd"
   xmlns:xlink="http://www.w3.org/1999/xlink"
   xmlns="http://www.w3.org/2000/svg"
   xmlns:svg="http://www.w3.org/2000/svg"
   xmlns:rdf="http://www.w3.org/1999/02/22-rdf-syntax-ns#"
   xmlns:cc="http://creativecommons.org/ns#"
   xmlns:dc="http://purl.org/dc/elements/1.1/">
  <sodipodi:namedview
     id="namedview68"
     pagecolor="#ffffff"
     bordercolor="#000000"
     borderopacity="0.25"
     inkscape:showpageshadow="2"
     inkscape:pageopacity="0.0"
     inkscape:pagecheckerboard="0"
     inkscape:deskcolor="#d1d1d1"
     showgrid="false"
     inkscape:zoom="2.3098958"
     inkscape:cx="-117.97069"
     inkscape:cy="25.975197"
     inkscape:current-layer="svg2408" />
  <defs
     id="defs2410">
    <linearGradient
       id="linearGradient3763">
      <stop
         id="stop3765"
         style="stop-color:#ff7700;stop-opacity:1"
         offset="0" />
      <stop
         id="stop3767"
         style="stop-color:#ffb15d;stop-opacity:1"
         offset="1" />
    </linearGradient>
    <linearGradient
       x1="45.447727"
       y1="92.539597"
       x2="45.447727"
       y2="7.0165396"
       id="ButtonShadow"
       gradientUnits="userSpaceOnUse"
       gradientTransform="scale(1.0058652,0.994169)">
      <stop
         id="stop3750"
         style="stop-color:#000000;stop-opacity:1"
         offset="0" />
      <stop
         id="stop3752"
         style="stop-color:#000000;stop-opacity:0.58823532"
         offset="1" />
    </linearGradient>
    <linearGradient
       id="linearGradient3700">
      <stop
         id="stop3702"
         style="stop-color:#e6e6e6;stop-opacity:1"
         offset="0" />
      <stop
         id="stop3704"
         style="stop-color:#f5f5f5;stop-opacity:1"
         offset="1" />
    </linearGradient>
    <linearGradient
       x1="48"
       y1="90"
       x2="48"
       y2="5.9877172"
       id="linearGradient3706"
       xlink:href="#linearGradient3700"
       gradientUnits="userSpaceOnUse" />
    <filter
       color-interpolation-filters="sRGB"
       id="filter3174"
       x="-0.047720931"
       y="-0.048282354"
       width="1.0954419"
       height="1.0965647">
      <feGaussianBlur
         id="feGaussianBlur3176"
         stdDeviation="1.71" />
    </filter>
    <linearGradient
       x1="45.447727"
       y1="92.539597"
       x2="45.447727"
       y2="7.0165396"
       id="ButtonShadow-0"
       gradientUnits="userSpaceOnUse"
       gradientTransform="matrix(1.0058652,0,0,0.994169,100,0)">
      <stop
         id="stop3750-8"
         style="stop-color:#000000;stop-opacity:1"
         offset="0" />
      <stop
         id="stop3752-5"
         style="stop-color:#000000;stop-opacity:0.58823532"
         offset="1" />
    </linearGradient>
    <linearGradient
       x1="32.251034"
       y1="6.1317081"
       x2="32.251034"
       y2="90.238609"
       id="linearGradient3780"
       xlink:href="#ButtonShadow-0"
       gradientUnits="userSpaceOnUse"
       gradientTransform="matrix(1.0238095,0,0,1.0119048,-1.1428571,-98.071429)" />
    <linearGradient
       x1="32.251034"
       y1="6.1317081"
       x2="32.251034"
       y2="90.238609"
       id="linearGradient3772"
       xlink:href="#ButtonShadow-0"
       gradientUnits="userSpaceOnUse"
       gradientTransform="matrix(1.0238095,0,0,1.0119048,-1.1428571,-98.071429)" />
    <linearGradient
       x1="32.251034"
       y1="6.1317081"
       x2="32.251034"
       y2="90.238609"
       id="linearGradient3725"
       xlink:href="#ButtonShadow-0"
       gradientUnits="userSpaceOnUse"
       gradientTransform="matrix(1.0238095,0,0,1.0119048,-1.1428571,-98.071429)" />
    <linearGradient
       x1="32.251034"
       y1="6.1317081"
       x2="32.251034"
       y2="90.238609"
       id="linearGradient3721"
       xlink:href="#ButtonShadow-0"
       gradientUnits="userSpaceOnUse"
       gradientTransform="translate(0,-97)" />
    <linearGradient
       x1="32.251034"
       y1="6.1317081"
       x2="32.251034"
       y2="90.238609"
       id="linearGradient3760"
       xlink:href="#ButtonShadow-0"
       gradientUnits="userSpaceOnUse"
       gradientTransform="matrix(1.0238095,0,0,1.0119048,-1.1428571,-98.071429)" />
    <linearGradient
       id="linearGradient3737-1">
      <stop
         id="stop3739-9"
         style="stop-color:#ffffff;stop-opacity:1"
         offset="0" />
      <stop
         id="stop3741-3"
         style="stop-color:#ffffff;stop-opacity:0"
         offset="1" />
    </linearGradient>
    <radialGradient
       cx="48"
       cy="90.171875"
       r="42"
       fx="48"
       fy="90.171875"
       id="radialGradient2886"
       xlink:href="#linearGradient3737-0"
       gradientUnits="userSpaceOnUse"
       gradientTransform="matrix(1.1573129,0,0,0.99590774,-7.551021,0.1971319)" />
    <linearGradient
       id="linearGradient3737-0">
      <stop
         id="stop3739-6"
         style="stop-color:#ffffff;stop-opacity:1"
         offset="0" />
      <stop
         id="stop3741-0"
         style="stop-color:#ffffff;stop-opacity:0"
         offset="1" />
    </linearGradient>
    <linearGradient
       x1="36.357143"
       y1="6"
       x2="36.357143"
       y2="63.893143"
       id="linearGradient3923"
       xlink:href="#linearGradient3737-1"
       gradientUnits="userSpaceOnUse" />
    <linearGradient
       x1="64"
       y1="60"
       x2="62"
       y2="7"
       id="linearGradient3769"
       xlink:href="#linearGradient3763"
       gradientUnits="userSpaceOnUse"
       gradientTransform="matrix(1.231823,0,0,1.231823,-27.816151,7.1708322)" />
    <clipPath
       id="clipPath3716">
      <path
         d="m -118,6 c -3.324,0 -6,2.676 -6,6 l 0,72 c 0,3.324 2.676,6 6,6 l 72,0 c 3.324,0 6,-2.676 6,-6 l 0,-72 c 0,-3.324 -2.676,-6 -6,-6 l -72,0 z m 42.53125,9.4375 c 0,0 6.742786,6.784262 -6.4375,17.1875 -10.569721,8.348428 -2.406258,13.091934 0,18.53125 -6.170339,-5.566626 -10.691951,-10.439321 -7.65625,-15 4.457852,-6.693689 16.821977,-9.970594 14.09375,-20.71875 z m 8.125,13.34375 c -14.197756,8.233791 -11.545654,10.600025 -8.125,15.40625 3.661158,5.156183 -4.3125,9.25 -4.3125,9.25 0,0 3.954627,-3.226804 0.8125,-6.84375 -10.643745,-12.265213 11.625144,-17.8125 11.625,-17.8125 z m 3.59375,21.875 c 6.598371,-0.338475 10.187997,8.957958 -4.59375,12.84375 -1.44e-4,0 0.16215,-0.192534 0.21875,-0.34375 12.215092,-6.34575 6.567276,-12.446464 2.625,-11.625 -0.964039,0.201189 -1.40625,0.375 -1.40625,0.375 0,0 0.378571,-0.570411 1.0625,-0.8125 0.731171,-0.256932 1.41116,-0.40248 2.09375,-0.4375 z m -26.40625,0.625 c 0.519115,-0.01358 0.8125,0 0.8125,0 0,0 -11.82939,2.822105 -4.1875,3.84375 3.227673,0.431901 9.630792,0.315402 15.625,-0.1875 4.897387,-0.41102 9.8125,-1.25 9.8125,-1.25 0,0 -1.719415,0.709928 -2.96875,1.5625 -12.017218,3.160705 -35.24553,1.700167 -28.5625,-1.53125 4.236968,-2.049735 7.911406,-2.39676 9.46875,-2.4375 z m -1.9375,7.40625 c 0,0 -2.823626,2.059601 1.4375,2.5 5.511613,0.569005 9.87295,0.637302 17.40625,-0.8125 0,0 1.050477,1.047931 2.6875,1.625 -15.407629,4.506818 -32.55548,0.346355 -21.53125,-3.3125 z m 1.53125,7.125 c 0,0 -2.476708,1.449143 1.78125,1.9375 5.159208,0.589021 7.816289,0.511854 13.5,-0.5625 0,0 1.474997,0.907513 3.5625,1.71875 -12.745505,5.460632 -28.85383,-0.296827 -18.84375,-3.09375 z m -6.46875,4.71875 c 0.614519,0.02364 1.14585,0.147618 1.46875,0.375 0,0 -0.852618,-0.05906 -2.28125,0.25 -1.370161,0.295952 -5.69609,1.676512 -3.375,2.6875 6.461397,2.810602 29.707491,2.165274 37.0625,-0.0625 3.867966,-1.173437 2.03125,-2.71875 2.03125,-2.71875 6.739204,3.040884 -14.609199,9.149373 -40.59375,4.9375 -8.33743,-1.353006 1.38587,-5.63424 5.6875,-5.46875 z M -58,74.375 c -0.426144,5.547328 -18.43383,6.718207 -30.15625,5.96875 -7.704246,-0.495845 -9.1875,-1.71875 -9.1875,-1.71875 7.318718,1.208433 19.649918,1.415115 29.65625,-0.46875 C -58.817879,76.487689 -58,74.375 -58,74.375 z"
         inkscape:connector-curvature="0"
         id="path3718"
         style="fill:#ff00ff;fill-opacity:1;fill-rule:nonzero;stroke:none;display:inline" />
    </clipPath>
    <filter
       x="-0.19039206"
       y="-0.17553809"
       width="1.3808228"
       height="1.3159981"
       color-interpolation-filters="sRGB"
       id="filter3720">
      <feGaussianBlur
         id="feGaussianBlur3722"
         stdDeviation="3.3931715" />
    </filter>
    <linearGradient
       x1="64"
       y1="60"
       x2="62"
       y2="7"
       id="linearGradient3724"
       xlink:href="#linearGradient3763"
       gradientUnits="userSpaceOnUse"
       gradientTransform="matrix(1.231823,0,0,1.231823,-157.81615,7.1708322)" />
    <linearGradient
       id="linearGradient3737-9">
      <stop
         id="stop3739-2"
         style="stop-color:#ffffff;stop-opacity:1"
         offset="0" />
      <stop
         id="stop3741-1"
         style="stop-color:#ffffff;stop-opacity:0"
         offset="1" />
    </linearGradient>
    <clipPath
       id="clipPath3613">
      <rect
         width="84"
         height="84"
         rx="6"
         ry="6"
         x="6"
         y="6"
         id="rect3615"
         style="fill:#ffffff;fill-opacity:1;fill-rule:nonzero;stroke:none" />
    </clipPath>
    <filter
       x="-0.19578789"
       y="-0.19578789"
       width="1.3915758"
       height="1.3915758"
       color-interpolation-filters="sRGB"
       id="filter3794">
      <feGaussianBlur
         id="feGaussianBlur3796"
         stdDeviation="5.28" />
    </filter>
    <linearGradient
       x1="48"
       y1="20.220806"
       x2="48"
       y2="138.66119"
       id="linearGradient2988"
       xlink:href="#linearGradient3737-9"
       gradientUnits="userSpaceOnUse" />
    <filter
       inkscape:collect="always"
       style="color-interpolation-filters:sRGB"
       id="filter11772"
       x="-0.14883212"
       y="-0.12989455"
       width="1.2976642"
       height="1.2597891">
      <feGaussianBlur
         inkscape:collect="always"
         stdDeviation="92.124872"
         id="feGaussianBlur11774" />
    </filter>
  </defs>
  <metadata
     id="metadata2413">
    <rdf:RDF>
      <cc:Work
         rdf:about="">
        <dc:format>image/svg+xml</dc:format>
        <dc:type
           rdf:resource="http://purl.org/dc/dcmitype/StillImage" />
        <dc:title />
      </cc:Work>
    </rdf:RDF>
  </metadata>
  <g
     id="layer2"
     style="display:none">
    <rect
       width="86"
       height="85"
       rx="6"
       ry="6"
       x="5"
       y="7"
       id="rect3745"
       style="opacity:0.9;fill:url(#ButtonShadow);fill-opacity:1;fill-rule:nonzero;stroke:none;filter:url(#filter3174)" />
  </g>
  <g
     id="layer6"
     style="display:inline">
    <path
       d="m 12,-95.03125 c -5.5110903,0 -10.03125,4.52016 -10.03125,10.03125 l 0,71 c 0,5.5110902 4.5201598,10.03125 10.03125,10.03125 l 72,0 c 5.51109,0 10.03125,-4.5201597 10.03125,-10.03125 l 0,-71 c 0,-5.51109 -4.52016,-10.03125 -10.03125,-10.03125 l -72,0 z"
       transform="scale(1,-1)"
       id="path3786"
       style="opacity:0.07999998;fill:url(#linearGradient3760);fill-opacity:1;fill-rule:nonzero;stroke:none;display:inline" />
    <path
       d="m 12,-94.03125 c -4.971633,0 -9.03125,4.059617 -9.03125,9.03125 l 0,71 c 0,4.9716329 4.0596171,9.03125 9.03125,9.03125 l 72,0 c 4.971633,0 9.03125,-4.059617 9.03125,-9.03125 l 0,-71 c 0,-4.971633 -4.059617,-9.03125 -9.03125,-9.03125 l -72,0 z"
       transform="scale(1,-1)"
       id="path3778"
       style="opacity:0.1;fill:url(#linearGradient3780);fill-opacity:1;fill-rule:nonzero;stroke:none;display:inline" />
    <path
       d="m 12,-93 c -4.4091333,0 -8,3.590867 -8,8 l 0,71 c 0,4.4091333 3.5908667,8 8,8 l 72,0 c 4.409133,0 8,-3.5908667 8,-8 l 0,-71 c 0,-4.409133 -3.590867,-8 -8,-8 l -72,0 z"
       transform="scale(1,-1)"
       id="path3770"
       style="opacity:0.2;fill:url(#linearGradient3772);fill-opacity:1;fill-rule:nonzero;stroke:none;display:inline" />
    <rect
       width="86"
       height="85"
       rx="7"
       ry="7"
       x="5"
       y="-92"
       transform="scale(1,-1)"
       id="rect3723"
       style="opacity:0.3;fill:url(#linearGradient3725);fill-opacity:1;fill-rule:nonzero;stroke:none;display:inline" />
    <rect
       width="84"
       height="84"
       rx="6"
       ry="6"
       x="6"
       y="-91"
       transform="scale(1,-1)"
       id="rect3716"
       style="opacity:0.45;fill:url(#linearGradient3721);fill-opacity:1;fill-rule:nonzero;stroke:none;display:inline" />
  </g>
  <g
     id="layer1"
     style="display:inline">
    <rect
       width="84"
       height="84"
       rx="6"
       ry="6"
       x="6"
       y="6"
       id="rect2419"
       style="fill:url(#linearGradient3706);fill-opacity:1;fill-rule:nonzero;stroke:none" />
    <path
       d="M 12,6 C 8.676,6 6,8.676 6,12 l 0,2 0,68 0,2 c 0,0.334721 0.04135,0.6507 0.09375,0.96875 0.0487,0.295596 0.09704,0.596915 0.1875,0.875 0.0099,0.03038 0.02089,0.0636 0.03125,0.09375 0.09886,0.287771 0.23488,0.547452 0.375,0.8125 0.144592,0.273507 0.315616,0.535615 0.5,0.78125 0.184384,0.245635 0.373776,0.473472 0.59375,0.6875 0.439947,0.428056 0.94291,0.814526 1.5,1.09375 0.278545,0.139612 0.573473,0.246947 0.875,0.34375 -0.256202,-0.100222 -0.486711,-0.236272 -0.71875,-0.375 -0.0074,-0.0044 -0.02387,0.0045 -0.03125,0 -0.03193,-0.0193 -0.06229,-0.04251 -0.09375,-0.0625 -0.120395,-0.0767 -0.231023,-0.163513 -0.34375,-0.25 -0.106173,-0.0808 -0.213281,-0.161112 -0.3125,-0.25 C 8.47832,88.557317 8.30879,88.373362 8.15625,88.1875 8.048671,88.057245 7.937856,87.922215 7.84375,87.78125 7.81866,87.74287 7.8053,87.69538 7.78125,87.65625 7.71649,87.553218 7.651022,87.451733 7.59375,87.34375 7.492742,87.149044 7.388075,86.928049 7.3125,86.71875 7.3045,86.69694 7.28891,86.6782 7.28125,86.65625 7.24942,86.5643 7.24545,86.469419 7.21875,86.375 7.188418,86.268382 7.148361,86.171969 7.125,86.0625 7.052121,85.720988 7,85.364295 7,85 L 7,83 7,15 7,13 C 7,10.218152 9.218152,8 12,8 l 2,0 68,0 2,0 c 2.781848,0 5,2.218152 5,5 l 0,2 0,68 0,2 c 0,0.364295 -0.05212,0.720988 -0.125,1.0625 -0.04415,0.206893 -0.08838,0.397658 -0.15625,0.59375 -0.0077,0.02195 -0.0233,0.04069 -0.03125,0.0625 -0.06274,0.173739 -0.138383,0.367449 -0.21875,0.53125 -0.04158,0.0828 -0.07904,0.169954 -0.125,0.25 -0.0546,0.09721 -0.126774,0.18835 -0.1875,0.28125 -0.09411,0.140965 -0.204921,0.275995 -0.3125,0.40625 -0.143174,0.17445 -0.303141,0.346998 -0.46875,0.5 -0.01117,0.0102 -0.01998,0.02115 -0.03125,0.03125 -0.138386,0.125556 -0.285091,0.234436 -0.4375,0.34375 -0.102571,0.07315 -0.204318,0.153364 -0.3125,0.21875 -0.0074,0.0045 -0.02384,-0.0044 -0.03125,0 -0.232039,0.138728 -0.462548,0.274778 -0.71875,0.375 0.301527,-0.0968 0.596455,-0.204138 0.875,-0.34375 0.55709,-0.279224 1.060053,-0.665694 1.5,-1.09375 0.219973,-0.214028 0.409366,-0.441865 0.59375,-0.6875 0.184384,-0.245635 0.355408,-0.507743 0.5,-0.78125 0.14012,-0.265048 0.276135,-0.524729 0.375,-0.8125 0.01041,-0.03078 0.02133,-0.06274 0.03125,-0.09375 0.09046,-0.278085 0.1388,-0.579404 0.1875,-0.875 C 89.95865,84.6507 90,84.334721 90,84 l 0,-2 0,-68 0,-2 C 90,8.676 87.324,6 84,6 L 12,6 z"
       inkscape:connector-curvature="0"
       id="rect3728"
       style="opacity:0.5;fill:url(#linearGradient3923);fill-opacity:1;fill-rule:nonzero;stroke:none;display:inline" />
    <path
       d="M 12,90 C 8.676,90 6,87.324 6,84 L 6,82 6,14 6,12 c 0,-0.334721 0.04135,-0.6507 0.09375,-0.96875 0.0487,-0.295596 0.09704,-0.596915 0.1875,-0.875 C 6.29113,10.12587 6.302142,10.09265 6.3125,10.0625 6.411365,9.774729 6.5473802,9.515048 6.6875,9.25 6.8320918,8.976493 7.0031161,8.714385 7.1875,8.46875 7.3718839,8.223115 7.5612765,7.995278 7.78125,7.78125 8.221197,7.353194 8.72416,6.966724 9.28125,6.6875 9.559795,6.547888 9.8547231,6.440553 10.15625,6.34375 9.9000482,6.443972 9.6695391,6.580022 9.4375,6.71875 c -0.00741,0.0044 -0.023866,-0.0045 -0.03125,0 -0.031933,0.0193 -0.062293,0.04251 -0.09375,0.0625 -0.120395,0.0767 -0.2310226,0.163513 -0.34375,0.25 -0.1061728,0.0808 -0.2132809,0.161112 -0.3125,0.25 C 8.4783201,7.442683 8.3087904,7.626638 8.15625,7.8125 8.0486711,7.942755 7.9378561,8.077785 7.84375,8.21875 7.818661,8.25713 7.805304,8.30462 7.78125,8.34375 7.716487,8.446782 7.6510225,8.548267 7.59375,8.65625 7.4927417,8.850956 7.3880752,9.071951 7.3125,9.28125 7.30454,9.30306 7.288911,9.3218 7.28125,9.34375 7.2494249,9.4357 7.2454455,9.530581 7.21875,9.625 7.1884177,9.731618 7.1483606,9.828031 7.125,9.9375 7.0521214,10.279012 7,10.635705 7,11 l 0,2 0,68 0,2 c 0,2.781848 2.2181517,5 5,5 l 2,0 68,0 2,0 c 2.781848,0 5,-2.218152 5,-5 l 0,-2 0,-68 0,-2 C 89,10.635705 88.94788,10.279012 88.875,9.9375 88.83085,9.730607 88.78662,9.539842 88.71875,9.34375 88.71105,9.3218 88.69545,9.30306 88.6875,9.28125 88.62476,9.107511 88.549117,8.913801 88.46875,8.75 88.42717,8.6672 88.38971,8.580046 88.34375,8.5 88.28915,8.40279 88.216976,8.31165 88.15625,8.21875 88.06214,8.077785 87.951329,7.942755 87.84375,7.8125 87.700576,7.63805 87.540609,7.465502 87.375,7.3125 87.36383,7.3023 87.35502,7.29135 87.34375,7.28125 87.205364,7.155694 87.058659,7.046814 86.90625,6.9375 86.803679,6.86435 86.701932,6.784136 86.59375,6.71875 c -0.0074,-0.0045 -0.02384,0.0044 -0.03125,0 -0.232039,-0.138728 -0.462548,-0.274778 -0.71875,-0.375 0.301527,0.0968 0.596455,0.204138 0.875,0.34375 0.55709,0.279224 1.060053,0.665694 1.5,1.09375 0.219973,0.214028 0.409366,0.441865 0.59375,0.6875 0.184384,0.245635 0.355408,0.507743 0.5,0.78125 0.14012,0.265048 0.276135,0.524729 0.375,0.8125 0.01041,0.03078 0.02133,0.06274 0.03125,0.09375 0.09046,0.278085 0.1388,0.579404 0.1875,0.875 C 89.95865,11.3493 90,11.665279 90,12 l 0,2 0,68 0,2 c 0,3.324 -2.676,6 -6,6 l -72,0 z"
       inkscape:connector-curvature="0"
       id="path3615"
       style="opacity:0.4;fill:url(#radialGradient2886);fill-opacity:1;fill-rule:nonzero;stroke:none;display:inline" />
    <rect
       width="84"
       height="84"
       rx="6"
       ry="6"
       x="-124"
       y="6"
       id="rect3666"
       style="fill:#ff00ff;fill-opacity:1;fill-rule:nonzero;stroke:none" />
  </g>
  <g
     id="layer3">
    <rect
       width="66"
       height="66"
       rx="12"
       ry="12"
       x="15"
       y="15"
       clip-path="url(#clipPath3613)"
       id="rect3171"
       style="opacity:0.5;fill:url(#linearGradient2988);fill-opacity:1;fill-rule:nonzero;stroke:#ffffff;stroke-width:0.5;stroke-linecap:round;stroke-linejoin:miter;stroke-miterlimit:4;stroke-opacity:1;stroke-dasharray:none;stroke-dashoffset:0;display:inline;filter:url(#filter3794)" />
  </g>
  <g
     id="g11829"
     transform="translate(-1.8367238,-0.30612064)">
    <path
       id="path11719"
       style="display:inline;opacity:0.6;fill:#ffffff;fill-rule:evenodd;stroke-width:1px;filter:url(#filter11772)"
       transform="matrix(0.03248256,0,0,0.03248256,84.22376,60.800417)"
       d="m -1227.8242,-1287.4453 c -17.7492,37.6087 -27.3431,92.5047 -24.5352,153.7734 2.7407,59.8011 17.9459,125.3826 53.7754,182.6719 7.6785,40.61102 16.0253,77.98209 29.5664,107.75781 -5.712,-5.64023 -12.0621,-10.83332 -19.2422,-15.32812 -20.3321,-12.72815 -34.0446,-29.92426 -49.0254,-49.89063 -11.6962,-56.24097 -18.9737,-121.66626 -23.1855,-173.34766 -2.1707,-26.6361 -3.5552,-49.6349 -4.3945,-65.9336 -0.4197,-8.1493 -0.7049,-14.6238 -0.8828,-19.043 -0.089,-2.2095 -0.1514,-3.9052 -0.1915,-5.039 -0.02,-0.5669 -0.034,-0.9941 -0.043,-1.2735 0,-0.1396 -0.01,-0.2426 -0.01,-0.3066 0,-0.064 0,-0.094 0,-0.094 l -46.5098,-11.0704 c -18.3403,33.7196 -28.0111,82.2704 -25.1328,136.4102 2.7958,52.58686 18.2682,110.32678 54.1739,160.51758 10.1882,46.64958 21.6053,88.84268 45.2519,117.61914 5.6093,6.82621 9.4954,19.88308 8.7031,39.88476 -0.7922,20.00168 -6.175,45.57905 -14.7382,73.23047 -15.7685,50.91762 -41.8729,108.54408 -65.8438,158.79492 -86.1901,4.82285 -157.4732,13.7714 -210.7988,25.44922 -28.2012,6.17579 -51.4041,13.03365 -69.8906,20.97656 -18.4868,7.94292 -33.2581,15.6864 -42.7657,32.22266 -5.3289,9.26848 -7.5831,21.08104 -5.6347,31.73242 1.9483,10.65139 7.26,19.62546 13.8105,27.16211 13.1009,15.07331 31.6738,26.16313 55.6777,36.56055 48.008,20.79482 118.7011,37.16321 208.5957,45.54883 168.1851,15.68876 402.84607,2.42096 667.94145,-74.38086 -86.72808,170.57337 -166.9556,285.594701 -241.05078,357.2851525 C -1015.4555,83.05686 -1087.4424,109.99025 -1157.377,107.18945 -1230.1835,103.24946 -1298.0906,69.453908 -1371.6758,0.95117188 -1445.3191,-67.605678 -1523.2173,-170.66861 -1611.9609,-308 a 24.768924,24.768924 0 0 0 -42.9239,24.57422 c 55.5084,110.31862 123.5929,227.124471 202.2422,319.466796 3.4703,4.074436 6.9912,8.044718 10.5059,12.027343 -35.9379,4.759414 -180.6936,25.50281 -275.0781,65.232421 -26.9081,11.32648 -49.7334,23.47129 -65.4532,42.31836 -7.8599,9.42354 -13.9782,21.55265 -14.4726,35.24414 -0.4944,13.69149 4.9454,27.15115 13.4804,38.08203 17.0702,21.86176 45.4737,38.40831 90.1133,56.44922 44.6397,18.04091 105.9228,36.56691 188.6602,56.02344 438.1685,103.0397 732.98389,82.41604 919.76951,29.52344 93.39281,-26.44631 159.68503,-60.90302 203.41211,-92.17383 21.86354,-15.63541 38.07004,-30.40417 49.47266,-43.53516 5.70131,-6.56549 10.21245,-12.68562 13.7168,-18.8457 3.50433,-6.16008 6.65224,-11.81947 6.88281,-21.76758 0.92772,-40.03095 -23.6044,-72.64307 -56.44336,-94.02539 -32.83897,-21.382323 -75.04603,-35.161549 -121.1211,-45.21875 -92.15012,-20.114403 -200.19229,-24.287426 -272.5,-24.652344 -5.87061,-0.02963 -10.67599,0.03118 -16.05078,0.04883 109.12202,-23.8822743 215.89771,-113.114539 287.69727,-203.269536 42.30078,-53.1149 72.5617,-106.51572 81.13281,-154.06836 4.28556,-23.77632 3.12956,-47.5332 -9.26367,-67.46093 -12.39323,-19.92774 -35.43408,-32.0274 -62.09961,-34.89063 -4.26381,-0.45782 -8.48791,-0.74938 -12.66797,-0.88281 -53.53622,-1.70875 -97.1347,21.16586 -130.07226,48.50781 0.59327,-2.00471 1.30248,-4.08565 1.88476,-6.08203 a 24.768924,24.768924 0 0 0 -31.08594,-30.59766 c -6.4806,2.00209 -13.34008,3.89342 -20.16992,5.79297 a 24.768924,24.768924 0 0 0 -8.33203,-45.29687 c -127.28153,-20.78432 -232.81923,-32.0668 -328.99019,-39.83789 31.384,-50.19521 62.8437,-107.29179 80.4648,-162.31446 10.92921,-34.12693 16.81584,-67.68853 12.04102,-99.41601 -4.77483,-31.72748 -22.33275,-61.62598 -52.94336,-79.98828 -17.33505,-10.39873 -26.97791,-24.41227 -39.32226,-42.13086 -6.3205,-54.0218 -6.1101,-118.14307 -4.043,-169.04684 1.0707,-26.3656 2.5977,-49.2104 3.8535,-65.4141 0.628,-8.1018 1.187,-14.5447 1.5879,-18.9395 0.2005,-2.1973 0.3613,-3.8829 0.4707,-5.0078 0.055,-0.5624 0.097,-0.9844 0.125,-1.2597 0.014,-0.1377 0.023,-0.2388 0.029,-0.3008 0.01,-0.062 0.01,-0.088 0.01,-0.088 l -46.1758,-14.7578 c -17.4609,30.7618 -34.3235,78.2523 -39.1465,132.0898 -4.6629,52.05076 2.5011,110.49891 35.6797,160.80862 0.7463,5.60895 1.6057,11.06943 2.459,16.53125 -8.9803,-25.14411 -24.1699,-47.71868 -47.0234,-64.20703 -20.5626,-14.83537 -34.777,-35.40342 -50.0254,-58.82812 -11.9224,-65.56482 -19.2533,-141.78722 -23.4883,-201.90822 -2.1685,-30.785 -3.5493,-57.3595 -4.3848,-76.2031 -0.4177,-9.4218 -0.6981,-16.9115 -0.875,-22.0293 -0.088,-2.5589 -0.1515,-4.5257 -0.1914,-5.8438 -0.02,-0.659 -0.034,-1.1549 -0.043,-1.4824 0,-0.1637 -0.01,-0.2865 -0.01,-0.3633 0,-0.077 0,-0.1132 0,-0.1132 z m 182.7597,485.54491 c 5.7501,18.91763 13.7078,35.918 25.6934,49.89453 5.2107,6.07624 8.8542,17.23757 8.3418,35.11719 -0.5124,17.87962 -5.2929,41.09005 -13.2246,66.43555 -14.2999,45.69468 -38.4294,98.05909 -61.7832,145.5625 -4.7638,-0.62622 -9.7805,-1.28711 -14.6387,-1.57227 -8.9742,-0.52676 -16.217,-0.39966 -22.6797,-0.0664 27.1381,-57.7351 55.2228,-126.35479 69.67,-192.66015 7.7051,-35.36275 11.6163,-70.10997 8.621,-102.71094 z m -115.7793,166.2832 c -11.4466,45.14217 -26.2341,91.2287 -39.9921,132.33203 -9.9427,0.13929 -19.2967,0.42959 -27.9297,0.89844 24.8379,-41.21362 49.7357,-87.24717 67.9218,-133.23047 z m 33.2051,196.95703 c 2.8324,-0.0584 6.0152,0.0926 9.0742,0.17188 -5.2151,10.41621 -10.4788,20.73471 -15.0371,30.10547 -4.8194,9.90767 -8.94,18.59925 -11.8925,25.34961 -1.4763,3.37517 -2.6351,6.11171 -3.6778,9.19922 -0.5213,1.54375 -1.0889,2.83887 -1.5918,6.44726 -0.2514,1.8042 -0.9832,4.02056 0.502,9.94531 0.036,0.14392 0.1513,0.36708 0.1914,0.51758 -14.8516,0.21552 -29.5185,0.27967 -44.0625,0.25781 1.0759,-2.10001 2.1263,-4.16937 3.3808,-6.82617 3.333,-7.05797 7.5247,-16.36669 12.17,-26.67383 7.0981,-15.74969 14.9291,-32.74049 21.9531,-47.23046 10.6775,-0.27852 19.4424,-1.06681 28.9902,-1.26368 z m -94.8203,1.33008 c -3.5693,10.63559 -7.0066,20.63299 -10.2051,30.52149 -3.3067,10.22326 -6.1573,19.3235 -8.1523,26.375 -0.9975,3.52574 -1.7744,6.40899 -2.3906,9.47656 -0.3082,1.53378 -0.6506,2.86275 -0.7696,6.00781 -0.057,1.50143 -0.2852,3.41411 0.8653,7.73633 -25.3739,-0.51715 -49.9717,-1.39247 -73.5293,-2.62305 0.1565,-0.25045 0.2674,-0.40091 0.4277,-0.6582 4.2141,-6.76392 9.5703,-15.72236 15.5488,-25.73047 9.7503,-16.322 20.7836,-34.54866 30.5528,-49.91406 16.0049,-0.46693 31.6818,-0.9648 47.6523,-1.19141 z m 171.8809,3.2793 c 186.18095,12.14315 363.96572,25.71071 363.96872,25.71094 -112.47816,29.17009 -265.62636,45.41039 -412.36722,50.17187 0.4007,-0.60674 0.7103,-1.0145 1.1348,-1.66406 4.347,-6.6515 9.8645,-15.4612 16.043,-25.33985 9.8864,-15.80738 21.0915,-33.51945 31.2207,-48.8789 z m -289.9629,0.38086 c -4.2211,8.81816 -8.4256,17.38317 -12.1699,25.41406 -4.6237,9.91679 -8.5993,18.66408 -11.4473,25.44531 -1.424,3.39062 -2.5425,6.146 -3.5332,9.18164 -0.4954,1.51782 -1.0225,2.79243 -1.502,6.21094 -0.1367,0.97494 -0.3054,2.29346 -0.2832,4.09375 -37.1604,-3.00112 -70.6821,-6.90967 -98.5781,-11.70898 -30.6314,-5.26993 -54.8656,-11.77372 -68.9492,-17.91016 -2.656,-1.15723 -4.5279,-2.23632 -6.3828,-3.28906 2.0135,-1.60393 4.5083,-3.35962 8.3027,-5.36524 11.1693,-5.90382 29.3138,-11.87025 52.207,-16.64648 36.9287,-7.70446 86.4739,-12.58644 142.336,-15.42578 z m 797.10545,101.42773 c 1.90695,-0.15333 3.5123,-0.0947 4.75782,0.19141 13.92027,3.19757 20.70797,7.79387 23.76757,11.2207 3.05961,3.42683 4.19781,6.32677 3.95704,13.23047 -0.48157,13.80741 -12.33712,40.73997 -32.97657,69.06445 -41.27889,56.64897 -112.8698,121.00205 -154.36719,151.873051 -32.48426,24.165902 -58.15796,39.643768 -80.16015,50.574218 46.54509,-69.685699 84.40447,-147.454359 114.35351,-224.480469 a 24.768924,24.768924 0 0 0 8.10743,-4.24023 c 0,0 21.0187,-20.15722 47.70703,-38.69727 23.35229,-16.22254 51.50491,-27.66303 64.85351,-28.73633 z M -862.42969,68.833984 a 24.768924,24.768924 0 0 0 17.9043,12.484375 c 150.20811,20.166911 155.6087,3.737866 325.33203,42.705081 18.25841,4.19199 28.5275,10.5517 33.07422,15.46679 4.54672,4.9151 5.47834,8.03033 4.48633,15.28125 -1.98402,14.50185 -21.29506,43.94232 -59.68555,71.82422 -76.78098,55.76382 -221.52973,108.03101 -396.39062,99.76758 -317.73362,-15.0152 -587.81422,-55.53737 -694.38672,-102.34375 -26.6431,-11.70159 -41.6379,-24.6105 -44.5566,-29.69336 -1.4594,-2.54143 -1.1223,-2.02471 -0.8633,-3.07031 0.2589,-1.0456 1.7721,-4.62035 7.4394,-9.90234 22.6693,-21.12798 105.0069,-55.39805 251.0625,-86.529301 a 24.768924,24.768924 0 0 0 12.9961,-8.357422 c 67.0788,66.375253 141.6091,113.061773 223.6778,119.462893 a 24.768924,24.768924 0 0 0 0.4179,0.0293 c 127.9269,7.80488 234.60898,-49.93868 319.49221,-137.124996 z" />
    <path
       id="path7501"
       style="display:inline;opacity:1;fill:#ff8c21;fill-opacity:1;fill-rule:evenodd;stroke:none;stroke-width:1px;stroke-linecap:butt;stroke-linejoin:miter;stroke-opacity:1"
       d="m -1205.4284,-1276.8759 c -30.1012,63.7813 -39.154,209.5289 30.2446,316.63626 -25.498,-136.51766 -30.2462,-316.63616 -30.2446,-316.63626 z m 30.2446,316.63626 c 10.2284,54.76416 23.0127,103.53206 41.3683,129.2761 45.6563,64.03361 -10.0326,236.72342 -49.1249,352.35254 -37.047,-0.6356 -60.6422,2.44852 -91.9965,3.6077 74.7323,-116.54423 174.1335,-299.59951 73.5371,-362.57436 -26.3493,-16.49496 -42.728,-38.56814 -59.0462,-60.42906 10.2329,47.56449 22.9976,89.90359 41.3684,112.25975 44.5899,54.26322 -23.6477,205.00565 -74.92,311.52534 -183.9911,9.07295 -300.9049,37.23216 -318.0794,67.10332 -44.6032,77.57806 397.785,195.12845 966.68467,13.88966 -194.59438,401.4319699 -358.60897,531.44082 -513.13597,525.16161 -159.593,-8.53222 -295.726,-150.25023 -474.2328,-426.49087 109.999,218.614405 269.813,461.55911 452.3461,475.79618 288.00289,17.57119 459.70992,-315.68688 535.5037,-575.54923 -298.08145,92.08779 -933.784,74.47618 -927.9619,-1.62347 10.2343,-43.05649 125.4348,-59.66582 272.502,-64.27728 -18.0947,37.30566 -46.9079,96.84055 -44.1343,96.92701 2.4757,0.0772 37.571,-62.71057 60.4892,-97.22765 31.7824,-0.68605 60.2177,-2.43546 95.9048,-1.44308 -12.1937,35.91309 -33.4719,98.57855 -30.906,98.67073 2.2781,0.0818 29.7058,-65.9336 46.9002,-98.91124 23.0341,0.80734 36.5874,-2.38176 60.9101,-0.90193 16.4182,0.99891 15.3605,1.20075 31.5073,2.22475 -19.6245,38.83438 -49.273,97.50138 -46.359,97.58842 2.5636,0.0766 38.567,-61.31386 62.7139,-96.44598 191.63263,12.38731 378.62868,26.69702 378.62868,26.69702 -144.66358,-23.6227 -261.64478,-35.17718 -368.10618,-42.93169 74.76671,-113.29776 168.55028,-282.67061 69.92934,-341.83006 -24.50944,-14.7024 -36.80364,-34.87657 -50.50784,-54.35609 5.655,44.29057 15.0393,83.27612 32.8301,104.02216 43.01865,50.16455 -19.4946,186.71635 -70.9516,289.93924 -8.699,-0.58756 -22.1523,-3.05142 -30.6053,-3.54758 -28.4552,-1.67024 -36.1418,3.10856 -61.8722,2.40514 62.971,-126.09994 150.7183,-337.13023 47.8623,-411.33852 -26.3294,-18.99604 -42.7356,-44.39529 -59.0461,-69.56858 z m 141.7828,88.08814 c -14.7307,-115.37073 1.3213,-271.6 1.3228,-271.6001 -30.6018,53.9126 -65.0033,181.08299 -1.3228,271.6001 z m -227.045,-25.85522 c -25.488,-118.47358 -30.3061,-274.72668 -30.3047,-274.72678 -30.1047,55.3489 -39.0823,181.77132 30.3047,274.72678 z m 777.52067,493.71444 c -116.72399,-12.53329 -190.24633,121.63979 -190.24633,121.63979 0,0 88.66213,-85.33864 140.03909,-73.53705 137.8626,31.66782 -63.15333,224.50697 -150.38118,289.398078 -71.44479,53.14967 -115.35208,68.1282668 -152.30529,79.008742 227.25972,3.098466 525.49405,-397.97647 352.89371,-416.50956 z M -841.2306,56.772439 c 148.34429,19.916671 156.25431,3.777059 327.57964,43.112076 C -342.32572,139.21951 -578.20401,368.14554 -938.87915,351.10105 -1577.0268,320.94398 -2014.0999,196.3423 -1424.1756,70.601975 c 0,0 -730.8,92.498505 -75.0403,246.706905 870.083,204.60871 1161.91461,-84.04635 1162.82353,-123.26326 C -332.64606,32.394051 -841.2306,56.772439 -841.2306,56.772439 Z"
       transform="matrix(0.03248256,0,0,0.03248256,84.22376,60.800417)" />
    <path
       id="path6666"
       style="display:inline;opacity:1;fill:#d45500;fill-opacity:1;fill-rule:evenodd;stroke:none;stroke-width:1px;stroke-linecap:butt;stroke-linejoin:miter;stroke-opacity:1"
       d="m -1205.4284,-1276.8759 c -15.6606,33.1832 -25.2835,88.6671 -21.4659,149.2387 -1.7859,-55.5577 6.9057,-106.602 21.4659,-137.4535 0,0 0.7157,7.4868 0.7215,7.6964 -0.3115,-8.3755 -0.7218,-19.4816 -0.7215,-19.4816 z m -85.3222,104.1424 c -15.7614,28.9781 -25.3205,77.5396 -21.2855,130.4787 -1.6878,-47.9299 6.7916,-92.0459 21.2855,-118.6935 -10e-5,0 0.8339,7.4555 0.8418,7.6964 -0.4319,-9.5007 -0.8421,-19.4816 -0.8418,-19.4816 z m 258.6724,28.9819 c -29.8348,52.5614 -63.0058,174.65286 -5.652,264.62519 -47.4876,-86.83334 -23.9588,-195.79489 4.2089,-247.90949 0.6262,-7.1402 1.4429,-16.7157 1.4431,-16.7157 z m -193.7337,26.697 c 4.3061,48.4424 17.1786,99.2576 43.4127,144.54875 -24.3719,-46.31495 -40.5092,-96.39475 -43.4127,-144.54875 z m -85.0216,85.202 c 4.491,40.78772 17.023,83.37356 42.0899,121.57967 -23.0008,-39.17572 -39.1716,-81.05374 -42.0899,-121.57967 z m 132.9439,54.89725 c 0.9978,6.49714 0.3034,8.05234 1.383,14.43082 0.4736,0.74623 0.8417,1.54232 1.3228,2.28488 -1.009,-5.40231 -1.7608,-11.19069 -2.7058,-16.7157 z m 2.7058,16.7157 c 1.0032,5.37118 2.1316,10.33351 3.1868,15.57326 15.4628,23.81235 30.9583,47.81501 55.8593,65.78049 47.2751,34.10794 51.6677,98.3355 39.324,168.72035 15.5116,-75.53562 10.8281,-144.32187 -39.324,-180.50552 -26.3294,-18.99602 -42.7356,-44.39531 -59.0461,-69.56858 z m 6.7945,33.07063 c 7.2224,32.57584 15.7466,61.37056 26.2761,82.01517 -10.3033,-21.76783 -19.2006,-48.81327 -26.2761,-82.01517 z m -95.1833,12.38646 c 1.1265,6.55106 0.3288,8.06627 1.5633,14.49095 0.548,0.7519 1.0053,1.53725 1.5634,2.28488 -1.1663,-5.421 -2.0455,-11.21523 -3.1267,-16.77583 z m 3.1267,16.77583 c 1.1558,5.37266 2.4429,10.35521 3.6678,15.57326 15.3431,20.50026 30.6734,41.17547 55.3783,56.64097 44.3551,27.76696 46.0784,80.43427 31.9282,138.89665 18.2466,-63.9191 15.7435,-120.83864 -31.9282,-150.68182 -26.3493,-16.49495 -42.7279,-38.56817 -59.0461,-60.42906 z m 227.105,25.91534 c 0.014,0.13121 -0.014,0.16952 0,0.30065 0.6098,4.75513 1.4626,9.15362 2.1647,13.7694 13.0144,18.67763 24.8413,37.94915 48.28307,52.01109 43.31053,25.98055 45.76792,74.74742 32.76999,129.15584 17.24466,-59.91915 14.01557,-112.8759 -32.76999,-140.94101 -24.48077,-14.68519 -36.76287,-34.83764 -50.44777,-54.29597 z m -219.2282,7.21542 c 6.5743,24.98937 14.2891,47.02296 23.5102,63.73612 -8.9928,-17.69543 -17.0898,-38.15957 -23.5102,-63.73612 z m 222.7758,15.99415 c 4.9195,28.80397 11.8543,54.21908 22.6083,71.61295 -10.0498,-18.97492 -18.1092,-42.03535 -22.6083,-71.61295 z m -97.2878,176.71743 c -13.1783,65.10406 -36.507,136.31217 -55.8593,193.55338 -34.4295,-0.59069 -57.5848,1.94306 -85.8032,3.24694 -2.2933,3.63183 -3.9387,8.63004 -6.1933,12.14594 31.3543,-1.15933 54.9495,-4.24343 91.9965,-3.60771 20.768,-61.4284 43.407,-136.54855 55.8593,-205.33855 z m 39.9854,3.60771 c -13.3624,49.98984 -33.7507,96.92648 -54.5966,142.68474 20.3617,-44.1261 40.5889,-93.72777 54.5966,-142.68474 z m -133.3648,18.45942 c -17.8748,57.92633 -47.8188,122.44525 -73.5371,175.87563 -183.9909,9.07294 -300.9048,37.23218 -318.0793,67.10331 -9.5189,16.55608 3.2969,34.92626 34.634,51.8307 -17.7316,-13.51466 -42.0284,-27.18454 -34.634,-40.04553 5.7739,-10.04239 37.7998,-18.84422 64.8786,-27.83945 1.5682,-0.84148 3.7758,-1.47708 5.4716,-2.28488 13.4177,-4.12827 17.9814,-8.66103 35.5961,-12.32633 45.4071,-11.95577 110.2962,-18.50677 185.2556,-21.52597 10.6587,-0.68685 15.7179,-2.57638 26.8774,-3.12668 27.9564,-58.08014 56.5331,-126.09412 73.5371,-187.6608 z m 219.8295,7.03503 c -16.6831,53.31132 -45.1629,113.26073 -70.8914,164.87212 -8.699,-0.58756 -22.1524,-3.05142 -30.6054,-3.54757 -26.5152,-1.55637 -35.5108,2.35559 -57.3625,2.345 -1.686,3.42898 -2.8539,8.52973 -4.5096,11.8453 25.7304,0.70327 33.4169,-4.07526 61.8721,-2.40513 8.453,0.49608 21.9064,2.96018 30.6054,3.54757 28.1529,-56.47476 55.2132,-119.83551 70.8914,-176.65729 z m -189.164,12.62696 c -12.8862,31.84917 -29.4192,61.1013 -46.7799,91.87623 17.0467,-29.68744 33.4752,-60.74985 46.7799,-91.87623 z m 219.58897,8.29773 c -11.64975,28.10514 -26.97279,54.26585 -42.81147,81.8949 15.66713,-26.73776 30.66215,-54.32817 42.81147,-81.8949 z m -76.72387,146.65321 c -2.2363,3.44031 -3.684,7.9574 -5.8926,11.30414 31.3021,2.28 74.67402,9.4798 108.23118,12.62697 139.15918,9.59855 259.87503,18.51956 259.87503,18.51956 -142.06685,-23.19867 -257.28691,-34.69877 -362.21361,-42.45067 z m -141.1815,25.31407 c -1.4767,-0.0411 -2.5159,0.0921 -3.9685,0.0601 -12.3302,36.37625 -29.2613,86.74196 -26.9375,86.82544 0.7478,0.0269 4.7035,-8.2877 9.6205,-19.00058 6.2653,-20.94343 12.8955,-43.17488 21.2855,-67.88498 z m 102.6993,0.66141 c -19.1877,38.01252 -43.299,86.14493 -40.6468,86.22415 1.1132,0.0333 9.1053,-12.47586 19.1208,-28.44074 9.8132,-20.60651 15.7038,-34.53747 27.2382,-57.36251 -2.928,-0.18574 -3.7089,-0.27961 -5.7122,-0.4209 z m -214.9591,1.08231 c -2.3098,0.0724 -3.5987,0.46275 -5.8926,0.54116 -17.8441,36.86107 -40.7414,84.52276 -38.2416,84.60068 1.0733,0.0335 8.8335,-12.74837 18.5195,-28.92177 9.4521,-20.65735 15.1182,-34.5796 25.6147,-56.22007 z m 796.10029,43.41272 c -104.2549,4.41358 -168.90073,122.36133 -168.90073,122.36133 0,0 11.52751,-11.01287 28.32049,-24.41214 27.7108,-38.13107 77.41776,-94.51659 161.92583,-85.44248 39.75431,4.26865 52.28503,30.23621 48.70402,65.47985 8.81165,-42.15542 -4.20177,-72.48656 -48.70402,-77.26502 -7.29524,-0.78333 -14.39526,-1.01578 -21.34559,-0.72154 z m -140.64037,10.70286 c -249.84295,77.18523 -735.50572,77.09838 -883.16622,30.30472 99.6338,49.82781 504.3033,57.33161 784.61574,-0.60128 32.22814,-8.60068 64.91034,-18.05737 98.06945,-28.62113 -1.99931,4.12441 -3.95983,7.77804 -5.95271,11.8453 0.71662,-0.21541 1.87265,-0.20426 2.58552,-0.4209 1.24438,-4.13717 2.65172,-8.40446 3.84822,-12.50671 z m -924.47442,8.23759 c -0.2985,0.86292 -3.2771,1.03896 -3.4875,1.92411 -0.1367,1.78679 8.8822,2.54748 9.4402,4.26912 -2.5208,-1.99771 -4.4663,-4.0863 -5.9527,-6.19323 z m 920.26543,5.41156 c -1.03515,0.32757 -1.85187,0.33581 -2.88616,0.66141 -191.67348,390.696999 -353.76617,518.1406 -506.52177,511.93337 -94.9617,-5.07688 -181.6663,-57.687767 -273.885,-157.356078 91.3022,97.946872 179.7673,164.109498 273.885,169.141248 152.3557,6.19098 314.24199,-122.673204 505.25907,-510.97131 1.39479,-4.47677 2.80937,-8.96771 4.14886,-13.40864 z m 209.36716,73.65731 c -6.60635,25.87308 -26.93331,56.9508 -46.90017,87.96788 21.47188,-30.9665 37.87493,-61.12436 46.90017,-87.96788 z m -48.16287,10.28196 c -0.51811,2.87854 -0.58591,5.59516 -1.44308,8.59837 0.36809,-2.89278 1.46573,-5.85833 1.44308,-8.59837 z m -1144.84512,2.16463 c 6.0672,12.058 12.8754,24.27423 19.2411,36.43782 13.1507,19.93205 23.8877,28.66188 36.6182,47.08055 -18.2615,-26.54757 -36.7031,-53.8741 -55.8593,-83.51837 z m 1126.8066,42.93169 c -39.03106,67.17277 -127.13653,147.32398 -177.55923,184.834759 -71.44471,53.149617 -115.35211,68.1282796 -152.30528,79.008744 8.37612,0.1142 16.89249,-0.43845 25.43432,-1.382954 33.19662,-10.99495377 67.35221,-21.563033 126.87096,-65.840619 54.00445,-40.175332 143.74703,-126.96946 177.55923,-196.61993 z m -1089.6472,27.65907 c 37.527,68.90019 79.4749,137.301479 125.3076,198.002886 -46.0099,-61.796924 -87.8237,-128.447636 -125.3076,-198.002886 z m 827.24677,124.465829 c -2.5669,4.515061 -5.24673,8.823233 -7.87682,13.288381 2.65664,-4.415114 5.28298,-8.82109 7.87682,-13.288381 z m 52.49211,81.654394 c -23.87154,11.3618841 -47.2573,19.7593511 -71.01166,24.772909 23.52941,-5.0135636 47.36954,-13.5363191 71.01166,-24.772909 z m -45.93811,73.356672 c -47.62122,-0.240332 -79.42964,1.262697 -79.42964,1.262697 93.94454,12.612973 131.77264,10.858798 190.24632,17.798012 145.47532,6.901483 306.30923,29.775216 312.36714,125.608266 0.88781,-2.16559 2.19026,-4.64512 2.22475,-6.1331 C -333.58263,72.807069 -618.93728,56.23074 -761.80093,55.509745 Z m -124.76647,1.984238 c -15.08306,15.403811 -30.76422,29.394407 -47.14068,42.510797 16.4489,-12.849916 31.97952,-27.350434 47.14068,-42.510797 z m -537.6082,13.107995 c 0,0 -411.4066,52.080682 -339.8458,143.225892 -13.3679,-40.89016 44.8927,-61.41044 133.0642,-83.63863 45.1906,-19.58713 112.8483,-39.565705 206.7816,-59.587262 z m 388.7302,88.148262 c -28.9552,11.61567 -59.6943,18.35711 -91.8161,21.70636 32.2063,-2.94619 62.7682,-10.46033 91.8161,-21.70636 z m 576.21068,8.95914 c -0.99573,3.25343 -2.35806,6.56237 -3.90835,9.92119 0.91241,-3.45099 3.65259,-6.62324 3.90835,-9.92119 z m -1236.60108,41.9095 c 17.6441,73.8553 341.8704,133.65153 756.95668,153.26735 214.09423,10.11749 371.13339,-65.45407 438.21592,-137.57383 -74.34788,68.07511 -236.70473,135.31151 -438.21592,125.78866 C -1332.0496,332.52092 -1648.48,278.07859 -1695.8358,209.61888 Z m -42.2102,26.09574 c 28.3286,18.13927 76.4909,37.61414 149.1787,58.32457 -61.4192,-20.20705 -129.7063,-40.75235 -149.1787,-58.32457 z m 390.7746,113.46233 c 95.3421,17.55709 182.5257,28.64539 262.4606,34.75422 -79.1697,-5.35772 -167.8077,-18.02608 -262.4606,-34.75422 z m 632.73141,24.35201 c -28.06556,4.89221 -59.64028,7.69189 -91.51546,10.88324 32.39105,-2.74126 62.8892,-6.39148 91.51546,-10.88324 z"
       transform="matrix(0.03248256,0,0,0.03248256,84.22376,60.800417)" />
    <path
       id="path11708"
       style="display:inline;opacity:0.8;fill:#ffffff;fill-opacity:1;fill-rule:evenodd;stroke:none;stroke-width:0.0324826px;stroke-linecap:butt;stroke-linejoin:miter;stroke-opacity:1"
       d="m 44.906015,19.811254 c -0.01632,0.03458 -0.02899,0.08309 -0.04492,0.119139 0.0018,0.0593 0.07741,0.717621 0.08203,0.845703 -0.02616,-0.595714 -0.03712,-0.964842 -0.03711,-0.964842 z m -0.335938,0.916015 c -0.197868,0.687633 -0.331033,1.518517 -0.376954,2.423829 0.01924,-0.949975 0.189107,-1.68477 0.376954,-2.423829 z m -2.435546,2.466797 c -0.0141,0.02592 -0.0233,0.06297 -0.03711,0.08984 0.0017,0.04805 0.06456,0.533698 0.06836,0.625 -0.01844,-0.387179 -0.03126,-0.714843 -0.03125,-0.714843 z m 8.402342,0.941406 c -0.03698,0.06515 -0.07417,0.155007 -0.111328,0.226563 -0.01226,0.12915 0.0194,1.043434 -0.0059,1.365235 0.06001,-0.902512 0.117171,-1.591798 0.117187,-1.591798 z m -8.779295,0.01758 c -0.165382,0.544664 -0.290362,1.169846 -0.335938,1.859373 0.01738,-0.728548 0.183702,-1.268698 0.335938,-1.859373 z m 2.429685,0.09375 c 0.06171,1.926629 0.537018,4.052895 1.701174,5.849611 -0.02524,-0.135118 -0.04436,-0.280426 -0.06836,-0.417969 -0.0099,-0.05174 -0.02934,-0.07096 -0.03906,-0.123047 -1.055245,-1.628629 -1.464064,-3.531747 -1.593751,-5.308595 z m 1.593751,5.308595 c 0.0064,0.0099 0.017,0.01741 0.02344,0.02734 -0.01784,-0.103819 -0.03362,-0.20952 -0.05078,-0.314453 0.02208,0.125833 0.0042,0.163325 0.02734,0.287109 z m 0.107423,0.541016 c 0.314951,1.686286 0.70631,3.189601 1.253904,4.054687 -0.04797,-0.09132 0.04014,-0.31554 -0.01758,-0.396484 -0.49199,-0.690024 -0.808796,-2.067137 -1.109377,-3.464844 -0.04206,-0.0646 -0.08509,-0.128748 -0.126951,-0.193359 z m -4.470705,-3.121095 c 0.05148,1.689278 0.521329,3.561979 1.701173,5.142579 -0.03532,-0.164158 -0.06279,-0.339677 -0.0957,-0.507812 -0.003,-0.01397 -0.0087,-0.01921 -0.01172,-0.0332 -1.053939,-1.411929 -1.46291,-3.061436 -1.59375,-4.601564 z m 1.59375,4.601564 c 0.0021,0.0029 0.0057,0.005 0.0078,0.0078 -0.0054,-0.02782 -0.01027,-0.05607 -0.01562,-0.08398 0.007,0.033 7.51e-4,0.04335 0.0078,0.07617 z m 0.107423,0.541015 c 0.310738,1.444375 0.696345,2.732247 1.232421,3.488281 -0.04929,-0.08762 0.06657,-0.30655 0.0039,-0.382812 -0.469487,-0.571337 -0.763961,-1.727675 -1.056642,-2.869141 -0.05953,-0.079 -0.120653,-0.157242 -0.179687,-0.236328 z m 6.255859,-4.064454 c -0.154159,1.632229 0.07459,3.419541 1.119141,4.904298 -0.01164,-0.09115 -0.01491,-0.190577 -0.02539,-0.283203 -0.0155,-0.107656 -0.06801,-0.14796 -0.08203,-0.257813 -0.929008,-1.32052 -1.068183,-2.885884 -1.011718,-4.363282 z m 1.011718,4.363282 c 0.01735,0.02466 0.04722,0.04364 0.06445,0.06836 -0.02255,-0.216803 -0.04565,-0.433808 -0.0625,-0.65625 0.02345,0.259615 -0.03384,0.338167 -0.002,0.58789 z m 0.107423,0.541016 c 0.171651,1.344393 0.451797,2.531823 0.958986,3.232422 -0.05212,-0.09191 0.06785,-0.315408 0,-0.394531 -0.45931,-0.535607 -0.657064,-1.612354 -0.847659,-2.685547 -0.03562,-0.05135 -0.07534,-0.101186 -0.111327,-0.152344 z m -2.283202,-0.251953 c 0.357808,0.486946 0.787029,0.926704 0.902342,1.570312 -0.178251,-0.603643 -0.467807,-1.137877 -0.902342,-1.570312 z m 0.937498,1.71289 c 0.473661,3.135393 -1.480591,7.707364 -3.003906,10.757813 0.155124,0.0042 0.250243,-0.0081 0.373046,-0.01367 1.568781,-3.222431 3.405836,-7.782003 2.63086,-10.744141 z m -3.66211,0.01758 c 0.286061,0.39799 0.694491,0.726342 0.76758,1.240234 -0.144778,-0.475497 -0.395177,-0.89298 -0.76758,-1.240234 z m 7.146486,0.664062 c 0.240135,0.340721 0.610221,0.610496 0.685547,1.037109 -0.141883,-0.391567 -0.367571,-0.740551 -0.685547,-1.037109 z m -6.363282,0.646485 c 0.33406,2.712568 -1.915263,6.742566 -3.728514,9.570312 0.154432,-0.0057 0.307879,-0.0096 0.453125,-0.01758 1.8703,-2.988678 3.98767,-7.016687 3.275389,-9.552734 z m 7.085938,0.535156 c 0.33528,2.530021 -1.79348,6.266987 -3.599608,9.003906 0.121439,0.0088 0.297612,0.03967 0.419922,0.04883 1.866957,-2.892447 3.908866,-6.674321 3.179686,-9.052734 z m -5.496092,9.421875 c -0.790064,-0.04807 -1.23031,0.05552 -1.978516,0.0293 -0.2842,0.545072 -0.470484,0.958222 -0.775392,1.634765 -0.350262,1.044496 -0.701776,2.116944 -0.640624,2.119141 0.074,0.0027 0.964921,-2.141694 1.523435,-3.212891 0.748207,0.02623 1.188453,-0.07737 1.978516,-0.0293 0.349078,0.02124 0.491351,0.03307 0.669924,0.04687 0.115069,-0.228524 0.142313,-0.310261 0.246094,-0.515626 -0.524489,-0.03327 -0.490132,-0.03981 -1.023437,-0.07227 z m -2.500001,0.04297 c -1.031062,-6.09e-4 -1.78274,0.07701 -2.710939,0.111328 0.01529,-0.02384 0.03152,-0.05216 0.04687,-0.07617 -0.145375,0.0043 -0.300353,0.0026 -0.449217,0.0059 -0.263369,0.396658 -0.397366,0.621741 -0.695312,1.117188 -0.566259,1.171497 -1.239616,2.579615 -1.162109,2.582031 0.08042,0.0025 1.220402,-2.037001 1.96484,-3.158203 0.943203,-0.02036 1.813641,-0.06311 2.837891,-0.04687 0.0777,-0.230008 0.101645,-0.339809 0.167971,-0.535156 z m 4.054687,0.06641 c -0.285976,0.416075 -0.425131,0.637844 -0.742187,1.142578 -0.595753,1.182759 -1.267463,2.528861 -1.187501,2.53125 0.08327,0.0025 1.252758,-1.991633 2.037108,-3.132812 6.224714,0.40237 12.29883,0.867187 12.29883,0.867187 -3.964947,-0.647452 -7.27155,-1.009158 -10.291015,-1.259766 -1.031503,-0.07021 -1.044694,-0.07924 -2.115235,-0.148437 z m -7.750001,0.09375 c -2.692943,0.146916 -4.92128,0.42003 -6.589844,0.767578 -1.075663,0.314761 -2.077704,0.650423 -2.210935,1.210938 -0.0046,0.0606 0.300366,0.08624 0.320311,0.144531 0.872481,-1.072428 4.157416,-1.527134 8.277345,-1.675781 0.09484,-0.196551 0.116453,-0.268508 0.203123,-0.447266 z m -9.789061,1.945312 c -0.0744,0.06974 -0.137177,0.140395 -0.177735,0.210938 -1.435868,2.497398 12.667913,6.264864 30.908203,0.601562 0.01111,-0.02242 0.02013,-0.03612 0.03125,-0.05859 -2.813005,0.809722 -6.435497,1.340803 -10.197265,1.628907 -12.290995,1.793228 -20.668904,-0.416257 -20.564453,-2.382826 z m 31.238281,0.626954 c -0.107438,0.03319 -0.233656,0.05948 -0.34375,0.0918 -0.0048,0.01584 -0.01272,0.03298 -0.01758,0.04883 0.115722,-0.03621 0.229655,-0.0685 0.345704,-0.105468 -0.399033,0.823171 -0.794259,1.609277 -1.185547,2.363281 C 59.0986,58.69413 53.918558,67.140376 45.611093,66.633534 41.181577,66.28803 37.426035,61.557361 34.187264,56.34641 33.173048,54.959866 32.12363,53.419357 31.025155,51.719457 c 3.573045,7.101148 8.764223,14.992622 14.693359,15.455078 4.748661,0.289718 8.519623,-2.362046 11.408203,-6.142578 -0.105222,0.0038 -0.217915,0.112751 -0.322265,0.111328 0.09332,-0.02748 0.288405,-0.169614 0.384765,-0.199219 2.097858,-2.770694 3.727939,-6.128952 4.916016,-9.392578 -1.58e-4,1.52e-4 -0.01758,0.01367 -0.01758,0.01367 0,0 0.02129,-0.02699 0.02148,-0.02734 0.377254,-1.037272 0.714082,-2.064918 1.003907,-3.058593 z m 6.630859,0.371093 c 0.724148,2.561578 -3.665983,8.208165 -8.603515,10.78125 -1.903518,1.31148 -3.158207,1.737594 -4.228516,2.052735 6.510138,0.08875 14.807011,-10.029 12.832031,-12.833994 z m -3.107422,0.326172 c -1.045072,-0.240059 -2.326115,0.609575 -3.316406,1.388672 -0.717238,0.823052 -1.125,1.541015 -1.125,1.541015 0,0 2.879974,-2.772017 4.548828,-2.388671 0.229564,0.05273 0.423966,0.122189 0.597656,0.201171 -0.246187,-0.244432 -0.18725,-0.623239 -0.705078,-0.742187 z M 59.316171,63.09056 c -1.54686,-0.0078 -2.580078,0.04102 -2.580078,0.04102 4.818597,0.646944 5.075545,0.12269 10.640625,1.400391 0.223049,0.05121 0.416512,0.115461 0.597656,0.185547 -0.298558,-0.223629 -0.170873,-0.603913 -0.705078,-0.726563 -3.440346,-0.789878 -4.8632,-0.750238 -6.578125,-0.865234 -0.463324,-0.01169 -0.972263,-0.03312 -1.375,-0.03516 z m -21.515625,0.490234 c 0,0 -1.330694,0.17676 -3.021486,0.486328 -3.510728,1.042105 -6.026941,2.071768 -5.890624,3.023438 0.554711,-1.115854 3.287452,-2.31089 8.91211,-3.509766 z m 34.878906,2.58789 c 0.122881,0.291399 0.355543,0.540561 0.347656,0.88086 -0.02952,1.273864 -9.50899,10.650114 -37.771483,4.003906 -2.027987,-0.476901 -2.00651,-0.841551 -3.277344,-1.28125 -0.556056,-0.185545 -1.047248,-0.377352 -1.466799,-0.574219 -1.745831,-0.760112 -3.848719,-1.528832 -3.853513,-2.158203 -0.753391,1.232505 1.092154,2.764433 8.705076,4.554688 28.262496,6.646208 37.741961,-2.730042 37.771485,-4.003907 0.01242,-0.535777 -0.156195,-1.004663 -0.455078,-1.421875 z" />
  </g>
</svg>
